<svg width="1440" height="541" viewBox="0 0 1440 541" fill="none" xmlns="http://www.w3.org/2000/svg">
<path opacity="0.45" d="M47 150.056L-2 89.985V541H1453L1448.45 2.34235C1448.45 2.34235 1401.01 -7.81059 1374.19 14.1593C1348.5 35.1964 1343.03 74.3065 1319.62 103.771C1285.43 146.816 1262.61 157.153 1222 162.5C1192.68 166.36 1199.5 162.5 1172 156.948C1139.79 150.444 1139.97 70.1763 1117.54 58.473C1092.15 45.2219 1086.43 112.134 1062.98 135.283C1026.69 171.114 1010.15 160.599 969.516 156.948C952.958 155.46 924.552 156.948 924.552 156.948C924.552 156.948 893.11 129.912 874.031 124.45C841.376 115.101 824.032 163.077 791.177 156.948C768.81 152.776 756.743 147.043 735.099 135.283C695.27 113.644 691.495 129.619 643.5 105C623.175 94.5742 622.465 65.7652 597 54C569.248 41.1783 551.613 35.7744 520 51.8502C463.277 80.6951 446.683 150.056 388.5 164C361.992 170.353 323 164 323 164C323 164 302.719 158.514 293.547 147.1C275.752 124.958 280.224 79.0929 260.708 63.3968C228.787 37.7229 223.135 140.359 185.938 150.056C159.5 156.948 140.5 153 140.5 153L101.5 164L78 156.948L47 150.056Z" fill="#FF0000"/>
</svg>
