<svg width="676" height="732" viewBox="0 0 676 732" fill="none" xmlns="http://www.w3.org/2000/svg">
<path opacity="0.3" d="M270.45 3.86224C260.155 9.27753 248.352 21.4077 244.334 30.5053C242.325 34.4043 237.554 44.1518 233.788 52.1664C226.505 66.8959 223.743 86.3908 227.259 98.7375C229.016 105.019 228.514 105.886 219.725 110.435C214.452 113.034 201.143 118.666 190.094 122.565C179.045 126.68 163.475 133.395 155.44 137.727L140.875 145.525L121.037 142.709C103.208 140.327 100.195 140.327 89.3967 144.009C82.8678 146.175 74.8321 150.291 71.5676 153.323C66.0431 158.305 65.792 160.472 65.792 186.898C65.792 230.003 71.5676 240.617 95.4235 240.834C116.768 240.834 136.857 233.036 172.264 210.725C180.3 205.526 187.834 201.411 189.089 201.411C196.371 201.411 186.076 237.368 169.753 269.643C154.184 300.185 155.942 298.886 143.135 289.788C128.319 279.391 122.795 277.225 112.248 277.225C101.45 277.225 89.6478 285.889 86.8856 295.853C84.3744 303.868 93.1634 317.731 105.217 324.879C119.028 333.11 121.288 335.493 118.777 339.608C117.773 341.558 116.015 349.356 115.262 356.937C114.508 364.302 112.248 372.966 109.988 375.782C107.728 378.598 105.97 382.93 105.97 385.096C105.97 390.512 95.4235 402.425 85.1278 408.49C80.3566 411.09 70.8143 419.538 63.7831 427.119C56.7519 434.7 41.9361 450.296 30.8871 461.993C7.78455 486.47 3.01337 497.084 1.00446 526.326L0 544.738L16.8247 578.963C33.3982 612.104 60.2675 655.643 77.3432 676.221C81.8633 681.636 87.89 690.3 90.9034 695.283C100.948 712.395 123.799 729.94 132.337 726.908C134.095 726.474 140.122 726.908 145.897 728.207C153.682 729.94 157.198 729.94 159.458 727.991C160.964 726.691 170.004 725.608 179.296 725.608C203.403 725.608 210.936 722.142 229.267 703.08C237.805 693.983 245.59 687.268 246.594 688.134C247.599 689.001 249.608 694.199 251.366 699.398C256.388 714.561 264.926 724.525 276.477 728.641C289.284 732.973 310.377 733.189 324.189 728.857C338 724.742 362.107 706.33 377.174 688.351C383.954 680.336 392.241 672.755 395.254 671.239C398.267 669.722 409.819 668.423 420.868 668.423L440.957 668.206L444.975 677.304C449.244 687.268 458.033 696.366 467.575 700.698C471.091 702.214 482.893 705.463 493.691 708.063C504.74 710.662 520.811 716.294 529.6 720.626C543.914 727.341 547.429 728.207 557.725 727.124C573.796 725.391 601.168 715.86 608.45 709.146L614.226 703.947L607.195 687.268C596.899 661.491 588.361 655.426 559.232 653.477C520.058 650.877 504.489 640.913 481.637 604.306C466.068 578.746 466.571 573.764 487.413 556.652C495.449 550.154 503.233 542.789 504.489 540.623C506.247 538.023 506.749 526.543 505.996 510.081C504.74 489.286 505.242 482.571 508.256 477.589C510.516 473.907 513.027 466.759 514.031 461.56C515.036 456.361 517.547 448.78 519.305 444.881C521.313 440.982 522.82 435.133 522.82 432.101C522.82 424.086 525.582 426.469 538.389 445.531C554.461 469.141 570.783 487.337 595.141 508.348C616.737 526.976 626.279 532.392 646.62 537.157C669.22 542.356 676 535.424 676 507.481C676 493.618 674.996 489.286 669.471 481.055C661.184 468.708 645.866 452.679 631.302 440.982C621.257 432.967 600.163 413.039 554.21 367.334C515.789 329.211 502.731 309.933 506.247 297.586C508.004 291.521 522.569 282.856 539.143 277.658C556.972 272.243 561.241 265.744 561.492 245.383C561.743 230.22 560.738 227.188 553.456 216.357C546.927 206.176 543.412 203.577 533.869 200.328C517.798 195.129 501.475 196.862 485.655 205.526C465.315 216.79 456.024 225.888 452.257 238.235C448.741 250.365 450.499 250.148 424.886 241.917C410.321 237.368 397.263 227.837 397.263 222.206C397.263 218.09 412.581 208.126 433.423 198.595C454.015 189.064 471.844 174.768 475.36 164.804C476.866 160.255 477.62 151.807 477.117 145.959C475.862 134.045 464.813 107.619 458.786 101.77C454.768 97.8712 439.701 92.6725 421.119 88.5569C410.823 86.1742 367.883 87.9071 358.34 90.9396C353.318 92.4559 320.422 90.2898 317.911 88.1237C317.158 87.4739 318.413 85.0911 320.924 82.7084C328.709 74.6938 336.744 55.6321 336.996 44.3684C336.996 23.3572 328.709 9.71075 314.144 7.11139C310.377 6.46155 305.606 4.51208 304.1 2.99585C299.831 -1.33636 279.49 -0.903198 270.45 3.86224ZM289.786 117.366C292.046 118.882 295.562 124.947 297.571 131.013L301.086 141.843L291.544 158.305C286.522 167.186 276.979 181.049 270.701 189.064C264.423 196.862 256.639 208.126 253.123 213.974C249.859 219.606 245.088 225.671 243.079 227.188C240.819 228.92 239.061 231.52 239.061 233.253C239.061 234.986 229.519 253.181 217.967 273.542C206.165 294.12 192.605 318.814 187.834 328.778C173.269 358.453 151.673 391.162 136.355 406.758C128.571 414.772 115.764 429.068 108.481 438.599C87.1367 466.109 59.5141 494.918 58.7608 490.802C58.2585 488.853 59.263 482.138 60.7697 476.073C63.7831 463.509 75.3343 448.78 103.71 421.92C132.337 394.844 153.18 354.338 150.669 331.377C149.915 324.446 149.162 323.796 141.88 323.796C137.36 323.796 131.584 321.846 128.068 319.247C125.055 316.648 119.279 312.965 115.513 310.799C107.477 306.467 104.464 299.969 108.481 295.636C113.001 290.871 114.257 291.304 131.333 303.218C150.418 316.431 157.449 317.081 167.996 306.9C185.574 289.571 214.201 217.224 219.223 176.934C222.236 154.406 227.259 145.092 244.585 130.579C262.415 115.633 279.741 110.651 289.786 117.366ZM444.975 134.262C451.001 137.078 457.53 148.341 457.53 156.139C457.53 164.154 444.724 174.768 424.132 184.082C379.183 204.443 368.887 219.606 386.465 239.534C393.496 247.766 410.321 255.564 434.428 262.278L452.508 267.26V279.174C452.508 292.604 457.028 317.514 460.544 323.146C462.804 327.262 459.037 328.778 456.275 325.095C453.764 321.63 401.783 291.304 385.461 283.939C370.896 277.225 357.085 264.661 357.085 258.163C357.085 256.647 355.578 253.181 353.569 250.581C347.291 242.35 339.758 213.974 342.52 208.126C343.776 205.093 344.278 201.628 343.525 199.895C342.771 198.162 354.322 188.847 372.905 176.068C389.478 164.371 408.563 150.941 414.841 145.959C432.168 132.312 436.939 130.579 444.975 134.262ZM335.74 266.611C351.811 284.373 361.103 291.737 375.918 298.236C401.532 309.716 442.212 335.926 461.297 353.471C484.149 374.483 486.911 377.732 488.92 387.696C490.175 394.627 489.673 395.494 482.14 398.526C474.355 401.559 473.853 402.642 472.346 414.772C471.593 421.92 469.082 431.018 466.571 434.7C462.051 442.282 455.522 443.581 437.944 440.549C421.872 437.733 420.617 410.873 435.432 390.945C442.715 381.197 443.719 378.382 443.719 364.302C443.719 349.139 443.217 348.056 435.935 342.208C429.657 337.442 424.634 335.926 410.823 334.626C392.241 332.893 393.245 332.46 379.685 348.489C376.672 352.388 371.9 353.255 352.816 354.771C340.009 355.637 329.462 355.854 329.462 354.988C329.462 354.338 333.982 349.139 339.507 343.724C351.309 332.244 352.565 323.796 344.027 313.832C335.991 304.517 328.709 301.701 307.364 299.969C296.566 299.102 288.53 297.369 287.777 295.636C286.27 292.171 297.822 265.744 304.1 257.946C312.135 248.415 321.426 251.015 335.74 266.611ZM415.343 369.934C415.092 375.999 412.832 385.096 410.823 390.295C408.563 395.494 406.303 408.49 405.55 419.538C404.294 435.783 404.796 440.549 408.312 444.881C415.343 454.412 426.392 457.661 450.499 457.878C472.095 458.094 472.095 458.094 473.602 464.159C476.364 476.073 472.095 479.972 452.006 484.087C434.679 487.553 432.921 487.553 419.11 484.087C411.325 482.138 403.792 478.889 402.536 476.939C397.765 468.708 394.501 444.448 395.003 422.353C395.756 395.494 393.999 392.028 380.438 392.028C359.596 392.028 344.278 417.155 339.256 459.177C336.744 478.456 332.727 487.337 326.449 487.337C325.444 487.337 324.44 476.289 324.44 462.86C324.44 444.231 325.947 433.617 330.718 416.938C334.233 405.025 336.996 393.328 336.996 390.728C336.996 382.93 351.811 375.132 372.654 371.667C378.178 370.8 386.967 366.685 393.747 361.486C404.545 353.471 405.801 353.038 410.823 356.071C415.092 358.67 416.097 360.836 415.343 369.934ZM568.774 407.191C581.33 419.754 601.921 438.816 614.477 449.43C627.284 460.26 641.848 474.773 647.373 481.705C656.162 493.185 657.166 496.001 657.166 507.698V520.911L649.884 520.261C637.077 518.962 627.786 513.33 604.181 492.535C581.33 472.174 569.779 458.744 545.169 423.436L531.358 403.942L532.363 387.696L533.367 371.45L539.645 377.948C543.16 381.631 556.218 394.627 568.774 407.191ZM305.104 392.461C303.848 401.559 299.077 426.902 289.033 475.423C283.006 505.099 284.513 517.445 295.059 527.843L302.593 535.207L294.557 541.706C290.037 545.172 286.019 547.987 285.768 547.987C285.266 547.987 284.262 537.157 283.257 523.944C281.499 497.084 278.235 489.503 265.93 482.788C255.383 477.156 244.083 478.672 229.519 487.553L218.218 494.485L219.976 486.47C222.738 474.123 233.788 452.679 243.33 441.848C253.374 430.151 302.342 383.364 304.853 383.364C305.606 383.364 305.857 387.479 305.104 392.461ZM211.689 391.595C210.434 393.544 200.892 404.808 190.847 416.505C178.542 430.585 164.229 451.596 147.404 480.405C133.593 503.799 116.015 533.258 107.979 545.821C97.6835 562.284 92.6612 573.547 89.3967 586.327C87.1367 596.292 84.3744 604.306 83.37 604.306C80.3566 604.306 63.2808 573.331 61.7741 565.1C60.7697 560.334 62.2764 551.453 65.2897 541.706C69.5587 528.709 72.8232 523.944 84.6256 512.897C92.4101 505.748 103.961 493.402 110.49 485.387C123.297 469.791 161.969 427.335 177.036 411.956C195.367 393.544 219.474 379.248 211.689 391.595ZM379.685 467.842C383.703 482.788 388.223 490.802 395.003 494.051C402.285 497.301 399.021 499.25 377.676 503.582C367.38 505.748 354.071 509.647 348.045 512.463L336.996 517.662L340.762 511.164C342.771 507.698 344.529 503.582 344.529 502.066C344.529 500.55 347.291 494.485 350.807 488.636C354.825 481.921 357.085 474.34 357.085 468.058C357.085 455.278 362.86 432.101 368.636 421.054L373.156 412.606L374.914 434.267C375.667 446.181 377.927 461.343 379.685 467.842ZM196.623 459.394C193.107 491.885 196.874 505.099 209.932 508.998C219.725 511.814 228.514 509.431 239.563 501.416C254.128 490.802 260.406 494.701 264.172 516.796C274.217 577.88 253.123 652.827 214.954 692.033C201.394 705.68 198.883 707.196 189.591 707.846C180.049 708.496 178.542 707.846 168.247 697.449C152.426 682.069 145.646 669.506 146.651 658.026L147.404 648.711L159.96 647.628C184.318 645.246 194.363 637.448 212.694 606.256C225.501 583.945 231.527 563.583 231.527 541.489C231.527 528.709 230.774 525.893 226.003 521.994C219.223 516.579 209.932 517.662 203.152 524.81C163.224 566.183 152.175 576.147 147.153 575.28C139.368 573.547 134.095 578.096 129.073 590.66C126.562 596.941 123.548 601.49 122.795 600.624C119.53 598.024 121.037 567.266 124.553 560.334C148.911 511.38 195.116 433.617 198.129 436.217C198.632 436.65 197.878 447.047 196.623 459.394ZM471.091 517.445C476.113 520.261 480.131 523.51 480.131 524.81C480.131 526.326 475.862 533.691 470.84 541.489C453.01 569.215 451.504 572.464 451.755 582.429C452.006 592.609 461.799 623.368 470.588 640.913L475.36 650.877L470.086 654.56C464.059 658.675 463.306 658.459 438.195 648.495C422.626 642.213 419.11 639.83 414.59 631.816C411.577 626.834 407.308 620.769 404.796 618.386C402.285 616.003 397.263 609.072 393.747 603.006L386.967 591.959L365.12 590.66C352.816 589.793 338.753 587.627 333.48 585.894C328.207 583.945 317.66 581.779 309.875 580.912C297.822 579.613 295.562 578.746 294.808 574.631C293.302 566.183 301.588 556.652 318.915 547.121C350.556 529.576 365.371 523.51 390.734 517.445C423.128 509.647 456.526 509.647 471.091 517.445ZM211.438 559.251C207.923 577.013 188.085 615.353 178.04 623.368C172.013 628.35 172.013 628.35 156.695 624.668L141.126 620.985L146.4 612.971C156.947 596.941 210.685 540.189 213.447 542.572C213.949 543.005 213.196 550.587 211.438 559.251ZM304.602 603.006C310.88 607.772 318.915 614.054 322.431 616.653C330.718 622.501 333.731 636.364 329.211 646.112C327.453 650.011 321.929 657.159 317.158 662.141C309.624 669.939 306.862 671.455 299.077 671.455C294.055 671.455 283.006 669.289 274.719 666.473L259.401 661.491L264.172 652.61C267.939 645.246 274.468 623.368 280.746 596.075C282.253 589.143 289.535 591.31 304.602 603.006Z" fill="#FF0000"/>
</svg>
