<svg width="94" height="119" viewBox="0 0 94 119" fill="none" xmlns="http://www.w3.org/2000/svg">
<g filter="url(#filter0_d_564_255)">
<mask id="path-1-outside-1_564_255" maskUnits="userSpaceOnUse" x="8" y="4" width="78" height="103" fill="black">
<rect fill="white" x="8" y="4" width="78" height="103"/>
<path d="M34.8328 6.08936C32.7793 7.65358 32.4993 9.60886 33.9461 12.1228C34.6462 13.296 35.1595 14.6926 35.1595 15.3071C35.1595 17.0948 32.3126 20.5584 28.6722 23.3517C26.8054 24.7483 23.8184 27.0388 21.9516 28.4354C20.0847 29.8879 17.7512 31.3404 16.7244 31.7315C14.6242 32.5136 12.9907 34.1337 12.0106 36.3124C11.0772 38.4353 11.2172 39.7202 12.4306 41.061C14.3442 43.1838 16.351 43.966 21.6716 44.6363C24.6118 45.0274 27.1788 45.4743 27.3654 45.6978C27.9255 46.3123 15.5109 60.6697 12.8507 62.5132C7.67018 66.0327 7.71685 70.3343 12.9907 72.5689C15.6043 73.6862 16.5844 73.5186 18.4046 71.8986C23.165 67.5411 23.5384 67.9321 22.0449 75.6974C20.1781 85.3621 19.758 88.6581 19.758 92.7921C19.758 100.055 21.1582 104.356 23.4917 104.356C23.9584 104.356 24.5652 104.747 24.8919 105.194C26.8521 107.987 28.6722 103.295 28.9989 94.5798C29.1856 88.6023 29.2323 88.3788 30.2591 88.4347C30.8191 88.4905 31.8926 89.0492 32.5926 89.7196C34.4595 91.5072 35.7663 91.2838 37.4931 88.9374C38.7999 87.0939 39.0333 86.9822 39.7333 87.7643C40.1534 88.2671 40.9468 89.7196 41.5068 91.0603C46.0806 102.289 46.3606 102.792 49.6276 103.853C52.0545 104.636 55.7882 104.133 56.815 102.904C57.6551 101.898 58.6818 96.3116 58.3085 94.5798C58.0751 93.4067 58.7752 86.3118 59.8486 79.5521C60.082 78.0996 60.5954 76.4795 60.9687 76.0326C61.6221 75.2505 61.7621 75.4181 62.6022 77.3733C63.1156 78.6024 63.909 79.8873 64.2824 80.2783C64.7024 80.7253 65.0291 81.3398 65.0291 81.7867C65.0291 82.1778 65.6825 83.0157 66.4293 83.6861C68.1094 85.0827 69.3695 87.8201 69.0429 89.1609C68.9028 89.6637 68.0161 90.7251 67.0827 91.5072C62.2755 95.4178 64.7491 98.0993 73.2433 98.1552C75.5768 98.2111 76.6503 97.8759 79.0305 96.3675C81.6441 94.8033 82.2041 94.1329 83.5576 91.2279C85.4245 87.0939 85.4711 85.6973 83.7443 83.7978C83.0442 82.9599 81.3174 81.0046 79.9173 79.4404C78.5171 77.8761 76.3236 75.9209 74.9701 75.1387C73.6633 74.3008 72.4032 73.3511 72.2632 73.0159C72.0765 72.6807 71.0497 71.9544 69.9763 71.3958C68.9495 70.8371 67.5494 69.7757 66.9426 68.9377C65.8692 67.5969 65.8692 67.4293 66.6159 66.4796C67.036 65.8651 68.2494 65.083 69.3695 64.7478C76.1835 62.2897 79.8239 57.0943 77.1636 53.6306C75.0634 50.9491 71.2364 49.4407 69.8829 50.7815C69.1362 51.5078 68.9962 54.9714 69.6962 55.4742C69.9763 55.6418 70.163 56.0887 70.163 56.368C70.163 57.0943 67.2227 58.5468 65.7292 58.5468C64.7024 58.5468 64.5624 58.3233 64.5624 56.7032C64.5624 53.7982 65.7292 49.9994 66.9426 48.938C68.9962 47.1503 72.1698 46.5358 75.5768 47.2061C78.1904 47.7648 78.9838 47.7089 80.524 46.9827C82.3908 46.0888 83.6976 43.966 83.6976 41.7314C83.6976 39.9437 80.5706 33.5192 79.4972 33.1281C78.5171 32.7371 75.5302 33.6868 74.4567 34.6923C73.9433 35.1951 68.8095 36.7035 67.5027 36.7593C66.4759 36.7593 66.8493 34.0778 67.9694 33.1281C76.1369 26.3126 77.677 23.5752 76.6503 17.7093C76.1835 15.1395 76.0435 14.9719 72.1232 12.3463C66.4293 8.49155 64.7024 7.87704 62.6489 9.10607C61.7621 9.66473 59.1486 12.458 56.815 15.363L52.5679 20.6702L51.2144 19.8322C49.5343 18.7708 47.6208 16.3685 46.6873 14.0781C46.2673 13.0725 44.8672 10.9496 43.5604 9.2178C41.7869 6.87147 40.7601 6.03349 39.1733 5.5307C36.513 4.74859 36.6063 4.74859 34.8328 6.08936ZM41.8335 10.4468C42.8603 11.5641 44.2604 13.7429 45.0538 15.363C46.6407 18.7149 49.5343 22.0668 51.2611 22.5696C52.3346 22.9048 53.0346 22.6813 55.2748 21.2288C55.4615 21.173 55.4149 22.1227 55.1815 23.4634C54.9948 24.8042 54.8081 26.8712 54.7615 28.1561C54.7615 30.8376 53.128 34.1895 51.6812 34.413C51.1678 34.5247 49.7676 33.9102 48.6009 33.1281C46.0806 31.4522 45.1472 29.3293 45.2872 25.307C45.3805 21.7316 44.5405 20.5584 41.9269 20.5584C38.3799 20.5584 32.4993 23.631 26.5254 28.603C23.4917 31.117 23.025 32.346 24.0051 35.1951C24.5652 36.8152 24.6585 36.8711 27.1788 36.6476C30.5858 36.3683 34.6462 34.0219 36.2796 31.4521C36.9797 30.3907 37.7265 29.4969 37.9598 29.4969C38.1932 29.4969 38.7999 30.5583 39.2666 31.8432C39.7333 33.184 40.9001 35.0275 41.8335 36.0331C42.7669 37.0387 43.5604 37.9884 43.5604 38.2118C43.5604 38.3794 41.9735 40.614 40.0133 43.0721C36.7464 47.3179 33.6661 52.1781 31.0991 57.3177C29.7923 59.8875 28.6256 65.8651 28.6256 69.8874C28.6256 71.5634 28.4856 74.8035 28.3455 77.1499C28.0188 81.3398 28.0188 81.3956 25.3119 84.9151L22.605 88.4347L22.5583 86.3676C22.5583 85.2503 23.305 81.0046 24.1918 76.9823C26.0586 68.5466 26.1053 68.2115 25.0319 66.8148C23.9118 65.3065 22.8383 65.5299 18.4979 68.3791C14.5309 71.0047 14.5309 71.0047 12.944 70.055C12.0573 69.5522 11.2172 68.7701 11.0305 68.3232C10.7038 67.15 12.0573 65.4182 14.4842 63.9098C16.3977 62.7367 23.6317 54.7479 27.5521 49.4407C29.839 46.424 30.1657 44.3011 28.5322 43.4632C27.9255 43.1838 25.1719 42.6811 22.3716 42.3459C17.5178 41.7313 14.2508 40.5023 13.4574 38.994C12.8507 37.8208 15.3709 34.8041 17.7045 33.8544C18.9646 33.3516 21.6716 31.5639 23.7718 29.9438C25.8253 28.3237 28.6722 26.145 30.0724 25.0835C36.6063 20.1674 38.5665 15.5306 35.8596 11.2848L34.6928 9.44126L35.6729 8.37982C36.4663 7.43011 36.8864 7.37425 38.3332 7.87704C39.2666 8.21223 40.8534 9.3854 41.8335 10.4468ZM66.4293 11.5083C67.596 12.0111 69.8363 13.4077 71.4231 14.5809C74.27 16.6479 74.3167 16.7037 74.0367 18.7708C73.8967 20.1674 73.3366 21.3406 72.3565 22.402C70.3963 24.5249 68.7628 25.8098 68.5295 25.4746C68.3895 25.307 68.5295 23.9104 68.8562 22.2903C69.3696 19.6646 69.3229 19.2735 68.3895 17.7652C67.8294 16.8713 67.3627 15.5306 67.3627 14.7485C67.3627 13.2401 65.8225 11.62 64.4224 11.62C63.9557 11.62 63.7223 11.3407 63.8623 11.0614C64.2357 10.391 63.9557 10.3351 66.4293 11.5083ZM66.8493 22.2344C66.5226 23.5193 65.4492 25.5863 64.4691 26.8712L62.6956 29.2175L64.5624 25.0277C65.5892 22.7372 66.4293 20.335 66.4293 19.7205C66.4293 18.9942 66.5693 18.8266 66.9426 19.2735C67.2693 19.6646 67.2693 20.5584 66.8493 22.2344ZM80.4306 38.2118C81.4574 40.4464 81.8308 41.7872 81.5974 42.7369C81.224 44.5805 78.9371 45.6978 76.7436 45.0833C72.6832 43.966 66.756 45.3067 64.8424 47.8207C63.8157 49.2732 62.6956 53.8541 62.6956 56.9825C62.6956 60.3345 63.629 61.5635 65.8225 61.0607C67.3627 60.7255 67.316 60.8372 63.8157 64.8037C59.4286 69.7757 57.1884 73.7421 55.6949 79.161L54.5281 83.2951L54.2014 75.2505C54.0147 70.8371 53.828 63.5188 53.828 59.0496C53.7814 49.6642 54.1547 48.3234 57.6551 45.3067C60.3153 43.0721 62.4155 42.0107 68.0161 40.3347C72.1232 39.1057 73.8033 38.2677 77.3503 35.8096C77.8637 35.4186 78.4704 35.0834 78.6571 35.0834C78.7971 35.0834 79.5906 36.48 80.4306 38.2118ZM55.2282 39.2733C54.4814 42.0107 50.6544 45.3626 47.0607 46.5358C41.9735 48.1 41.4135 47.5413 43.607 43.2397C45.5672 39.3291 47.8541 37.7649 52.1945 37.318C54.0147 37.1504 55.5549 37.0945 55.6015 37.1504C55.6949 37.2063 55.5549 38.156 55.2282 39.2733ZM45.8006 53.91L50.8411 54.2452V57.1501L50.7944 60.0551L48.9276 58.2674C47.9008 57.3177 46.734 56.3122 46.314 56.1446C45.1939 55.6976 40.1534 57.0384 38.7066 58.1557C37.1664 59.3848 36.653 61.6194 37.6331 62.9043C38.0065 63.407 38.4732 64.6361 38.6132 65.5299C38.8932 67.0942 38.6132 67.5969 35.1595 71.6751C33.106 74.1332 31.1925 76.256 30.9125 76.3678C30.5391 76.4795 30.4457 74.8035 30.5858 70.4461C30.8191 63.016 31.9392 59.8317 35.8596 54.8597C38.3799 51.6754 38.3799 51.6754 39.5466 52.6251C40.3867 53.2396 42.2536 53.6306 45.8006 53.91ZM51.0278 68.6025C51.0278 69.7198 50.7011 70.4461 50.001 70.9488C48.3675 72.0103 42.0202 75.3063 41.8802 75.1387C41.4602 74.636 46.4073 68.826 47.9475 67.988C50.6077 66.5914 51.0278 66.6472 51.0278 68.6025ZM71.8431 76.7588C73.1966 78.3231 73.7566 78.6582 74.6901 78.3789C75.6235 78.0996 76.2769 78.5465 78.2371 80.837C79.5906 82.3453 81.3174 84.2448 82.0641 85.0269L83.4643 86.4235L82.0175 89.6637C80.804 92.3452 80.1506 93.1832 78.0504 94.4681C75.7168 95.8647 75.2501 95.9765 71.3764 95.6971C69.0895 95.5295 67.0827 95.3061 66.9426 95.1385C66.5693 94.6357 69.3695 92.1218 70.303 92.0659C70.723 92.0659 71.0964 91.7866 71.0964 91.5072C71.0964 91.172 71.4698 90.9486 71.8898 90.9486C72.9632 90.9486 74.3634 89.3285 74.3634 88.0436C74.3634 87.038 71.3764 81.228 69.6496 78.9376C69.2295 78.3231 68.6695 77.1499 68.5295 76.256C68.2494 74.9711 68.3428 74.7477 69.1829 74.7477C69.7429 74.7477 70.9564 75.6415 71.8431 76.7588ZM44.9605 76.5912C44.9605 76.703 44.4471 77.5409 43.7937 78.4348C43.1403 79.3286 42.3936 81.0604 42.1136 82.2895C41.3201 85.9207 41.2735 86.0883 40.6201 85.5297C39.0799 84.0772 38.3799 84.2448 36.5597 86.5911L34.7395 88.9933L33.2927 87.3174C30.119 83.6861 30.4457 82.3453 35.1595 79.4962C37.8665 77.8761 38.7066 77.5968 40.3867 77.8761C41.8335 78.0996 42.6736 77.932 43.327 77.3175C44.2138 76.5354 44.9605 76.2002 44.9605 76.5912ZM51.3078 78.4348C51.5878 80.3901 50.8877 89.0492 50.3744 89.6637C49.8143 90.3899 47.2007 88.4347 45.8939 86.3118C44.5405 84.133 44.5405 84.0213 45.3339 82.4571C46.2206 80.6135 49.8143 76.4236 50.5144 76.4236C50.7944 76.4236 51.1211 77.3175 51.3078 78.4348Z"/>
</mask>
<path d="M34.8328 6.08936C32.7793 7.65358 32.4993 9.60886 33.9461 12.1228C34.6462 13.296 35.1595 14.6926 35.1595 15.3071C35.1595 17.0948 32.3126 20.5584 28.6722 23.3517C26.8054 24.7483 23.8184 27.0388 21.9516 28.4354C20.0847 29.8879 17.7512 31.3404 16.7244 31.7315C14.6242 32.5136 12.9907 34.1337 12.0106 36.3124C11.0772 38.4353 11.2172 39.7202 12.4306 41.061C14.3442 43.1838 16.351 43.966 21.6716 44.6363C24.6118 45.0274 27.1788 45.4743 27.3654 45.6978C27.9255 46.3123 15.5109 60.6697 12.8507 62.5132C7.67018 66.0327 7.71685 70.3343 12.9907 72.5689C15.6043 73.6862 16.5844 73.5186 18.4046 71.8986C23.165 67.5411 23.5384 67.9321 22.0449 75.6974C20.1781 85.3621 19.758 88.6581 19.758 92.7921C19.758 100.055 21.1582 104.356 23.4917 104.356C23.9584 104.356 24.5652 104.747 24.8919 105.194C26.8521 107.987 28.6722 103.295 28.9989 94.5798C29.1856 88.6023 29.2323 88.3788 30.2591 88.4347C30.8191 88.4905 31.8926 89.0492 32.5926 89.7196C34.4595 91.5072 35.7663 91.2838 37.4931 88.9374C38.7999 87.0939 39.0333 86.9822 39.7333 87.7643C40.1534 88.2671 40.9468 89.7196 41.5068 91.0603C46.0806 102.289 46.3606 102.792 49.6276 103.853C52.0545 104.636 55.7882 104.133 56.815 102.904C57.6551 101.898 58.6818 96.3116 58.3085 94.5798C58.0751 93.4067 58.7752 86.3118 59.8486 79.5521C60.082 78.0996 60.5954 76.4795 60.9687 76.0326C61.6221 75.2505 61.7621 75.4181 62.6022 77.3733C63.1156 78.6024 63.909 79.8873 64.2824 80.2783C64.7024 80.7253 65.0291 81.3398 65.0291 81.7867C65.0291 82.1778 65.6825 83.0157 66.4293 83.6861C68.1094 85.0827 69.3695 87.8201 69.0429 89.1609C68.9028 89.6637 68.0161 90.7251 67.0827 91.5072C62.2755 95.4178 64.7491 98.0993 73.2433 98.1552C75.5768 98.2111 76.6503 97.8759 79.0305 96.3675C81.6441 94.8033 82.2041 94.1329 83.5576 91.2279C85.4245 87.0939 85.4711 85.6973 83.7443 83.7978C83.0442 82.9599 81.3174 81.0046 79.9173 79.4404C78.5171 77.8761 76.3236 75.9209 74.9701 75.1387C73.6633 74.3008 72.4032 73.3511 72.2632 73.0159C72.0765 72.6807 71.0497 71.9544 69.9763 71.3958C68.9495 70.8371 67.5494 69.7757 66.9426 68.9377C65.8692 67.5969 65.8692 67.4293 66.6159 66.4796C67.036 65.8651 68.2494 65.083 69.3695 64.7478C76.1835 62.2897 79.8239 57.0943 77.1636 53.6306C75.0634 50.9491 71.2364 49.4407 69.8829 50.7815C69.1362 51.5078 68.9962 54.9714 69.6962 55.4742C69.9763 55.6418 70.163 56.0887 70.163 56.368C70.163 57.0943 67.2227 58.5468 65.7292 58.5468C64.7024 58.5468 64.5624 58.3233 64.5624 56.7032C64.5624 53.7982 65.7292 49.9994 66.9426 48.938C68.9962 47.1503 72.1698 46.5358 75.5768 47.2061C78.1904 47.7648 78.9838 47.7089 80.524 46.9827C82.3908 46.0888 83.6976 43.966 83.6976 41.7314C83.6976 39.9437 80.5706 33.5192 79.4972 33.1281C78.5171 32.7371 75.5302 33.6868 74.4567 34.6923C73.9433 35.1951 68.8095 36.7035 67.5027 36.7593C66.4759 36.7593 66.8493 34.0778 67.9694 33.1281C76.1369 26.3126 77.677 23.5752 76.6503 17.7093C76.1835 15.1395 76.0435 14.9719 72.1232 12.3463C66.4293 8.49155 64.7024 7.87704 62.6489 9.10607C61.7621 9.66473 59.1486 12.458 56.815 15.363L52.5679 20.6702L51.2144 19.8322C49.5343 18.7708 47.6208 16.3685 46.6873 14.0781C46.2673 13.0725 44.8672 10.9496 43.5604 9.2178C41.7869 6.87147 40.7601 6.03349 39.1733 5.5307C36.513 4.74859 36.6063 4.74859 34.8328 6.08936ZM41.8335 10.4468C42.8603 11.5641 44.2604 13.7429 45.0538 15.363C46.6407 18.7149 49.5343 22.0668 51.2611 22.5696C52.3346 22.9048 53.0346 22.6813 55.2748 21.2288C55.4615 21.173 55.4149 22.1227 55.1815 23.4634C54.9948 24.8042 54.8081 26.8712 54.7615 28.1561C54.7615 30.8376 53.128 34.1895 51.6812 34.413C51.1678 34.5247 49.7676 33.9102 48.6009 33.1281C46.0806 31.4522 45.1472 29.3293 45.2872 25.307C45.3805 21.7316 44.5405 20.5584 41.9269 20.5584C38.3799 20.5584 32.4993 23.631 26.5254 28.603C23.4917 31.117 23.025 32.346 24.0051 35.1951C24.5652 36.8152 24.6585 36.8711 27.1788 36.6476C30.5858 36.3683 34.6462 34.0219 36.2796 31.4521C36.9797 30.3907 37.7265 29.4969 37.9598 29.4969C38.1932 29.4969 38.7999 30.5583 39.2666 31.8432C39.7333 33.184 40.9001 35.0275 41.8335 36.0331C42.7669 37.0387 43.5604 37.9884 43.5604 38.2118C43.5604 38.3794 41.9735 40.614 40.0133 43.0721C36.7464 47.3179 33.6661 52.1781 31.0991 57.3177C29.7923 59.8875 28.6256 65.8651 28.6256 69.8874C28.6256 71.5634 28.4856 74.8035 28.3455 77.1499C28.0188 81.3398 28.0188 81.3956 25.3119 84.9151L22.605 88.4347L22.5583 86.3676C22.5583 85.2503 23.305 81.0046 24.1918 76.9823C26.0586 68.5466 26.1053 68.2115 25.0319 66.8148C23.9118 65.3065 22.8383 65.5299 18.4979 68.3791C14.5309 71.0047 14.5309 71.0047 12.944 70.055C12.0573 69.5522 11.2172 68.7701 11.0305 68.3232C10.7038 67.15 12.0573 65.4182 14.4842 63.9098C16.3977 62.7367 23.6317 54.7479 27.5521 49.4407C29.839 46.424 30.1657 44.3011 28.5322 43.4632C27.9255 43.1838 25.1719 42.6811 22.3716 42.3459C17.5178 41.7313 14.2508 40.5023 13.4574 38.994C12.8507 37.8208 15.3709 34.8041 17.7045 33.8544C18.9646 33.3516 21.6716 31.5639 23.7718 29.9438C25.8253 28.3237 28.6722 26.145 30.0724 25.0835C36.6063 20.1674 38.5665 15.5306 35.8596 11.2848L34.6928 9.44126L35.6729 8.37982C36.4663 7.43011 36.8864 7.37425 38.3332 7.87704C39.2666 8.21223 40.8534 9.3854 41.8335 10.4468ZM66.4293 11.5083C67.596 12.0111 69.8363 13.4077 71.4231 14.5809C74.27 16.6479 74.3167 16.7037 74.0367 18.7708C73.8967 20.1674 73.3366 21.3406 72.3565 22.402C70.3963 24.5249 68.7628 25.8098 68.5295 25.4746C68.3895 25.307 68.5295 23.9104 68.8562 22.2903C69.3696 19.6646 69.3229 19.2735 68.3895 17.7652C67.8294 16.8713 67.3627 15.5306 67.3627 14.7485C67.3627 13.2401 65.8225 11.62 64.4224 11.62C63.9557 11.62 63.7223 11.3407 63.8623 11.0614C64.2357 10.391 63.9557 10.3351 66.4293 11.5083ZM66.8493 22.2344C66.5226 23.5193 65.4492 25.5863 64.4691 26.8712L62.6956 29.2175L64.5624 25.0277C65.5892 22.7372 66.4293 20.335 66.4293 19.7205C66.4293 18.9942 66.5693 18.8266 66.9426 19.2735C67.2693 19.6646 67.2693 20.5584 66.8493 22.2344ZM80.4306 38.2118C81.4574 40.4464 81.8308 41.7872 81.5974 42.7369C81.224 44.5805 78.9371 45.6978 76.7436 45.0833C72.6832 43.966 66.756 45.3067 64.8424 47.8207C63.8157 49.2732 62.6956 53.8541 62.6956 56.9825C62.6956 60.3345 63.629 61.5635 65.8225 61.0607C67.3627 60.7255 67.316 60.8372 63.8157 64.8037C59.4286 69.7757 57.1884 73.7421 55.6949 79.161L54.5281 83.2951L54.2014 75.2505C54.0147 70.8371 53.828 63.5188 53.828 59.0496C53.7814 49.6642 54.1547 48.3234 57.6551 45.3067C60.3153 43.0721 62.4155 42.0107 68.0161 40.3347C72.1232 39.1057 73.8033 38.2677 77.3503 35.8096C77.8637 35.4186 78.4704 35.0834 78.6571 35.0834C78.7971 35.0834 79.5906 36.48 80.4306 38.2118ZM55.2282 39.2733C54.4814 42.0107 50.6544 45.3626 47.0607 46.5358C41.9735 48.1 41.4135 47.5413 43.607 43.2397C45.5672 39.3291 47.8541 37.7649 52.1945 37.318C54.0147 37.1504 55.5549 37.0945 55.6015 37.1504C55.6949 37.2063 55.5549 38.156 55.2282 39.2733ZM45.8006 53.91L50.8411 54.2452V57.1501L50.7944 60.0551L48.9276 58.2674C47.9008 57.3177 46.734 56.3122 46.314 56.1446C45.1939 55.6976 40.1534 57.0384 38.7066 58.1557C37.1664 59.3848 36.653 61.6194 37.6331 62.9043C38.0065 63.407 38.4732 64.6361 38.6132 65.5299C38.8932 67.0942 38.6132 67.5969 35.1595 71.6751C33.106 74.1332 31.1925 76.256 30.9125 76.3678C30.5391 76.4795 30.4457 74.8035 30.5858 70.4461C30.8191 63.016 31.9392 59.8317 35.8596 54.8597C38.3799 51.6754 38.3799 51.6754 39.5466 52.6251C40.3867 53.2396 42.2536 53.6306 45.8006 53.91ZM51.0278 68.6025C51.0278 69.7198 50.7011 70.4461 50.001 70.9488C48.3675 72.0103 42.0202 75.3063 41.8802 75.1387C41.4602 74.636 46.4073 68.826 47.9475 67.988C50.6077 66.5914 51.0278 66.6472 51.0278 68.6025ZM71.8431 76.7588C73.1966 78.3231 73.7566 78.6582 74.6901 78.3789C75.6235 78.0996 76.2769 78.5465 78.2371 80.837C79.5906 82.3453 81.3174 84.2448 82.0641 85.0269L83.4643 86.4235L82.0175 89.6637C80.804 92.3452 80.1506 93.1832 78.0504 94.4681C75.7168 95.8647 75.2501 95.9765 71.3764 95.6971C69.0895 95.5295 67.0827 95.3061 66.9426 95.1385C66.5693 94.6357 69.3695 92.1218 70.303 92.0659C70.723 92.0659 71.0964 91.7866 71.0964 91.5072C71.0964 91.172 71.4698 90.9486 71.8898 90.9486C72.9632 90.9486 74.3634 89.3285 74.3634 88.0436C74.3634 87.038 71.3764 81.228 69.6496 78.9376C69.2295 78.3231 68.6695 77.1499 68.5295 76.256C68.2494 74.9711 68.3428 74.7477 69.1829 74.7477C69.7429 74.7477 70.9564 75.6415 71.8431 76.7588ZM44.9605 76.5912C44.9605 76.703 44.4471 77.5409 43.7937 78.4348C43.1403 79.3286 42.3936 81.0604 42.1136 82.2895C41.3201 85.9207 41.2735 86.0883 40.6201 85.5297C39.0799 84.0772 38.3799 84.2448 36.5597 86.5911L34.7395 88.9933L33.2927 87.3174C30.119 83.6861 30.4457 82.3453 35.1595 79.4962C37.8665 77.8761 38.7066 77.5968 40.3867 77.8761C41.8335 78.0996 42.6736 77.932 43.327 77.3175C44.2138 76.5354 44.9605 76.2002 44.9605 76.5912ZM51.3078 78.4348C51.5878 80.3901 50.8877 89.0492 50.3744 89.6637C49.8143 90.3899 47.2007 88.4347 45.8939 86.3118C44.5405 84.133 44.5405 84.0213 45.3339 82.4571C46.2206 80.6135 49.8143 76.4236 50.5144 76.4236C50.7944 76.4236 51.1211 77.3175 51.3078 78.4348Z" fill="#F00000" fill-opacity="0.82" shape-rendering="crispEdges"/>
<path d="M34.8328 6.08936C32.7793 7.65358 32.4993 9.60886 33.9461 12.1228C34.6462 13.296 35.1595 14.6926 35.1595 15.3071C35.1595 17.0948 32.3126 20.5584 28.6722 23.3517C26.8054 24.7483 23.8184 27.0388 21.9516 28.4354C20.0847 29.8879 17.7512 31.3404 16.7244 31.7315C14.6242 32.5136 12.9907 34.1337 12.0106 36.3124C11.0772 38.4353 11.2172 39.7202 12.4306 41.061C14.3442 43.1838 16.351 43.966 21.6716 44.6363C24.6118 45.0274 27.1788 45.4743 27.3654 45.6978C27.9255 46.3123 15.5109 60.6697 12.8507 62.5132C7.67018 66.0327 7.71685 70.3343 12.9907 72.5689C15.6043 73.6862 16.5844 73.5186 18.4046 71.8986C23.165 67.5411 23.5384 67.9321 22.0449 75.6974C20.1781 85.3621 19.758 88.6581 19.758 92.7921C19.758 100.055 21.1582 104.356 23.4917 104.356C23.9584 104.356 24.5652 104.747 24.8919 105.194C26.8521 107.987 28.6722 103.295 28.9989 94.5798C29.1856 88.6023 29.2323 88.3788 30.2591 88.4347C30.8191 88.4905 31.8926 89.0492 32.5926 89.7196C34.4595 91.5072 35.7663 91.2838 37.4931 88.9374C38.7999 87.0939 39.0333 86.9822 39.7333 87.7643C40.1534 88.2671 40.9468 89.7196 41.5068 91.0603C46.0806 102.289 46.3606 102.792 49.6276 103.853C52.0545 104.636 55.7882 104.133 56.815 102.904C57.6551 101.898 58.6818 96.3116 58.3085 94.5798C58.0751 93.4067 58.7752 86.3118 59.8486 79.5521C60.082 78.0996 60.5954 76.4795 60.9687 76.0326C61.6221 75.2505 61.7621 75.4181 62.6022 77.3733C63.1156 78.6024 63.909 79.8873 64.2824 80.2783C64.7024 80.7253 65.0291 81.3398 65.0291 81.7867C65.0291 82.1778 65.6825 83.0157 66.4293 83.6861C68.1094 85.0827 69.3695 87.8201 69.0429 89.1609C68.9028 89.6637 68.0161 90.7251 67.0827 91.5072C62.2755 95.4178 64.7491 98.0993 73.2433 98.1552C75.5768 98.2111 76.6503 97.8759 79.0305 96.3675C81.6441 94.8033 82.2041 94.1329 83.5576 91.2279C85.4245 87.0939 85.4711 85.6973 83.7443 83.7978C83.0442 82.9599 81.3174 81.0046 79.9173 79.4404C78.5171 77.8761 76.3236 75.9209 74.9701 75.1387C73.6633 74.3008 72.4032 73.3511 72.2632 73.0159C72.0765 72.6807 71.0497 71.9544 69.9763 71.3958C68.9495 70.8371 67.5494 69.7757 66.9426 68.9377C65.8692 67.5969 65.8692 67.4293 66.6159 66.4796C67.036 65.8651 68.2494 65.083 69.3695 64.7478C76.1835 62.2897 79.8239 57.0943 77.1636 53.6306C75.0634 50.9491 71.2364 49.4407 69.8829 50.7815C69.1362 51.5078 68.9962 54.9714 69.6962 55.4742C69.9763 55.6418 70.163 56.0887 70.163 56.368C70.163 57.0943 67.2227 58.5468 65.7292 58.5468C64.7024 58.5468 64.5624 58.3233 64.5624 56.7032C64.5624 53.7982 65.7292 49.9994 66.9426 48.938C68.9962 47.1503 72.1698 46.5358 75.5768 47.2061C78.1904 47.7648 78.9838 47.7089 80.524 46.9827C82.3908 46.0888 83.6976 43.966 83.6976 41.7314C83.6976 39.9437 80.5706 33.5192 79.4972 33.1281C78.5171 32.7371 75.5302 33.6868 74.4567 34.6923C73.9433 35.1951 68.8095 36.7035 67.5027 36.7593C66.4759 36.7593 66.8493 34.0778 67.9694 33.1281C76.1369 26.3126 77.677 23.5752 76.6503 17.7093C76.1835 15.1395 76.0435 14.9719 72.1232 12.3463C66.4293 8.49155 64.7024 7.87704 62.6489 9.10607C61.7621 9.66473 59.1486 12.458 56.815 15.363L52.5679 20.6702L51.2144 19.8322C49.5343 18.7708 47.6208 16.3685 46.6873 14.0781C46.2673 13.0725 44.8672 10.9496 43.5604 9.2178C41.7869 6.87147 40.7601 6.03349 39.1733 5.5307C36.513 4.74859 36.6063 4.74859 34.8328 6.08936ZM41.8335 10.4468C42.8603 11.5641 44.2604 13.7429 45.0538 15.363C46.6407 18.7149 49.5343 22.0668 51.2611 22.5696C52.3346 22.9048 53.0346 22.6813 55.2748 21.2288C55.4615 21.173 55.4149 22.1227 55.1815 23.4634C54.9948 24.8042 54.8081 26.8712 54.7615 28.1561C54.7615 30.8376 53.128 34.1895 51.6812 34.413C51.1678 34.5247 49.7676 33.9102 48.6009 33.1281C46.0806 31.4522 45.1472 29.3293 45.2872 25.307C45.3805 21.7316 44.5405 20.5584 41.9269 20.5584C38.3799 20.5584 32.4993 23.631 26.5254 28.603C23.4917 31.117 23.025 32.346 24.0051 35.1951C24.5652 36.8152 24.6585 36.8711 27.1788 36.6476C30.5858 36.3683 34.6462 34.0219 36.2796 31.4521C36.9797 30.3907 37.7265 29.4969 37.9598 29.4969C38.1932 29.4969 38.7999 30.5583 39.2666 31.8432C39.7333 33.184 40.9001 35.0275 41.8335 36.0331C42.7669 37.0387 43.5604 37.9884 43.5604 38.2118C43.5604 38.3794 41.9735 40.614 40.0133 43.0721C36.7464 47.3179 33.6661 52.1781 31.0991 57.3177C29.7923 59.8875 28.6256 65.8651 28.6256 69.8874C28.6256 71.5634 28.4856 74.8035 28.3455 77.1499C28.0188 81.3398 28.0188 81.3956 25.3119 84.9151L22.605 88.4347L22.5583 86.3676C22.5583 85.2503 23.305 81.0046 24.1918 76.9823C26.0586 68.5466 26.1053 68.2115 25.0319 66.8148C23.9118 65.3065 22.8383 65.5299 18.4979 68.3791C14.5309 71.0047 14.5309 71.0047 12.944 70.055C12.0573 69.5522 11.2172 68.7701 11.0305 68.3232C10.7038 67.15 12.0573 65.4182 14.4842 63.9098C16.3977 62.7367 23.6317 54.7479 27.5521 49.4407C29.839 46.424 30.1657 44.3011 28.5322 43.4632C27.9255 43.1838 25.1719 42.6811 22.3716 42.3459C17.5178 41.7313 14.2508 40.5023 13.4574 38.994C12.8507 37.8208 15.3709 34.8041 17.7045 33.8544C18.9646 33.3516 21.6716 31.5639 23.7718 29.9438C25.8253 28.3237 28.6722 26.145 30.0724 25.0835C36.6063 20.1674 38.5665 15.5306 35.8596 11.2848L34.6928 9.44126L35.6729 8.37982C36.4663 7.43011 36.8864 7.37425 38.3332 7.87704C39.2666 8.21223 40.8534 9.3854 41.8335 10.4468ZM66.4293 11.5083C67.596 12.0111 69.8363 13.4077 71.4231 14.5809C74.27 16.6479 74.3167 16.7037 74.0367 18.7708C73.8967 20.1674 73.3366 21.3406 72.3565 22.402C70.3963 24.5249 68.7628 25.8098 68.5295 25.4746C68.3895 25.307 68.5295 23.9104 68.8562 22.2903C69.3696 19.6646 69.3229 19.2735 68.3895 17.7652C67.8294 16.8713 67.3627 15.5306 67.3627 14.7485C67.3627 13.2401 65.8225 11.62 64.4224 11.62C63.9557 11.62 63.7223 11.3407 63.8623 11.0614C64.2357 10.391 63.9557 10.3351 66.4293 11.5083ZM66.8493 22.2344C66.5226 23.5193 65.4492 25.5863 64.4691 26.8712L62.6956 29.2175L64.5624 25.0277C65.5892 22.7372 66.4293 20.335 66.4293 19.7205C66.4293 18.9942 66.5693 18.8266 66.9426 19.2735C67.2693 19.6646 67.2693 20.5584 66.8493 22.2344ZM80.4306 38.2118C81.4574 40.4464 81.8308 41.7872 81.5974 42.7369C81.224 44.5805 78.9371 45.6978 76.7436 45.0833C72.6832 43.966 66.756 45.3067 64.8424 47.8207C63.8157 49.2732 62.6956 53.8541 62.6956 56.9825C62.6956 60.3345 63.629 61.5635 65.8225 61.0607C67.3627 60.7255 67.316 60.8372 63.8157 64.8037C59.4286 69.7757 57.1884 73.7421 55.6949 79.161L54.5281 83.2951L54.2014 75.2505C54.0147 70.8371 53.828 63.5188 53.828 59.0496C53.7814 49.6642 54.1547 48.3234 57.6551 45.3067C60.3153 43.0721 62.4155 42.0107 68.0161 40.3347C72.1232 39.1057 73.8033 38.2677 77.3503 35.8096C77.8637 35.4186 78.4704 35.0834 78.6571 35.0834C78.7971 35.0834 79.5906 36.48 80.4306 38.2118ZM55.2282 39.2733C54.4814 42.0107 50.6544 45.3626 47.0607 46.5358C41.9735 48.1 41.4135 47.5413 43.607 43.2397C45.5672 39.3291 47.8541 37.7649 52.1945 37.318C54.0147 37.1504 55.5549 37.0945 55.6015 37.1504C55.6949 37.2063 55.5549 38.156 55.2282 39.2733ZM45.8006 53.91L50.8411 54.2452V57.1501L50.7944 60.0551L48.9276 58.2674C47.9008 57.3177 46.734 56.3122 46.314 56.1446C45.1939 55.6976 40.1534 57.0384 38.7066 58.1557C37.1664 59.3848 36.653 61.6194 37.6331 62.9043C38.0065 63.407 38.4732 64.6361 38.6132 65.5299C38.8932 67.0942 38.6132 67.5969 35.1595 71.6751C33.106 74.1332 31.1925 76.256 30.9125 76.3678C30.5391 76.4795 30.4457 74.8035 30.5858 70.4461C30.8191 63.016 31.9392 59.8317 35.8596 54.8597C38.3799 51.6754 38.3799 51.6754 39.5466 52.6251C40.3867 53.2396 42.2536 53.6306 45.8006 53.91ZM51.0278 68.6025C51.0278 69.7198 50.7011 70.4461 50.001 70.9488C48.3675 72.0103 42.0202 75.3063 41.8802 75.1387C41.4602 74.636 46.4073 68.826 47.9475 67.988C50.6077 66.5914 51.0278 66.6472 51.0278 68.6025ZM71.8431 76.7588C73.1966 78.3231 73.7566 78.6582 74.6901 78.3789C75.6235 78.0996 76.2769 78.5465 78.2371 80.837C79.5906 82.3453 81.3174 84.2448 82.0641 85.0269L83.4643 86.4235L82.0175 89.6637C80.804 92.3452 80.1506 93.1832 78.0504 94.4681C75.7168 95.8647 75.2501 95.9765 71.3764 95.6971C69.0895 95.5295 67.0827 95.3061 66.9426 95.1385C66.5693 94.6357 69.3695 92.1218 70.303 92.0659C70.723 92.0659 71.0964 91.7866 71.0964 91.5072C71.0964 91.172 71.4698 90.9486 71.8898 90.9486C72.9632 90.9486 74.3634 89.3285 74.3634 88.0436C74.3634 87.038 71.3764 81.228 69.6496 78.9376C69.2295 78.3231 68.6695 77.1499 68.5295 76.256C68.2494 74.9711 68.3428 74.7477 69.1829 74.7477C69.7429 74.7477 70.9564 75.6415 71.8431 76.7588ZM44.9605 76.5912C44.9605 76.703 44.4471 77.5409 43.7937 78.4348C43.1403 79.3286 42.3936 81.0604 42.1136 82.2895C41.3201 85.9207 41.2735 86.0883 40.6201 85.5297C39.0799 84.0772 38.3799 84.2448 36.5597 86.5911L34.7395 88.9933L33.2927 87.3174C30.119 83.6861 30.4457 82.3453 35.1595 79.4962C37.8665 77.8761 38.7066 77.5968 40.3867 77.8761C41.8335 78.0996 42.6736 77.932 43.327 77.3175C44.2138 76.5354 44.9605 76.2002 44.9605 76.5912ZM51.3078 78.4348C51.5878 80.3901 50.8877 89.0492 50.3744 89.6637C49.8143 90.3899 47.2007 88.4347 45.8939 86.3118C44.5405 84.133 44.5405 84.0213 45.3339 82.4571C46.2206 80.6135 49.8143 76.4236 50.5144 76.4236C50.7944 76.4236 51.1211 77.3175 51.3078 78.4348Z" stroke="black" stroke-width="2" shape-rendering="crispEdges" mask="url(#path-1-outside-1_564_255)"/>
</g>
<defs>
<filter id="filter0_d_564_255" x="0" y="0" width="94" height="119" filterUnits="userSpaceOnUse" color-interpolation-filters="sRGB">
<feFlood flood-opacity="0" result="BackgroundImageFix"/>
<feColorMatrix in="SourceAlpha" type="matrix" values="0 0 0 0 0 0 0 0 0 0 0 0 0 0 0 0 0 0 127 0" result="hardAlpha"/>
<feMorphology radius="4" operator="dilate" in="SourceAlpha" result="effect1_dropShadow_564_255"/>
<feOffset dy="4"/>
<feGaussianBlur stdDeviation="2"/>
<feComposite in2="hardAlpha" operator="out"/>
<feColorMatrix type="matrix" values="0 0 0 0 0 0 0 0 0 0 0 0 0 0 0 0 0 0 0.25 0"/>
<feBlend mode="normal" in2="BackgroundImageFix" result="effect1_dropShadow_564_255"/>
<feBlend mode="normal" in="SourceGraphic" in2="effect1_dropShadow_564_255" result="shape"/>
</filter>
</defs>
</svg>
