<svg width="733" height="1400" viewBox="0 0 733 1400" fill="none" xmlns="http://www.w3.org/2000/svg">
<path opacity="0.45" d="M462.086 7.38684C444.495 17.7439 424.329 40.9436 417.465 58.3435C414.032 65.8005 405.88 84.4432 399.445 99.7717C387.002 127.943 382.283 165.228 388.289 188.842C391.293 200.857 390.435 202.514 375.418 211.214C366.408 216.185 343.668 226.956 324.79 234.413C305.912 242.285 279.311 255.127 265.581 263.413L240.697 278.327L206.802 272.942C176.339 268.385 171.191 268.385 152.741 275.427C141.586 279.57 127.857 287.442 122.279 293.241C112.84 302.77 112.411 306.913 112.411 357.455C112.411 439.897 122.279 460.197 163.039 460.611C199.508 460.611 233.832 445.697 294.328 403.026C308.057 393.083 320.929 385.212 323.074 385.212C335.516 385.212 317.925 453.983 290.037 515.711C263.436 574.125 266.439 571.639 244.558 554.239C219.244 534.354 209.805 530.211 191.785 530.211C173.336 530.211 153.171 546.782 148.451 565.839C144.16 581.168 159.177 607.682 179.772 621.353C203.369 637.096 207.231 641.653 202.94 649.524C201.224 653.253 198.221 668.167 196.934 682.667C195.646 696.752 191.785 713.323 187.923 718.709C184.062 724.095 181.059 732.38 181.059 736.523C181.059 746.88 163.039 769.666 145.448 781.266C137.296 786.237 120.992 802.394 108.978 816.894C96.9651 831.394 71.6512 861.222 52.773 883.593C13.3005 930.407 5.14859 950.707 1.7162 1006.64L0 1041.85L28.7463 1107.31C57.0635 1170.69 102.972 1253.96 132.147 1293.32C139.87 1303.68 150.167 1320.25 155.316 1329.78C172.478 1362.5 211.521 1396.06 226.109 1390.26C229.112 1389.43 239.409 1390.26 249.277 1392.75C262.578 1396.06 268.585 1396.06 272.446 1392.33C275.02 1389.85 290.466 1387.77 306.341 1387.77C347.53 1387.77 360.401 1381.15 391.722 1344.69C406.309 1327.29 419.61 1314.45 421.326 1316.1C423.042 1317.76 426.475 1327.7 429.478 1337.65C438.059 1366.65 452.647 1385.7 472.383 1393.57C494.264 1401.86 530.305 1402.27 553.902 1393.99C577.5 1386.12 618.689 1350.9 644.432 1316.52C656.016 1301.19 670.175 1286.69 675.323 1283.79C680.472 1280.89 700.208 1278.4 719.086 1278.4L753.41 1277.99L760.275 1295.39C767.569 1314.45 782.585 1331.85 798.889 1340.13C804.896 1343.03 825.061 1349.25 843.51 1354.22C862.389 1359.19 889.848 1369.96 904.864 1378.25C929.32 1391.09 935.327 1392.75 952.918 1390.67C980.377 1387.36 1027.14 1369.13 1039.59 1356.29L1049.45 1346.35L1037.44 1314.45C1019.85 1265.15 1005.26 1253.55 955.492 1249.82C888.561 1244.85 861.96 1225.79 822.916 1155.78C796.315 1106.89 797.173 1097.36 832.784 1064.63C846.514 1052.21 859.814 1038.12 861.959 1033.98C864.963 1029.01 865.821 1007.05 864.534 975.564C862.389 935.793 863.247 922.95 868.395 913.422C872.257 906.379 876.547 892.708 878.263 882.765C879.98 872.822 884.27 858.322 887.273 850.865C890.706 843.408 893.28 832.222 893.28 826.423C893.28 811.094 898 815.651 919.881 852.108C947.34 897.265 975.229 932.064 1016.85 972.25C1053.74 1007.88 1070.05 1018.24 1104.8 1027.35C1143.42 1037.29 1155 1024.04 1155 970.593C1155 944.079 1153.28 935.793 1143.84 920.05C1129.69 896.436 1103.51 865.779 1078.63 843.408C1061.47 828.08 1025.43 789.966 946.911 702.552C881.267 629.639 858.956 592.767 864.963 569.153C867.966 557.553 892.851 540.982 921.168 531.039C951.631 520.682 958.925 508.254 959.354 469.311C959.783 440.312 958.066 434.512 945.624 413.798C934.469 394.326 928.462 389.355 912.158 383.141C884.699 373.198 856.811 376.512 829.781 393.083C795.028 414.626 779.153 432.026 772.717 455.64C766.711 478.84 769.714 478.426 725.951 462.683C701.066 453.983 678.756 435.755 678.756 424.983C678.756 417.112 704.928 398.055 740.539 379.826C775.721 361.598 806.183 334.255 812.19 315.198C814.764 306.499 816.051 290.342 815.193 279.156C813.048 256.37 794.17 205.828 783.873 194.642C777.008 187.185 751.265 177.242 719.515 169.371C701.924 164.814 628.557 168.128 612.253 173.928C603.672 176.828 547.467 172.685 543.176 168.542C541.889 167.3 544.034 162.743 548.325 158.185C561.625 142.857 575.355 106.4 575.784 84.8575C575.784 44.6722 561.625 18.5724 536.74 13.6011C530.305 12.3582 522.153 8.62964 519.578 5.72974C512.285 -2.55591 477.532 -1.72742 462.086 7.38684ZM495.123 224.471C498.984 227.371 504.991 238.97 508.423 250.57L514.43 271.285L498.126 302.77C489.545 319.755 473.241 346.27 462.515 361.598C451.789 376.512 438.488 398.055 432.481 409.24C426.904 420.012 418.752 431.612 415.319 434.512C411.458 437.826 408.455 442.797 408.455 446.112C408.455 449.426 392.151 484.225 372.415 523.168C352.249 562.525 329.081 609.753 320.929 628.81C296.044 685.567 259.146 748.123 232.974 777.951C219.673 793.28 197.792 820.623 185.349 838.851C148.88 891.465 101.685 946.564 100.397 938.693C99.5394 934.964 101.256 922.122 103.83 910.522C108.978 886.493 128.715 858.322 177.197 806.951C226.109 755.166 261.72 677.695 257.429 633.781C256.142 620.524 254.855 619.281 242.413 619.281C234.69 619.281 224.822 615.553 218.815 610.582C213.666 605.61 203.798 598.567 197.363 594.424C183.633 586.139 178.484 573.71 185.349 565.425C193.072 556.311 195.217 557.139 224.393 579.925C257 605.196 269.014 606.439 287.034 586.967C317.067 553.825 365.979 415.455 374.56 338.398C379.708 295.313 388.289 277.499 417.894 249.742C448.356 221.156 477.961 211.628 495.123 224.471ZM760.275 256.785C770.572 262.17 781.727 283.713 781.727 298.627C781.727 313.956 759.846 334.255 724.664 352.07C647.864 391.012 630.273 420.012 660.306 458.126C672.32 473.868 701.066 488.783 742.255 501.625L773.146 511.154V533.939C773.146 559.625 780.869 607.267 786.876 618.039C790.737 625.91 784.302 628.81 779.582 621.767C775.292 615.139 686.478 557.139 658.59 543.054C633.705 530.211 610.108 506.182 610.108 493.754C610.108 490.854 607.533 484.226 604.101 479.254C593.375 463.511 580.503 409.24 585.223 398.055C587.368 392.255 588.226 385.626 586.939 382.312C585.652 378.998 605.388 361.184 637.138 336.741C665.455 314.37 698.063 288.684 708.789 279.156C738.393 253.056 746.545 249.742 760.275 256.785ZM573.639 509.911C601.098 543.882 616.972 557.968 642.286 570.396C686.049 592.353 755.555 642.481 788.163 676.038C827.207 716.223 831.926 722.438 835.358 741.495C837.504 754.752 836.646 756.409 823.774 762.209C810.474 768.009 809.616 770.08 807.041 793.28C805.754 806.951 801.464 824.351 797.173 831.394C789.45 845.894 778.295 848.379 748.262 842.58C720.802 837.194 718.657 785.823 743.971 747.709C756.413 729.066 758.13 723.681 758.13 696.752C758.13 667.752 757.272 665.681 744.829 654.495C734.103 645.381 725.522 642.481 701.924 639.996C670.175 636.681 671.891 635.853 648.722 666.51C643.574 673.967 635.422 675.624 602.814 678.524C580.932 680.181 562.912 680.595 562.912 678.938C562.912 677.695 570.635 667.752 580.074 657.395C600.24 635.438 602.385 619.281 587.797 600.224C574.068 582.41 561.625 577.025 525.156 573.71C506.707 572.053 492.977 568.739 491.69 565.425C489.116 558.796 508.852 508.254 519.578 493.34C533.308 475.111 549.183 480.083 573.639 509.911ZM709.647 707.524C709.218 719.123 705.357 736.523 701.924 746.466C698.063 756.409 694.201 781.266 692.914 802.394C690.769 833.465 691.627 842.58 697.634 850.865C709.647 869.094 728.525 875.308 769.714 875.722C806.612 876.136 806.612 876.136 809.186 887.736C813.906 910.522 806.612 917.979 772.288 925.85C742.684 932.479 739.681 932.479 716.083 925.85C702.782 922.122 689.911 915.907 687.766 912.179C679.614 896.436 674.036 850.037 674.894 807.78C676.181 756.409 673.178 749.78 650.009 749.78C614.398 749.78 588.226 797.837 579.645 878.208C575.355 915.079 568.49 932.064 557.764 932.064C556.048 932.064 554.331 910.936 554.331 885.251C554.331 849.622 556.906 829.322 565.058 797.423C571.064 774.637 575.784 752.266 575.784 747.295C575.784 732.38 601.098 717.466 636.709 710.838C646.148 709.181 661.165 701.309 672.749 691.367C691.198 676.038 693.343 675.21 701.924 681.01C709.218 685.981 710.934 690.124 709.647 707.524ZM971.796 778.78C993.249 802.808 1028.43 839.265 1049.88 859.565C1071.76 880.279 1096.65 908.036 1106.09 921.293C1121.11 943.25 1122.82 948.636 1122.82 971.007V996.278L1110.38 995.035C1088.5 992.55 1072.62 981.778 1032.29 942.007C993.249 903.065 973.512 877.379 931.465 809.851L907.868 772.566L909.584 741.495L911.3 710.424L922.026 722.852C928.033 729.895 950.344 754.752 971.796 778.78ZM521.295 750.609C519.149 768.009 510.997 816.48 493.835 909.279C483.538 966.036 486.113 989.65 504.133 1009.54L517.004 1023.62L503.275 1036.05C495.552 1042.68 488.687 1048.06 488.258 1048.06C487.4 1048.06 485.684 1027.35 483.967 1002.08C480.964 950.707 475.386 936.207 454.363 923.365C436.343 912.593 417.036 915.493 392.151 932.479L372.844 945.736L375.847 930.407C380.566 906.793 399.445 865.779 415.749 845.065C432.91 822.694 516.575 733.209 520.866 733.209C522.153 733.209 522.582 741.08 521.295 750.609ZM361.688 748.952C359.543 752.68 343.239 774.223 326.077 796.594C305.054 823.523 280.598 863.708 251.852 918.807C228.254 963.55 198.221 1019.89 184.491 1043.92C166.9 1075.41 158.319 1096.95 152.741 1121.39C148.88 1140.45 144.16 1155.78 142.444 1155.78C137.296 1155.78 108.12 1096.53 105.546 1080.79C103.83 1071.68 106.404 1054.69 111.553 1036.05C118.847 1011.19 124.424 1002.08 144.59 980.95C157.89 967.278 177.626 943.664 188.782 928.336C210.663 898.508 276.737 817.308 302.48 787.894C333.8 752.68 374.989 725.338 361.688 748.952ZM648.722 894.779C655.587 923.365 663.31 938.693 674.894 944.907C687.337 951.121 681.759 954.85 645.29 963.136C627.699 967.278 604.959 974.736 594.662 980.121L575.784 990.064L582.22 977.635C585.652 971.007 588.655 963.136 588.655 960.236C588.655 957.336 593.375 945.736 599.382 934.55C606.246 921.707 610.108 907.208 610.108 895.193C610.108 870.751 619.976 826.423 629.844 805.294L637.567 789.137L640.57 830.565C641.857 853.351 645.719 882.351 648.722 894.779ZM335.945 878.622C329.939 940.764 336.374 966.036 358.685 973.493C375.418 978.878 390.435 974.321 409.313 958.993C434.198 938.693 444.924 946.15 451.36 988.407C468.522 1105.23 432.481 1248.58 367.266 1323.56C344.097 1349.66 339.807 1352.56 323.932 1353.8C307.628 1355.05 305.054 1353.8 287.463 1333.92C260.433 1304.5 248.848 1280.48 250.565 1258.52L251.852 1240.7L273.304 1238.63C314.922 1234.08 332.084 1219.16 363.405 1159.51C385.286 1116.83 395.583 1077.89 395.583 1035.63C395.583 1011.19 394.296 1005.81 386.144 998.35C374.56 987.993 358.685 990.064 347.101 1003.74C278.882 1082.86 260.004 1101.92 251.423 1100.26C238.122 1096.95 229.112 1105.65 220.531 1129.68C216.241 1141.69 211.092 1150.39 209.805 1148.73C204.227 1143.76 206.802 1084.93 212.808 1071.68C254.426 978.05 333.371 829.322 338.52 834.294C339.378 835.122 338.091 855.008 335.945 878.622ZM804.896 989.65C813.477 995.035 820.342 1001.25 820.342 1003.74C820.342 1006.64 813.048 1020.72 804.467 1035.63C774.004 1088.66 771.43 1094.88 771.859 1113.93C772.288 1133.41 789.021 1192.23 804.038 1225.79L812.19 1244.85L803.18 1251.89C792.883 1259.76 791.595 1259.35 748.691 1240.29C722.089 1228.28 716.083 1223.72 708.36 1208.39C703.211 1198.86 695.918 1187.26 691.627 1182.71C687.337 1178.15 678.756 1164.89 672.749 1153.29L661.165 1132.16L623.837 1129.68C602.814 1128.02 578.787 1123.88 569.777 1120.56C560.767 1116.83 542.747 1112.69 529.447 1111.03C508.852 1108.55 504.991 1106.89 503.704 1099.02C501.129 1082.86 515.288 1064.63 544.892 1046.41C598.952 1012.85 624.266 1001.25 667.6 989.65C722.948 974.736 780.011 974.736 804.896 989.65ZM361.259 1069.61C355.253 1103.58 321.358 1176.91 304.196 1192.23C293.899 1201.76 293.899 1201.76 267.727 1194.72L241.126 1187.68L250.136 1172.35C268.156 1141.69 359.972 1033.15 364.692 1037.71C365.55 1038.53 364.263 1053.03 361.259 1069.61ZM520.436 1153.29C531.163 1162.41 544.892 1174.42 550.899 1179.39C565.058 1190.58 570.206 1217.09 562.483 1235.73C559.48 1243.19 550.041 1256.86 541.889 1266.39C529.017 1281.3 524.298 1284.2 510.997 1284.2C502.416 1284.2 483.538 1280.06 469.38 1274.68L443.208 1265.15L451.36 1248.16C457.795 1234.08 468.951 1192.23 479.677 1140.03C482.251 1126.78 494.694 1130.92 520.436 1153.29Z" fill="url(#paint0_linear_564_179)"/>
<defs>
<linearGradient id="paint0_linear_564_179" x1="607" y1="526.591" x2="603.204" y2="944.184" gradientUnits="userSpaceOnUse">
<stop stop-color="#FFFDFD"/>
<stop offset="1" stop-color="#FF0000"/>
</linearGradient>
</defs>
</svg>
