<svg width="598" height="531" viewBox="0 0 598 531" fill="none" xmlns="http://www.w3.org/2000/svg">
<path opacity="0.1" d="M139.891 -306.191C133.778 -298.192 132.339 -292.737 133.778 -281.465C136.295 -262.194 152.476 -248.012 193.11 -229.831L224.394 -216.014L278.332 -216.378C335.147 -216.378 398.076 -222.923 413.178 -230.559C425.404 -236.377 475.747 -248.012 491.928 -248.376C503.795 -248.74 504.873 -248.012 505.952 -237.467C508.829 -206.56 449.137 -192.015 356.723 -201.106C332.63 -203.651 330.832 -203.287 325.439 -195.288C315.73 -181.47 318.247 -169.107 332.271 -158.199C339.103 -152.744 344.856 -146.199 344.856 -143.654C344.856 -138.2 303.144 -123.291 287.682 -123.291C281.928 -123.291 272.579 -125.837 267.185 -128.746C261.432 -131.655 253.161 -134.2 249.206 -134.2C244.891 -134.2 235.182 -136.745 227.63 -140.018C206.774 -149.108 169.017 -152.381 157.151 -146.563C144.925 -140.018 143.846 -136.018 143.127 -92.3839C142.048 -50.9313 135.216 -13.4787 125.867 -0.0247803C116.877 13.0654 103.932 49.4273 103.932 62.1539C103.932 86.5164 119.394 107.606 148.161 122.515C169.377 133.06 177.648 133.423 192.75 123.969C209.291 113.788 213.606 95.6068 213.606 34.8826C213.606 -10.2061 214.326 -17.4785 221.517 -30.5687C231.586 -49.8405 242.014 -58.9309 265.747 -70.2031C286.603 -80.0208 314.651 -82.5661 327.237 -75.6573C336.226 -70.9303 332.99 -65.1124 321.483 -65.1124C308.178 -65.1124 258.915 -48.386 251.004 -41.1136C247.048 -37.4775 244.172 -30.2051 244.172 -22.9327C244.172 -5.47906 253.161 -1.8429 299.189 -1.11566C337.665 -0.388428 348.452 2.52051 348.452 13.4291C348.452 18.8834 345.576 19.247 282.648 19.9742C245.25 20.3379 243.093 21.4287 238.059 39.9732C233.743 57.7905 251.723 71.2444 287.682 76.3351C310.336 79.6076 330.473 86.5164 330.473 91.2434C330.473 92.3343 324.719 92.6979 318.247 91.9706C306.38 90.5161 305.302 91.6071 298.469 106.152C294.514 114.879 288.761 129.423 285.524 138.514C278.692 158.149 270.781 167.603 260.713 167.603C256.398 167.603 235.182 171.603 213.606 176.694C178.367 185.057 167.579 185.784 114.36 185.057C67.973 184.33 53.2299 185.057 48.9148 189.057C39.5655 196.693 41.723 209.419 53.5895 219.964C73.7264 236.691 95.6613 240.691 172.973 242.145C211.809 242.509 245.25 244.327 247.408 245.418C255.319 250.508 251.004 258.508 227.63 279.961C211.449 294.87 198.863 303.233 188.795 305.778C168.298 311.232 163.983 313.414 127.305 339.958C109.685 353.049 79.1203 374.502 60.062 387.592C17.6306 417.045 4.32579 429.045 1.08949 441.771C-3.22558 459.589 4.32579 463.225 41.0038 461.043C117.596 456.316 144.206 449.407 171.175 427.227C179.446 420.318 187.356 414.864 189.154 414.864C190.952 414.864 201.38 403.955 212.528 390.138C253.88 340.322 322.562 279.234 357.442 261.417C390.884 244.327 470.712 238.145 503.435 250.145C517.819 255.235 521.055 258.144 524.651 269.78C527.168 277.416 527.887 286.143 526.449 290.143C524.651 293.779 523.572 297.779 523.932 298.869C524.291 300.324 519.257 314.869 512.784 331.595C502.716 357.412 498.76 363.593 485.456 373.048C470.353 383.956 469.634 383.956 429.719 382.865C393.041 381.774 388.726 382.502 379.737 389.41C372.185 395.228 370.028 400.319 370.028 410.5C370.028 422.5 372.904 427.227 395.199 449.407C417.134 471.588 420.37 476.315 420.37 487.951C420.37 505.405 430.798 518.131 450.935 526.131C467.117 532.312 467.476 532.312 491.569 522.495C538.675 503.95 536.158 507.223 583.983 402.137C588.658 391.956 596.569 374.502 601.962 362.866C607.356 351.23 616.346 338.504 621.74 334.14C627.493 330.141 632.887 322.868 633.966 318.505C635.045 313.778 645.832 300.324 657.699 288.325C669.925 276.325 679.274 263.598 679.274 259.599C679.274 255.235 669.565 242.872 654.822 229.055C633.606 208.692 626.774 204.329 598.366 194.875C566.723 184.33 564.565 183.966 503.795 185.057C434.394 185.784 429.719 184.693 409.942 162.149C396.637 146.877 396.278 142.15 407.065 132.332C418.212 121.787 431.158 115.969 472.51 102.152C534 82.153 556.295 67.2446 551.98 50.1545C549.462 39.9732 540.113 35.2462 502.716 26.1557C477.904 20.3378 476.825 19.247 484.736 15.2472C489.051 12.7018 501.997 7.61121 513.144 3.61139C534.719 -4.0246 539.034 -7.66077 539.034 -20.751C539.034 -33.8412 527.168 -42.5681 505.593 -45.1135C483.298 -48.0224 474.308 -52.0222 479.702 -57.4765C485.815 -63.2944 517.459 -72.3848 539.034 -74.9301L559.531 -77.1119L563.846 -33.1141C566.363 -9.11523 567.442 12.7018 566.003 15.2472C561.688 22.1559 563.846 134.514 568.521 150.15C576.432 177.421 600.884 185.784 630.37 171.239C651.226 161.058 660.575 143.604 669.925 98.8794C678.555 58.5178 689.342 35.6098 717.75 -1.11566C739.685 -29.4778 744 -39.6592 744 -61.4763C744 -80.748 743.64 -81.4753 723.144 -101.474C706.243 -117.474 696.894 -123.291 675.318 -130.564C650.507 -138.927 642.956 -139.654 568.521 -140.745C485.815 -141.836 475.027 -144.381 505.233 -154.926C518.178 -159.653 536.877 -162.562 632.527 -174.562C674.959 -179.652 681.072 -182.198 688.264 -195.651C714.154 -246.922 648.349 -302.191 555.216 -307.646C517.459 -309.827 473.589 -304.01 386.209 -285.101C357.802 -278.92 332.63 -276.375 298.11 -275.647C244.531 -274.557 242.733 -275.284 201.38 -301.464C171.894 -320.009 151.757 -321.463 139.891 -306.191ZM634.325 -264.012C646.192 -258.194 654.822 -250.558 659.497 -242.194C665.969 -229.831 665.969 -229.468 658.418 -217.105C654.103 -210.196 646.192 -202.56 640.798 -200.015C635.404 -197.469 604.12 -191.652 571.038 -186.561C513.504 -178.198 485.456 -171.289 475.387 -162.926C472.87 -160.38 470.712 -151.654 470.712 -142.927C470.712 -124.746 472.151 -124.019 510.267 -122.564L533.641 -121.473L512.425 -114.928C500.558 -111.292 456.329 -90.2021 414.257 -68.385C347.014 -33.4777 334.788 -28.0234 311.774 -25.1144C278.692 -20.751 265.747 -20.751 265.747 -24.3872C265.747 -28.7506 287.682 -35.2958 322.921 -41.4773C356.723 -47.2952 363.195 -51.6586 376.141 -77.8391C390.165 -106.201 415.695 -143.29 429 -155.29C435.832 -161.108 455.969 -171.289 474.308 -177.834C509.908 -190.924 541.551 -210.923 548.743 -225.104C551.26 -230.195 553.418 -242.195 553.418 -251.649C553.418 -266.193 554.856 -269.466 561.688 -272.375C576.072 -278.92 614.548 -274.193 634.325 -264.012ZM224.394 -121.11C250.285 -112.383 269.343 -104.383 269.343 -101.838C269.343 -100.747 262.151 -95.6564 253.161 -90.9293C233.024 -80.0208 215.045 -60.3854 202.459 -35.2958C193.11 -16.7512 192.75 -14.5695 195.267 24.7013C197.785 72.6989 193.11 99.9702 180.884 108.333C173.333 113.06 171.175 112.697 153.555 102.879C140.25 95.6068 132.339 87.9708 127.665 78.5168C121.192 65.4265 121.192 64.3357 127.305 44.3367C130.541 33.0645 137.374 17.0653 142.408 8.70209C155.353 -13.8423 161.107 -43.659 161.466 -87.2932C161.466 -108.383 162.545 -126.928 164.343 -128.382C167.939 -132.382 203.178 -128.018 224.394 -121.11ZM684.308 -86.2023C699.051 -79.6572 705.524 -66.9305 702.647 -49.4769C701.209 -41.1136 697.973 -31.6595 695.096 -28.7506C692.579 -25.478 688.623 -15.2968 686.466 -5.47906C684.308 3.97498 677.116 22.8832 670.284 36.3371C662.014 52.3362 655.541 71.9716 651.945 93.4251C644.753 134.15 634.685 150.877 614.548 157.058C601.962 161.058 599.086 160.694 594.411 155.967C577.87 139.605 577.87 51.609 593.692 -47.6588C599.086 -81.8389 604.479 -86.2023 643.315 -88.0204C660.216 -88.384 674.24 -89.4749 674.599 -89.8385C674.959 -90.2021 679.274 -88.7476 684.308 -86.2023ZM477.185 -26.5689C486.894 -23.66 479.702 -11.2969 457.048 8.70209C443.743 20.3379 427.202 33.4281 420.01 37.4279C408.144 44.3366 405.627 44.3366 395.199 39.9732C385.13 35.2462 384.052 33.7917 385.849 22.8832C390.884 -9.47888 423.247 -33.8413 455.969 -30.2051C465.319 -29.1143 474.668 -27.6597 477.185 -26.5689ZM336.945 44.3367C345.216 47.2456 349.171 50.8818 350.61 57.7905C351.689 63.2448 353.486 70.5172 354.565 73.7897C356.723 82.153 357.802 82.153 332.63 69.4263C320.045 62.8812 306.021 58.5178 297.75 58.5178C283.007 58.5178 254.959 48.7001 254.959 43.9731C254.959 42.1549 257.117 39.9732 259.634 38.8824C266.106 35.9734 322.921 39.9732 336.945 44.3367ZM504.154 46.5184C519.257 50.1546 531.843 54.1544 531.843 55.2452C531.843 58.5178 494.086 74.8806 470.712 82.153C454.171 87.2436 432.596 95.2432 410.302 104.697C400.593 108.697 433.315 60.6995 446.62 50.8818C463.521 38.5187 467.117 38.1552 504.154 46.5184ZM377.219 174.148C382.254 177.421 390.165 183.602 395.199 187.966C415.695 206.874 434.034 211.237 496.603 213.056C557.014 214.51 578.949 218.146 605.918 232.327C623.538 241.418 626.414 249.781 618.863 265.78C611.312 281.416 565.284 328.686 559.531 326.504C557.373 325.777 552.339 326.504 548.743 328.323C537.596 334.14 536.158 327.959 543.709 307.233C550.901 287.234 550.901 286.506 544.428 267.235C536.158 242.872 532.202 239.236 503.075 229.418C482.579 222.146 475.028 221.419 441.586 223.6C391.243 226.509 348.812 239.236 305.302 263.962C286.243 274.871 267.904 286.87 263.949 291.233C255.678 300.688 207.134 330.141 174.052 345.776C160.387 352.321 142.767 360.685 135.576 364.684C128.024 368.321 121.911 370.866 121.911 370.139C121.911 365.048 180.165 327.595 191.312 325.777C207.134 322.505 226.552 308.687 254.24 280.689C274.377 259.962 277.254 250.145 267.185 234.873C263.23 228.691 262.511 224.328 265.387 219.237C271.86 206.874 317.887 174.876 341.26 166.512C348.812 163.603 366.432 167.603 377.219 174.148ZM538.675 455.225C532.202 469.406 522.853 483.951 518.178 487.951C508.469 495.223 495.884 497.405 495.884 491.224C495.884 481.769 512.784 454.862 529.685 437.408C552.339 413.773 555.216 419.227 538.675 455.225Z" fill="url(#paint0_linear_564_181)"/>
<defs>
<linearGradient id="paint0_linear_564_181" x1="372" y1="-316.615" x2="372" y2="530.391" gradientUnits="userSpaceOnUse">
<stop stop-color="#FFFBFB"/>
<stop offset="1" stop-color="#FF0000"/>
</linearGradient>
</defs>
</svg>
