<svg width="865" height="830" viewBox="0 0 865 830" fill="none" xmlns="http://www.w3.org/2000/svg">
<path opacity="0.4" d="M172.086 -314.017C154.495 -305.511 134.329 -286.458 127.465 -272.169C124.032 -266.044 115.88 -250.734 109.445 -238.146C97.0022 -215.01 92.2827 -184.389 98.2894 -164.996C101.293 -155.129 100.435 -153.768 85.4179 -146.623C76.4079 -142.541 53.6683 -133.695 34.7901 -127.57C15.912 -121.106 -10.6891 -110.559 -24.4186 -103.754L-49.3035 -91.506L-83.1984 -95.929C-113.661 -99.6715 -118.809 -99.6716 -137.259 -93.8876C-148.414 -90.4854 -162.143 -84.0209 -167.721 -79.2577C-177.16 -71.4324 -177.589 -68.03 -177.589 -26.5219C-177.589 41.184 -167.721 57.8553 -126.961 58.1955C-90.4922 58.1955 -56.1683 45.9472 4.32764 10.9034C18.0572 2.73792 30.9287 -3.7265 33.0739 -3.7265C45.5163 -3.7265 27.9254 52.7518 0.0371399 103.446C-26.5639 151.419 -23.5605 149.377 -45.442 135.088C-70.7559 118.757 -80.195 115.354 -98.2151 115.354C-116.664 115.354 -136.829 128.964 -141.549 144.614C-145.84 157.203 -130.823 178.977 -110.228 190.205C-86.6308 203.134 -82.7693 206.876 -87.0598 213.341C-88.776 216.403 -91.7793 228.651 -93.0665 240.559C-94.3536 252.127 -98.2151 265.736 -102.077 270.159C-105.938 274.582 -108.941 281.387 -108.941 284.789C-108.941 293.295 -126.961 312.008 -144.552 321.534C-152.704 325.617 -169.008 338.886 -181.022 350.794C-193.035 362.702 -218.349 387.199 -237.227 405.571C-276.699 444.017 -284.851 460.688 -288.284 506.62L-290 535.539L-261.254 589.296C-232.936 641.351 -187.028 709.737 -157.853 742.059C-150.13 750.565 -139.833 764.174 -134.684 772C-117.522 798.878 -78.4788 826.436 -63.8912 821.673C-60.8878 820.993 -50.5907 821.673 -40.7225 823.715C-27.422 826.436 -21.4153 826.436 -17.5539 823.374C-14.9796 821.333 0.466187 819.632 16.341 819.632C57.5297 819.632 70.4012 814.188 101.722 784.248C116.309 769.958 129.61 759.411 131.326 760.772C133.042 762.133 136.475 770.298 139.478 778.464C148.059 802.28 162.647 817.931 182.383 824.395C204.264 831.2 240.305 831.54 263.902 824.735C287.5 818.271 328.689 789.351 354.432 761.112C366.016 748.524 380.175 736.616 385.323 734.234C390.472 731.852 410.208 729.811 429.086 729.811L463.41 729.471L470.275 743.76C477.569 759.411 492.585 773.701 508.889 780.505C514.896 782.887 535.061 787.99 553.51 792.073C572.389 796.156 599.848 805.002 614.864 811.807C639.32 822.354 645.327 823.715 662.918 822.013C690.377 819.292 737.143 804.321 749.586 793.774L759.454 785.609L747.441 759.411C729.85 718.924 715.262 709.397 665.492 706.335C598.561 702.252 571.96 686.602 532.916 629.103C506.315 588.955 507.173 581.13 542.784 554.252C556.514 544.045 569.814 532.477 571.959 529.075C574.963 524.992 575.821 506.96 574.534 481.102C572.389 448.44 573.247 437.893 578.395 430.068C582.257 424.284 586.547 413.056 588.263 404.891C589.98 396.725 594.27 384.817 597.273 378.693C600.706 372.569 603.28 363.382 603.28 358.619C603.28 346.031 608 349.773 629.881 379.714C657.34 416.799 685.229 445.378 726.846 478.38C763.745 507.64 780.048 516.146 814.801 523.631C853.416 531.797 865 520.909 865 477.02C865 455.245 863.284 448.44 853.845 435.511C839.686 416.118 813.514 390.941 788.629 372.569C771.467 359.98 735.427 328.679 656.911 256.89C591.267 197.01 568.956 166.729 574.963 147.336C577.966 137.809 602.851 124.2 631.168 116.035C661.631 107.529 668.925 97.3221 669.354 65.3404C669.783 41.5242 668.066 36.761 655.624 19.7495C644.469 3.75861 638.462 -0.324158 622.158 -5.42761C594.699 -13.5931 566.811 -10.8713 539.781 2.73785C505.028 20.4299 489.153 34.7195 482.717 54.1127C476.711 73.1656 479.714 72.8255 435.951 59.8967C411.066 52.7518 388.756 37.7817 388.756 28.9357C388.756 22.4713 414.928 6.82068 450.539 -8.14948C485.721 -23.1196 516.183 -45.5748 522.19 -61.2255C524.764 -68.3703 526.051 -81.6393 525.193 -90.8256C523.048 -109.538 504.17 -151.046 493.873 -160.233C487.008 -166.357 461.265 -174.522 429.515 -180.987C411.924 -184.729 338.557 -182.007 322.253 -177.244C313.672 -174.863 257.467 -178.265 253.176 -181.667C251.889 -182.688 254.034 -186.43 258.325 -190.173C271.625 -202.761 285.355 -232.702 285.784 -250.394C285.784 -283.396 271.625 -304.831 246.74 -308.913C240.305 -309.934 232.153 -312.996 229.578 -315.378C222.285 -322.182 187.532 -321.502 172.086 -314.017ZM205.123 -135.736C208.984 -133.354 214.991 -123.828 218.423 -114.302L224.43 -97.2899L208.126 -71.4324C199.545 -57.4829 183.241 -35.7082 172.515 -23.1196C161.789 -10.8713 148.488 6.82068 142.481 16.0069C136.904 24.8529 128.752 34.3794 125.319 36.761C121.458 39.4828 118.455 43.5656 118.455 46.2875C118.455 49.0093 102.151 77.5886 82.4146 109.57C62.2493 141.892 39.0806 180.679 30.9287 196.329C6.04382 242.941 -30.8544 294.316 -57.0264 318.812C-70.3269 331.401 -92.2084 353.856 -104.651 368.826C-141.12 412.035 -188.315 457.286 -189.603 450.822C-190.461 447.76 -188.744 437.213 -186.17 427.686C-181.022 407.953 -161.285 384.817 -112.803 342.628C-63.8912 300.1 -28.2801 236.476 -32.5706 200.412C-33.8577 189.525 -35.1449 188.504 -47.5873 188.504C-55.3102 188.504 -65.1783 185.442 -71.185 181.359C-76.3336 177.276 -86.2017 171.492 -92.6375 168.09C-106.367 161.285 -111.516 151.078 -104.651 144.274C-96.9279 136.789 -94.7827 137.469 -65.6073 156.182C-32.9996 176.936 -20.9863 177.957 -2.96619 161.966C27.0672 134.747 75.9789 21.1104 84.5598 -42.1725C89.7084 -77.5565 98.2894 -92.1865 127.894 -114.982C158.356 -138.458 187.961 -146.283 205.123 -135.736ZM470.275 -109.198C480.572 -104.775 491.727 -87.083 491.727 -74.8347C491.727 -62.2462 469.846 -45.5748 434.664 -30.9449C357.864 1.0368 340.273 24.8529 370.306 56.1542C382.32 69.0829 411.066 81.3312 452.255 91.8784L483.146 99.7036V118.416C483.146 139.511 490.869 178.637 496.876 187.483C500.737 193.948 494.302 196.329 489.582 190.545C485.292 185.102 396.478 137.469 368.59 125.901C343.705 115.354 320.108 95.6209 320.108 85.414C320.108 83.0324 317.533 77.5886 314.101 73.5059C303.375 60.5771 290.503 16.0069 295.223 6.82068C297.368 2.05743 298.226 -3.38623 296.939 -6.10803C295.652 -8.8299 315.388 -23.4599 347.138 -43.5335C375.455 -61.9059 408.063 -83.0002 418.789 -90.8256C448.393 -112.26 456.545 -114.982 470.275 -109.198ZM283.639 98.683C311.098 126.582 326.972 138.15 352.286 148.357C396.049 166.389 465.555 207.557 498.163 235.115C537.207 268.118 541.926 273.221 545.358 288.872C547.504 299.759 546.646 301.12 533.774 305.883C520.474 310.647 519.616 312.348 517.041 331.401C515.754 342.628 511.464 356.918 507.173 362.702C499.45 374.61 488.295 376.651 458.262 371.888C430.802 367.465 428.657 325.277 453.971 293.975C466.413 278.665 468.13 274.242 468.13 252.127C468.13 228.311 467.272 226.61 454.829 217.423C444.103 209.938 435.522 207.557 411.924 205.515C380.175 202.794 381.891 202.113 358.722 227.29C353.574 233.414 345.422 234.775 312.814 237.157C290.932 238.518 272.912 238.858 272.912 237.497C272.912 236.476 280.635 228.311 290.074 219.805C310.24 201.773 312.385 188.504 297.797 172.853C284.068 158.223 271.625 153.8 235.156 151.078C216.707 149.718 202.977 146.996 201.69 144.274C199.116 138.83 218.852 97.3221 229.578 85.0738C243.308 70.1036 259.183 74.1863 283.639 98.683ZM419.647 260.973C419.218 270.499 415.357 284.789 411.924 292.955C408.063 301.12 404.201 321.534 402.914 338.886C400.769 364.403 401.627 371.888 407.634 378.693C419.647 393.663 438.525 398.766 479.714 399.107C516.612 399.447 516.612 399.447 519.186 408.973C523.906 427.686 516.612 433.81 482.288 440.275C452.684 445.718 449.681 445.718 426.083 440.275C412.782 437.213 399.911 432.109 397.766 429.047C389.614 416.118 384.036 378.012 384.894 343.309C386.181 301.12 383.178 295.677 360.009 295.677C324.398 295.677 298.226 335.143 289.645 401.148C285.355 431.429 278.49 445.378 267.764 445.378C266.048 445.378 264.331 428.026 264.331 406.932C264.331 377.672 266.906 361.001 275.058 334.803C281.064 316.09 285.784 297.718 285.784 293.635C285.784 281.387 311.098 269.139 346.709 263.695C356.148 262.334 371.165 255.87 382.749 247.704C401.198 235.115 403.343 234.435 411.924 239.198C419.218 243.281 420.934 246.683 419.647 260.973ZM681.796 319.493C703.249 339.226 738.431 369.166 759.883 385.838C781.765 402.849 806.649 425.645 816.088 436.532C831.105 454.564 832.821 458.987 832.821 477.36V498.114L820.379 497.093C798.497 495.052 782.623 486.206 742.292 453.544C703.249 421.562 683.512 400.468 641.465 345.01L617.868 314.389L619.584 288.872L621.3 263.355L632.026 273.562C638.033 279.345 660.344 299.759 681.796 319.493ZM231.295 296.357C229.149 310.647 220.997 350.454 203.835 426.665C193.538 473.277 196.113 492.67 214.133 509.001L227.004 520.569L213.275 530.776C205.552 536.22 198.687 540.643 198.258 540.643C197.4 540.643 195.684 523.631 193.967 502.877C190.964 460.688 185.386 448.78 164.363 438.233C146.343 429.387 127.036 431.769 102.151 445.718L82.8436 456.606L85.847 444.017C90.5665 424.624 109.445 390.941 125.749 373.93C142.91 355.557 226.575 282.067 230.866 282.067C232.153 282.067 232.582 288.532 231.295 296.357ZM71.6884 294.996C69.5431 298.058 53.2392 315.75 36.0773 334.123C15.0539 356.238 -9.40195 389.24 -38.1482 434.491C-61.7459 471.236 -91.7793 517.507 -105.509 537.24C-123.1 563.098 -131.681 580.79 -137.259 600.864C-141.12 616.514 -145.84 629.103 -147.556 629.103C-152.704 629.103 -181.88 580.45 -184.454 567.521C-186.17 560.036 -183.596 546.086 -178.447 530.776C-171.153 510.362 -165.576 502.877 -145.41 485.525C-132.11 474.298 -112.374 454.905 -101.218 442.316C-79.3369 417.819 -13.2634 351.134 12.4796 326.978C43.8002 298.058 84.9889 275.603 71.6884 294.996ZM358.722 414.757C365.587 438.233 373.31 450.822 384.894 455.925C397.337 461.029 391.759 464.091 355.29 470.895C337.699 474.298 314.959 480.422 304.662 484.845L285.784 493.01L292.22 482.803C295.652 477.36 298.655 470.895 298.655 468.514C298.655 466.132 303.375 456.606 309.382 447.419C316.246 436.872 320.108 424.964 320.108 415.098C320.108 395.024 329.976 358.619 339.844 341.267L347.567 327.998L350.57 362.022C351.857 380.734 355.719 404.55 358.722 414.757ZM45.9454 401.488C39.9387 452.523 46.3745 473.277 68.685 479.401C85.4179 483.824 100.435 480.082 119.313 467.493C144.198 450.822 154.924 456.946 161.36 491.649C178.522 587.595 142.481 705.314 77.266 766.896C54.0973 788.331 49.8068 790.712 33.932 791.733C17.6282 792.754 15.0539 791.733 -2.53714 775.402C-29.5672 751.245 -41.1516 731.512 -39.4354 713.48L-38.1482 698.85L-16.6958 697.149C24.922 693.406 42.084 681.158 73.4045 632.165C95.286 597.121 105.583 565.139 105.583 530.436C105.583 510.362 104.296 505.939 96.1441 499.815C84.5598 491.309 68.685 493.01 57.1006 504.238C-11.1181 569.222 -29.9963 584.873 -38.5773 583.512C-51.8778 580.79 -60.8878 587.935 -69.4688 607.668C-73.7593 617.535 -78.9079 624.68 -80.195 623.319C-85.7727 619.236 -83.1984 570.923 -77.1917 560.036C-35.5739 483.144 43.3711 361.001 48.5197 365.084C49.3778 365.764 48.0907 382.095 45.9454 401.488ZM514.896 492.67C523.477 497.093 530.342 502.197 530.342 504.238C530.342 506.62 523.048 518.187 514.467 530.436C484.004 573.985 481.43 579.089 481.859 594.739C482.288 610.73 499.021 659.043 514.038 686.602L522.19 702.252L513.18 708.036C502.883 714.501 501.595 714.16 458.691 698.51C432.089 688.643 426.083 684.901 418.36 672.312C413.211 664.487 405.918 654.96 401.627 651.218C397.337 647.475 388.756 636.588 382.749 627.061L371.165 609.71L333.837 607.668C312.814 606.307 288.787 602.905 279.777 600.183C270.767 597.121 252.747 593.719 239.447 592.358C218.852 590.316 214.991 588.955 213.704 582.491C211.129 569.222 225.288 554.252 254.892 539.282C308.952 511.723 334.266 502.197 377.6 492.67C432.948 480.422 490.011 480.422 514.896 492.67ZM71.2593 558.335C65.2526 586.234 31.3577 646.454 14.1958 659.043C3.89859 666.868 3.89859 666.868 -22.2734 661.084L-48.8745 655.3L-39.8644 642.712C-21.8444 617.535 69.9721 528.394 74.6917 532.137C75.5498 532.817 74.2626 544.725 71.2593 558.335ZM230.436 627.061C241.163 634.546 254.892 644.413 260.899 648.496C275.058 657.682 280.206 679.457 272.483 694.767C269.48 700.891 260.041 712.119 251.889 719.944C239.017 732.193 234.298 734.574 220.997 734.574C212.416 734.574 193.538 731.172 179.38 726.749L153.208 718.924L161.36 704.974C167.795 693.406 178.951 659.043 189.677 616.174C192.251 605.287 204.694 608.689 230.436 627.061Z" fill="#FF0000"/>
</svg>
