<svg width="1231" height="523" viewBox="0 0 1231 523" fill="none" xmlns="http://www.w3.org/2000/svg">
<path opacity="0.1" d="M14.9506 413.716C26.5038 418.073 34.4022 419.156 50.7602 418.347C78.7276 416.922 99.4192 405.967 126.102 378.172L146.384 356.77L146.278 319.473C146.721 280.194 137.72 236.581 126.765 226.015C118.423 217.467 101.942 182.472 101.541 171.279C101.106 163.07 102.169 162.336 117.469 161.762C162.314 160.279 182.94 201.786 169.037 265.528C165.157 282.143 165.671 283.391 177.23 287.251C197.192 294.19 215.14 292.652 231.069 283.135C239.032 278.501 248.569 274.63 252.26 274.672C260.17 274.761 281.464 303.843 281.343 314.533C281.299 318.511 277.534 324.933 273.274 328.614C269.01 332.544 265.255 338.22 265.224 340.955C265.19 343.938 261.423 350.609 256.618 355.776C243.273 370.046 238.232 396.096 246.577 404.395C255.973 412.955 261.765 413.766 325.037 414.977C385.143 416.402 439.403 421.738 458.841 428.422C477.754 434.851 530.385 444.396 548.841 444.604C584.171 445.003 614.876 434.658 636.72 415.014C652.178 400.519 652.77 394.807 639.178 384.211C624.542 372.609 598.21 369.328 510.148 368.334C444.761 367.596 434.22 366.98 415.293 361.794C387.424 354.517 374.322 347.159 358.16 330.567C344.086 315.987 340.613 296.554 350.73 287.966C357.656 281.829 366.068 284.161 365.978 292.117C365.874 301.315 389.746 335.647 400.231 341.236C405.473 344.03 415.997 346.138 426.543 346.257C451.854 346.542 457.198 340.387 458.611 308.577C459.966 281.989 464.269 274.578 480.088 274.757C487.998 274.846 488.503 276.841 489.067 320.358C489.302 346.219 490.867 347.728 517.721 351.512C543.526 354.787 563.177 342.577 570.84 317.8C575.762 302.192 585.939 288.383 592.794 288.46C594.376 288.478 594.858 292.462 593.753 296.925C591.551 305.105 593.125 305.869 614.164 310.83C626.789 313.708 647.836 317.923 660.994 320.309C689.416 325.354 703.064 330.978 702.986 337.939C702.952 340.922 708.587 355.655 715.801 370.655C727.654 395.155 728.625 402.625 727.155 439.406C725.738 471.464 726.678 481.669 732.445 484.717C743.446 491.306 761.918 490.023 777.303 481.991C801.717 468.343 807.688 453.244 810.401 399.818C811.231 372.975 814.129 349.885 815.728 348.411C823.172 343.025 834.739 346.139 865.668 362.649C887.162 374.081 899.192 382.919 902.805 389.921C910.554 404.181 913.685 407.2 951.893 432.992C970.738 445.387 1001.61 466.87 1020.45 480.26C1062.83 510.077 1080.13 519.472 1098.56 521.918C1124.36 525.192 1129.69 520.031 1126.82 494.638C1120.56 441.608 1110.75 423.098 1078.79 404.09C1068.84 398.259 1060.99 392.701 1061 391.458C1061.02 390.215 1045.28 382.827 1025.33 374.894C953.407 345.489 865.354 297.006 839.788 272.6C815.265 249.2 806.923 193.909 824.58 171.483C832.075 161.622 836.319 159.432 853.221 157.137C864.314 155.521 876.975 155.167 882.764 156.227C888.024 157.529 893.816 158.341 895.4 158.11C897.512 157.885 918.566 161.604 942.772 166.352C980.133 173.736 989.066 176.571 1002.67 185.924C1018.37 196.544 1018.37 197.042 1016.48 224.619C1014.61 249.958 1015.63 252.953 1025.58 259.282C1033.96 264.597 1041.32 266.172 1056.09 266.339C1073.49 266.535 1080.36 264.624 1112.7 249.574C1145.04 234.772 1151.92 232.612 1168.8 232.802C1194.11 233.088 1212.65 226.087 1224.4 212.296C1233.49 201.21 1233.5 200.961 1219.45 184.144C1192.92 151.274 1197.65 153.067 1045.63 118.283C1030.9 114.885 1005.65 109.13 988.817 105.21C971.985 101.291 953.599 94.8676 947.313 91.0671C941.558 87.024 931.053 83.176 924.734 82.3587C917.887 81.5355 898.461 73.8573 881.152 65.457C863.846 56.8081 845.463 50.1362 839.662 50.0707C833.335 49.9993 815.33 56.5092 795.177 66.4758C765.482 80.8101 759.101 85.4622 745.169 104.947C729.63 126.652 729.086 128.137 730.193 170.169C730.707 218.161 729.088 221.375 696.24 234.68C673.989 243.628 667.131 243.799 652.978 236.18C637.773 228.301 629.437 219.256 609.721 190.441C581.199 147.602 559.753 131.945 534.935 134.648C520.151 136.222 513.223 142.608 499.748 168.314C491.117 185.373 489.527 186.101 483.788 180.566C480.131 177.541 472.849 168.508 467.136 160.736C456.23 145.695 450.991 142.652 432.008 142.438C413.024 142.223 400.276 150.285 396.417 165.159C392.024 180.525 386.153 186.674 378.286 182.856C369.896 178.535 356.96 156.509 353.438 141.551L350.434 127.345L414.272 125.082C449.095 123.734 480.742 123.346 484.422 124.382C494.408 127.478 657.365 127.825 680.076 124.849C719.687 119.826 732.006 103.058 711.143 82.4346C696.541 67.849 671.303 61.0997 606.516 53.904C548.051 47.277 514.914 39.444 461.877 19.2033C420.918 3.57433 406.186 0.424462 374.547 0.0674038C346.6 -0.247997 345.542 -0.0113187 316.38 13.8318C293.046 25.2543 284.536 31.6228 273.822 46.4199C261.5 63.4367 260.386 68.6454 258.223 120.088C255.996 177.249 252.221 184.666 237.164 163.61C230.41 154.583 226.338 141.608 209.682 75.2836C202.631 45.8651 198.988 41.5972 179.533 36.405C105.383 17.6665 24.7182 62.2563 16.0818 126.555C12.6233 152.623 20.718 183.048 47.4567 243.768C56.1994 263.508 59.6943 280.952 60.4795 304.83C61.6434 341.89 60.5748 343.121 22.2855 371.282C-4.83778 391.364 -7.10414 405.262 14.9506 413.716ZM79.9768 72.5767C88.5065 64.468 99.6475 58.6265 111.812 55.5315C129.791 51.259 130.319 51.2649 148.189 56.688C158.174 59.7843 169.186 65.3785 172.835 69.1492C176.484 72.9199 184.677 94.6436 191.801 117.598C203.481 157.512 213.281 177.016 225.331 184.114C229.002 185.895 241.641 187.53 254.296 187.673C280.662 187.97 281.728 186.988 284.135 160.66L285.899 144.518L295.225 159.293C300.406 167.556 330.645 198.48 361.956 227.923C412.053 274.983 419.868 283.525 423.907 299.483C429.976 322.426 429.875 331.376 424.602 331.317C418.274 331.245 408.954 315.973 400.264 291.509C392.091 268.045 385.814 263.499 347.948 254.121C306.927 243.961 253.34 225.703 236.042 216.308C227.658 211.49 213.051 197.401 203.702 184.615C184.997 159.789 156.241 137.585 135.732 132.381C128.369 130.557 110.985 128.869 97.2744 128.715C76.1817 128.477 71.447 127.429 67.2818 122.658C57.9024 112.606 65.0577 86.0832 79.9768 72.5767ZM284.014 358.323C296.871 340.566 308.621 327.521 312.312 327.563C313.894 327.581 321.22 332.636 328.005 338.929C343.668 353.029 372.002 365.78 408.289 374.892C435.109 381.659 438.27 381.944 495.24 380.846C564.865 379.891 604.377 383.57 616.41 392.159C623.207 397.457 622.662 398.943 608.287 410.964C597.637 420.043 586.502 425.387 572.755 428.464C553.721 432.725 552.139 432.707 523.185 428.153C506.863 425.732 483.715 420.746 471.626 417.129C439.033 407.81 395.838 403.345 332.563 402.382C301.979 402.037 275.094 400.987 272.999 399.721C267.226 397.169 273.829 372.877 284.014 358.323ZM338.224 40.9309C347.831 30.8453 366.337 26.5787 391.626 28.8532C403.743 29.9844 417.428 32.3766 421.624 34.4131C426.35 36.2068 441.084 39.1081 455.305 40.7603C468.998 42.4067 496.363 47.6882 515.82 52.6319C538.958 58.6116 567.382 63.4078 598.466 66.2449C657.469 71.8835 681.647 79.1181 690.454 93.1411C696.157 101.908 695.607 103.891 688.715 107.045C664.857 118.213 537.246 116.773 393.413 104.21C343.887 99.9212 337.601 96.1207 335.268 69.2419C334.872 57.5516 333.4 47.8382 332.875 47.5837C332.351 47.3291 334.494 44.3696 338.224 40.9309ZM423.088 185.102C427.382 178.438 445.255 183.612 474.081 199.601C490.851 208.99 509.705 220.64 515.449 225.677C525.376 233.994 525.356 235.735 518.947 242.873C512.013 249.756 509.896 250.478 494.09 249.057C447.198 245.047 412.121 222.274 417.649 199.71C419.304 193.264 421.486 186.825 423.088 185.102ZM524.82 283.218C529.103 277.548 534.407 274.872 544.438 273.991C552.356 273.335 562.916 272.211 567.67 271.518C579.816 270.164 579.824 269.418 561.172 286.612C551.582 295.206 545.144 304.83 545.08 310.548C544.965 320.74 530.509 339.971 523.653 339.893C521.017 339.864 517.87 338.336 516.307 336.578C512.139 332.056 518.383 292.842 524.82 283.218ZM529.289 167.653C534.68 157.271 540.579 148.636 542.161 148.654C546.906 148.707 570.341 175.078 580.705 191.356C587.958 202.875 599.391 217.923 612.927 233.491C618.652 240.268 549.301 216.86 535.168 207.501C517.371 195.614 516.872 193.122 529.289 167.653ZM713.386 257.499C718.172 254.072 727.198 248.704 733.565 245.295C761.145 231.434 767.616 218.827 770.741 175.599C773.321 133.858 778.766 118.753 799.541 100.339C812.862 88.3066 825.012 86.4547 848.155 91.9371C870.771 97.4137 938.963 130.009 935.754 133.95C934.683 135.43 935.698 138.923 938.307 141.438C946.657 149.24 937.681 150.133 907.683 144.574C878.737 139.274 877.682 139.262 849.684 143.422C814.289 148.741 808.985 151.416 794.52 171.392C783.814 185.444 782.701 190.652 785.604 213.808C789.429 248.66 807.554 278.204 843.072 308.689C858.743 322.044 876.001 334.919 882.298 337.725C895.944 343.598 938.278 377.641 960.694 400.768C970.079 410.322 982.07 422.641 987.815 427.678C993.029 432.959 996.672 437.226 995.618 437.215C988.235 437.131 934.376 396.245 931.827 388.508C927.204 377.516 907.318 363.865 866.93 344.265C837.031 330.004 822.815 327.854 800.59 334.565C791.594 337.199 785.261 337.624 777.901 335.552C760.023 330.875 713.978 298.53 702.032 282.234C697.873 276.966 703.811 264.85 713.386 257.499ZM1122.26 150.476C1142.78 155.183 1163.8 161.885 1169.56 165.182C1180.03 172.013 1183.1 180.75 1174.13 180.649C1160.42 180.494 1121.53 168.37 1096.35 156.4C1062.25 140.351 1070.19 138.451 1122.26 150.476Z" fill="url(#paint0_linear_564_271)"/>
<defs>
<linearGradient id="paint0_linear_564_271" x1="1.64509" y1="253.075" x2="1227.98" y2="270" gradientUnits="userSpaceOnUse">
<stop stop-color="#FFFBFB"/>
<stop offset="1" stop-color="#FFFBFB"/>
</linearGradient>
</defs>
</svg>
