<svg width="274" height="284" viewBox="0 0 274 284" fill="none" xmlns="http://www.w3.org/2000/svg">
<path d="M51.5189 3.49506C49.2676 6.17731 48.7379 8.0061 49.2676 11.7856C50.1946 18.2474 56.1539 23.0024 71.1184 29.0984L82.6398 33.7314L102.504 33.6095C123.428 33.6095 146.603 31.4149 152.165 28.8546C156.668 26.9038 175.208 23.0024 181.167 22.8805C185.537 22.7585 185.935 23.0024 186.332 26.5381C187.391 36.9014 165.408 41.7782 131.374 38.7301C122.501 37.8767 121.839 37.9986 119.852 40.6809C116.277 45.3139 117.204 49.4592 122.369 53.1168C124.885 54.9456 127.004 57.1402 127.004 57.9936C127.004 59.8224 111.642 64.8212 105.947 64.8212C103.828 64.8212 100.385 63.9677 98.3988 62.9924C96.28 62.017 93.2341 61.1636 91.7774 61.1636C90.1882 61.1636 86.6126 60.3101 83.8316 59.2128C76.1507 56.1648 62.2457 55.0675 57.8755 57.0183C53.3729 59.2128 52.9756 60.554 52.7108 75.1844C52.3135 89.0834 49.7973 101.641 46.3542 106.152C43.0434 110.541 38.276 122.734 38.276 127.001C38.276 135.169 43.9704 142.241 54.5648 147.24C62.3781 150.775 65.424 150.897 70.986 147.727C77.0777 144.314 78.6669 138.217 78.6669 117.857C78.6669 102.739 78.9317 100.3 81.5803 95.911C85.2884 89.4492 89.1288 86.4012 97.8691 82.6216C105.55 79.3298 115.88 78.4763 120.515 80.7928C123.825 82.3778 122.633 84.3285 118.396 84.3285C113.496 84.3285 95.353 89.9369 92.4395 92.3753C90.9828 93.5945 89.9234 96.0329 89.9234 98.4713C89.9234 104.324 93.2341 105.543 110.185 105.787C124.355 106.03 128.328 107.006 128.328 110.663C128.328 112.492 127.268 112.614 104.093 112.858C90.3207 112.98 89.5261 113.346 87.6721 119.564C86.0829 125.538 92.7044 130.049 105.947 131.756C114.29 132.853 121.706 135.169 121.706 136.754C121.706 137.12 119.588 137.242 117.204 136.998C112.834 136.511 112.436 136.876 109.92 141.753C108.463 144.679 106.345 149.556 105.153 152.604C102.637 159.188 99.7231 162.358 96.0151 162.358C94.426 162.358 86.6126 163.699 78.6669 165.406C65.6888 168.21 61.716 168.454 42.1164 168.21C25.0331 167.966 19.6035 168.21 18.0143 169.551C14.5712 172.111 15.3657 176.379 19.7359 179.914C27.1519 185.523 35.2301 186.864 63.7024 187.352C78.0048 187.473 90.3207 188.083 91.1152 188.449C94.0287 190.156 92.4395 192.838 83.8316 200.031C77.8723 205.03 73.2373 207.834 69.5293 208.688C61.9808 210.517 60.3917 211.248 46.8839 220.148C40.3949 224.537 29.1384 231.731 22.1196 236.12C6.49298 245.995 1.5931 250.019 0.401236 254.286C-1.18791 260.26 1.5931 261.479 15.1009 260.748C43.3083 259.163 53.1081 256.846 63.0403 249.409C66.0861 247.093 68.9996 245.264 69.6617 245.264C70.3239 245.264 74.1643 241.606 78.2696 236.973C93.499 220.27 118.793 199.787 131.639 193.813C143.954 188.083 173.354 186.01 185.405 190.034C190.702 191.741 191.894 192.716 193.218 196.618C194.145 199.178 194.41 202.104 193.88 203.445C193.218 204.664 192.821 206.005 192.953 206.371C193.086 206.859 191.232 211.736 188.848 217.344C185.14 226 183.683 228.073 178.783 231.243C173.221 234.901 172.956 234.901 158.257 234.535C144.749 234.169 143.16 234.413 139.849 236.729C137.068 238.68 136.274 240.387 136.274 243.801C136.274 247.824 137.333 249.409 145.544 256.846C153.622 264.284 154.814 265.869 154.814 269.77C154.814 275.622 158.654 279.889 166.07 282.572C172.029 284.644 172.162 284.644 181.035 281.352C198.383 275.135 197.456 276.232 215.069 240.997C216.791 237.583 219.704 231.731 221.69 227.829C223.677 223.928 226.988 219.661 228.974 218.198C231.093 216.856 233.079 214.418 233.477 212.955C233.874 211.37 237.847 206.859 242.217 202.836C246.72 198.812 250.163 194.545 250.163 193.204C250.163 191.741 246.587 187.595 241.158 182.962C233.344 176.135 230.828 174.672 220.366 171.502C208.712 167.966 207.918 167.844 185.537 168.21C159.978 168.454 158.257 168.088 150.973 160.529C146.073 155.408 145.941 153.823 149.914 150.531C154.019 146.996 158.787 145.045 174.016 140.412C196.661 133.706 204.872 128.708 203.283 122.977C202.356 119.564 198.913 117.979 185.14 114.931C176.002 112.98 175.605 112.614 178.519 111.273C180.108 110.42 184.875 108.713 188.98 107.372C196.926 104.811 198.515 103.592 198.515 99.2029C198.515 94.8137 194.145 91.8876 186.199 91.0341C177.989 90.0588 174.678 88.7177 176.665 86.8888C178.916 84.9381 190.57 81.8901 198.515 81.0367L206.064 80.3051L207.653 95.0575C208.58 103.104 208.977 110.42 208.448 111.273C206.858 113.589 207.653 151.263 209.375 156.506C212.288 165.65 221.293 168.454 232.152 163.577C239.833 160.163 243.276 154.311 246.72 139.315C249.898 125.782 253.871 118.101 264.333 105.787C272.411 96.2767 274 92.863 274 85.5477C274 79.0859 273.868 78.8421 266.319 72.1364C260.095 66.7719 256.652 64.8212 248.706 62.3828C239.568 59.5786 236.787 59.3347 209.375 58.969C178.916 58.6032 174.943 57.7498 186.067 54.2141C190.834 52.6291 197.721 51.6537 232.947 47.6304C248.574 45.9235 250.825 45.07 253.473 40.559C263.008 23.3681 238.774 4.83618 204.475 3.00739C190.57 2.27585 174.413 4.22656 142.233 10.5665C131.771 12.6391 122.501 13.4926 109.788 13.7364C90.0558 14.1022 89.3937 13.8583 74.1643 5.08002C63.3051 -1.13794 55.8891 -1.62564 51.5189 3.49506ZM233.609 17.6379C237.979 19.5886 241.158 22.1489 242.879 24.9531C245.263 29.0984 245.263 29.2203 242.482 33.3656C240.893 35.6821 237.979 38.2425 235.993 39.0959C234.006 39.9493 222.485 41.9001 210.302 43.6069C189.113 46.4111 178.783 48.7276 175.075 51.5318C174.148 52.3853 173.354 55.3114 173.354 58.2375C173.354 64.3335 173.883 64.5773 187.921 65.065L196.529 65.4308L188.716 67.6254C184.345 68.8446 168.057 75.916 152.562 83.2312C127.798 94.9356 123.296 96.7644 114.82 97.7398C102.637 99.2028 97.8691 99.2029 97.8691 97.9836C97.8691 96.5206 105.947 94.326 118.925 92.2534C131.374 90.3026 133.757 88.8396 138.525 80.0613C143.69 70.5515 153.092 58.1155 157.992 54.0921C160.508 52.1414 167.924 48.7276 174.678 46.5331C187.789 42.1439 199.442 35.4383 202.091 30.6834C203.018 28.9765 203.812 24.9531 203.812 21.7832C203.812 16.9063 204.342 15.8091 206.858 14.8337C212.156 12.6391 226.325 14.2241 233.609 17.6379ZM82.6398 65.5527C92.1747 68.4788 99.1934 71.1611 99.1934 72.0145C99.1934 72.3803 96.5448 74.0872 93.2341 75.6721C85.8181 79.3298 79.1966 85.9135 74.5616 94.326C71.1184 100.544 70.986 101.275 71.913 114.443C72.84 130.536 71.1184 139.681 66.6158 142.485C63.8348 144.07 63.0403 143.948 56.5512 140.656C51.6513 138.217 48.7379 135.657 47.0163 132.487C44.6326 128.098 44.6326 127.732 46.8839 121.027C48.0758 117.247 50.5919 111.883 52.4459 109.078C57.2134 101.519 59.3322 91.5218 59.4647 76.8913C59.4647 69.8199 59.862 63.602 60.5241 63.1143C61.8484 61.7732 74.8264 63.2362 82.6398 65.5527ZM252.017 77.2571C257.446 79.4517 259.83 83.7189 258.771 89.5711C258.241 92.3753 257.049 95.5452 255.99 96.5206C255.063 97.6179 253.606 101.032 252.811 104.324C252.017 107.493 249.368 113.833 246.852 118.344C243.806 123.709 241.422 130.293 240.098 137.486C237.45 151.141 233.742 156.749 226.325 158.822C221.69 160.163 220.631 160.041 218.909 158.456C212.818 152.97 212.818 123.465 218.645 90.1807C220.631 78.7202 222.617 77.2571 236.92 76.6475C243.144 76.5256 248.309 76.1598 248.441 76.0379C248.574 75.916 250.163 76.4037 252.017 77.2571ZM175.738 97.2521C179.313 98.2275 176.665 102.373 168.321 109.078C163.422 112.98 157.33 117.369 154.681 118.71C150.311 121.027 149.384 121.027 145.544 119.564C141.836 117.979 141.438 117.491 142.1 113.833C143.954 102.982 155.873 94.8137 167.924 96.0329C171.367 96.3987 174.811 96.8864 175.738 97.2521ZM124.09 121.027C127.136 122.002 128.593 123.221 129.122 125.538C129.52 127.367 130.182 129.805 130.579 130.902C131.374 133.706 131.771 133.706 122.501 129.439C117.866 127.245 112.701 125.782 109.655 125.782C104.226 125.782 93.8963 122.49 93.8963 120.905C93.8963 120.295 94.6908 119.564 95.6178 119.198C98.0016 118.222 118.925 119.564 124.09 121.027ZM185.67 121.758C191.232 122.977 195.867 124.319 195.867 124.684C195.867 125.782 181.962 131.268 173.354 133.706C167.262 135.413 159.316 138.096 151.106 141.266C147.53 142.607 159.581 126.513 164.481 123.221C170.705 119.076 172.029 118.954 185.67 121.758ZM138.922 164.552C140.776 165.65 143.69 167.722 145.544 169.185C153.092 175.525 159.846 176.988 182.889 177.598C205.137 178.086 213.215 179.305 223.147 184.06C229.636 187.108 230.696 189.912 227.915 195.276C225.134 200.519 208.183 216.369 206.064 215.637C205.269 215.393 203.415 215.637 202.091 216.247C197.986 218.198 197.456 216.125 200.237 209.175C202.885 202.47 202.885 202.226 200.502 195.764C197.456 187.595 195.999 186.376 185.272 183.084C177.724 180.646 174.943 180.402 162.627 181.134C144.087 182.109 128.46 186.376 112.436 194.667C105.418 198.324 98.6637 202.348 97.207 203.811C94.1611 206.981 76.2832 216.856 64.0997 222.099C59.0674 224.294 52.5783 227.098 49.9298 228.439C47.1487 229.658 44.8975 230.512 44.8975 230.268C44.8975 228.561 66.351 216.003 70.4563 215.393C76.2832 214.296 83.4343 209.663 93.6314 200.275C101.047 193.326 102.107 190.034 98.3988 184.913C96.9421 182.84 96.6773 181.377 97.7367 179.671C100.12 175.525 117.071 164.796 125.679 161.992C128.46 161.017 134.949 162.358 138.922 164.552ZM198.383 258.797C195.999 263.552 192.556 268.429 190.834 269.77C187.259 272.208 182.624 272.94 182.624 270.867C182.624 267.697 188.848 258.675 195.072 252.823C203.415 244.898 204.475 246.727 198.383 258.797Z" fill="black"/>
</svg>
