<svg width="996" height="1330" viewBox="0 0 996 1330" fill="none" xmlns="http://www.w3.org/2000/svg">
<path opacity="0.45" d="M303.086 7.01746C285.495 16.8566 265.329 38.8964 258.465 55.4263C255.032 62.5105 246.88 80.2211 240.445 94.7831C228.002 121.546 223.283 156.967 229.289 179.4C232.293 190.814 231.435 192.388 216.418 200.653C207.408 205.376 184.668 215.609 165.79 222.693C146.912 230.171 120.311 242.371 106.581 250.242L81.6965 264.411L47.8016 259.295C17.3392 254.965 12.1906 254.965 -6.25853 261.656C-17.4138 265.592 -31.1434 273.069 -36.721 278.579C-46.1601 287.631 -46.5892 291.567 -46.5892 339.582C-46.5892 417.902 -36.721 437.187 4.03864 437.581C40.5078 437.581 74.8317 423.412 135.328 382.875C149.057 373.429 161.929 365.951 164.074 365.951C176.516 365.951 158.925 431.284 131.037 489.925C104.436 545.418 107.439 543.057 85.558 526.527C60.2441 507.636 50.805 503.7 32.7849 503.7C14.3358 503.7 -5.8295 519.443 -10.549 537.547C-14.8395 552.109 0.177185 577.297 20.7715 590.285C44.3692 605.241 48.2307 609.57 43.9402 617.048C42.224 620.59 39.2207 634.758 37.9335 648.533C36.6464 661.915 32.7849 677.657 28.9235 682.774C25.062 687.89 22.0587 695.761 22.0587 699.697C22.0587 709.536 4.03864 731.183 -13.5524 742.202C-21.7043 746.925 -38.0082 762.274 -50.0215 776.049C-62.0349 789.824 -87.3488 818.161 -106.227 839.414C-145.699 883.887 -153.851 903.172 -157.284 956.303L-159 989.757L-130.254 1051.94C-101.936 1112.16 -56.0282 1191.26 -26.8529 1228.65C-19.13 1238.49 -8.83284 1254.23 -3.68425 1263.29C13.4777 1294.38 52.5212 1326.26 67.1088 1320.75C70.1122 1319.96 80.4093 1320.75 90.2775 1323.11C103.578 1326.26 109.585 1326.26 113.446 1322.72C116.02 1320.35 131.466 1318.39 147.341 1318.39C188.53 1318.39 201.401 1312.09 232.722 1277.45C247.309 1260.93 260.61 1248.72 262.326 1250.3C264.042 1251.87 267.475 1261.32 270.478 1270.76C279.059 1298.31 293.647 1316.42 313.383 1323.9C335.264 1331.77 371.305 1332.16 394.902 1324.29C418.5 1316.81 459.689 1283.36 485.432 1250.69C497.016 1236.13 511.175 1222.36 516.323 1219.6C521.472 1216.85 541.208 1214.48 560.086 1214.48L594.41 1214.09L601.275 1230.62C608.569 1248.72 623.585 1265.25 639.889 1273.13C645.896 1275.88 666.061 1281.78 684.51 1286.51C703.389 1291.23 730.848 1301.46 745.864 1309.33C770.32 1321.53 776.327 1323.11 793.918 1321.14C821.377 1317.99 868.143 1300.68 880.586 1288.47L890.454 1279.03L878.441 1248.72C860.85 1201.89 846.262 1190.87 796.492 1187.33C729.561 1182.61 702.96 1164.5 663.916 1097.99C637.315 1051.55 638.173 1042.49 673.784 1011.4C687.514 999.596 700.814 986.215 702.959 982.279C705.963 977.556 706.821 956.697 705.534 926.786C703.389 889.003 704.247 876.803 709.395 867.751C713.257 861.06 717.547 848.072 719.263 838.627C720.98 829.181 725.27 815.406 728.273 808.322C731.706 801.238 734.28 790.611 734.28 785.101C734.28 770.539 739 774.869 760.881 809.503C788.34 852.401 816.229 885.461 857.846 923.637C894.745 957.484 911.048 967.323 945.801 975.982C984.416 985.427 996 972.833 996 922.063C996 896.875 994.284 889.003 984.845 874.048C970.686 851.614 944.514 822.49 919.629 801.238C902.467 786.676 866.427 750.467 787.911 667.425C722.267 598.157 699.956 563.129 705.963 540.696C708.966 529.676 733.851 513.933 762.168 504.487C792.631 494.648 799.925 482.841 800.354 445.846C800.783 418.296 799.066 412.786 786.624 393.108C775.469 374.61 769.462 369.887 753.158 363.984C725.699 354.538 697.811 357.687 670.781 373.429C636.028 393.895 620.153 410.425 613.717 432.858C607.711 454.898 610.714 454.504 566.951 439.549C542.066 431.284 519.756 413.967 519.756 403.734C519.756 396.256 545.928 378.152 581.539 360.835C616.721 343.518 647.183 317.543 653.19 299.438C655.764 291.174 657.051 275.824 656.193 265.198C654.048 243.552 635.17 195.536 624.873 184.91C618.008 177.826 592.265 168.38 560.515 160.902C542.924 156.573 469.557 159.722 453.253 165.232C444.672 167.987 388.467 164.051 384.176 160.115C382.889 158.935 385.034 154.605 389.325 150.276C402.625 135.714 416.355 101.08 416.784 80.6146C416.784 42.4386 402.625 17.6438 377.74 12.9209C371.305 11.7402 363.153 8.19812 360.578 5.44312C353.285 -2.42822 318.532 -1.64111 303.086 7.01746ZM336.123 213.247C339.984 216.002 345.991 227.022 349.423 238.042L355.43 257.72L339.126 287.631C330.545 303.768 314.241 328.956 303.515 343.518C292.789 357.687 279.488 378.152 273.481 388.778C267.904 399.011 259.752 410.031 256.319 412.786C252.458 415.935 249.455 420.657 249.455 423.806C249.455 426.955 233.151 460.014 213.415 497.01C193.249 534.399 170.081 579.265 161.929 597.369C137.044 651.288 100.146 710.717 73.9736 739.054C60.6731 753.616 38.7916 779.591 26.3492 796.908C-10.12 846.892 -57.3154 899.236 -58.6025 891.758C-59.4606 888.216 -57.7444 876.016 -55.1701 864.996C-50.0215 842.169 -30.2853 815.406 18.1973 766.604C67.1088 717.408 102.72 643.81 98.4294 602.092C97.1423 589.498 95.8551 588.317 83.4127 588.317C75.6898 588.317 65.8217 584.775 59.815 580.052C54.6664 575.33 44.7983 568.639 38.3625 564.703C24.633 556.832 19.4844 545.025 26.3492 537.154C34.0721 528.495 36.2173 529.282 65.3927 550.928C98.0004 574.936 110.014 576.117 128.034 557.619C158.067 526.134 206.979 394.682 215.56 321.478C220.708 280.547 229.289 263.624 258.894 237.255C289.356 210.099 318.961 201.046 336.123 213.247ZM601.275 243.945C611.572 249.062 622.727 269.527 622.727 283.696C622.727 298.258 600.846 317.543 565.664 334.466C488.864 371.461 471.273 399.011 501.306 435.219C513.32 450.175 542.066 464.344 583.255 476.544L614.146 485.596V507.242C614.146 531.644 621.869 576.904 627.876 587.137C631.737 594.614 625.302 597.369 620.582 590.679C616.292 584.382 527.478 529.282 499.59 515.901C474.705 503.7 451.108 480.873 451.108 469.066C451.108 466.311 448.533 460.014 445.101 455.291C434.375 440.336 421.503 388.778 426.223 378.152C428.368 372.642 429.226 366.345 427.939 363.197C426.652 360.048 446.388 343.125 478.138 319.904C506.455 298.651 539.063 274.25 549.789 265.198C579.393 240.403 587.545 237.255 601.275 243.945ZM414.639 484.415C442.098 516.688 457.972 530.069 483.286 541.876C527.049 562.735 596.555 610.357 629.163 642.236C668.207 680.412 672.926 686.316 676.358 704.42C678.504 717.014 677.646 718.588 664.774 724.098C651.474 729.608 650.616 731.576 648.041 753.616C646.754 766.604 642.464 783.134 638.173 789.824C630.45 803.599 619.295 805.96 589.262 800.451C561.802 795.334 559.657 746.532 584.971 710.323C597.413 692.613 599.13 687.497 599.13 661.915C599.13 634.365 598.272 632.397 585.829 621.771C575.103 613.112 566.522 610.357 542.924 607.996C511.175 604.847 512.891 604.06 489.722 633.184C484.574 640.268 476.422 641.843 443.814 644.598C421.932 646.172 403.912 646.565 403.912 644.991C403.912 643.81 411.635 634.365 421.074 624.526C441.24 603.667 443.385 588.317 428.797 570.213C415.068 553.29 402.625 548.173 366.156 545.025C347.707 543.451 333.977 540.302 332.69 537.154C330.116 530.856 349.852 482.841 360.578 468.673C374.308 451.356 390.183 456.078 414.639 484.415ZM550.647 672.147C550.218 683.167 546.357 699.697 542.924 709.143C539.063 718.588 535.201 742.202 533.914 762.274C531.769 791.792 532.627 800.451 538.634 808.322C550.647 825.639 569.525 831.542 610.714 831.936C647.612 832.33 647.612 832.329 650.186 843.349C654.906 864.996 647.612 872.08 613.288 879.558C583.684 885.855 580.681 885.855 557.083 879.558C543.782 876.016 530.911 870.112 528.766 866.57C520.614 851.614 515.036 807.535 515.894 767.391C517.181 718.588 514.178 712.291 491.009 712.291C455.398 712.291 429.226 757.945 420.645 834.297C416.355 869.325 409.49 885.461 398.764 885.461C397.048 885.461 395.331 865.389 395.331 840.988C395.331 807.141 397.906 787.856 406.058 757.552C412.064 735.905 416.784 714.653 416.784 709.93C416.784 695.761 442.098 681.593 477.709 675.296C487.148 673.722 502.165 666.244 513.749 656.798C532.198 642.236 534.343 641.449 542.924 646.959C550.218 651.682 551.934 655.617 550.647 672.147ZM812.796 739.841C834.249 762.668 869.431 797.302 890.883 816.587C912.765 836.265 937.649 862.634 947.088 875.228C962.105 896.088 963.821 901.204 963.821 922.457V946.464L951.379 945.284C929.497 942.922 913.623 932.689 873.292 894.907C834.249 857.911 814.512 833.51 772.465 769.359L748.868 733.938L750.584 704.42L752.3 674.902L763.026 686.709C769.033 693.4 791.344 717.014 812.796 739.841ZM362.295 713.078C360.149 729.608 351.997 775.656 334.835 863.815C324.538 917.734 327.113 940.167 345.133 959.058L358.004 972.44L344.275 984.247C336.552 990.544 329.687 995.66 329.258 995.66C328.4 995.66 326.684 975.982 324.967 951.974C321.964 903.172 316.386 889.397 295.363 877.196C277.343 866.964 258.036 869.719 233.151 885.855L213.844 898.449L216.847 883.887C221.566 861.454 240.445 822.49 256.749 802.812C273.91 781.559 357.575 696.549 361.866 696.549C363.153 696.549 363.582 704.026 362.295 713.078ZM202.688 711.504C200.543 715.046 184.239 735.512 167.077 756.764C146.054 782.346 121.598 820.522 92.8518 872.867C69.2541 915.372 39.2207 968.898 25.4911 991.725C7.90007 1021.64 -0.680893 1042.1 -6.25853 1065.32C-10.12 1083.43 -14.8395 1097.99 -16.5557 1097.99C-21.7043 1097.99 -50.8796 1041.71 -53.4539 1026.75C-55.1701 1018.09 -52.5958 1001.96 -47.4473 984.247C-40.1534 960.633 -34.5758 951.974 -14.4105 931.902C-1.10995 918.915 18.6263 896.481 29.7816 881.919C51.6631 853.582 117.737 776.443 143.48 748.5C174.8 715.046 215.989 689.071 202.688 711.504ZM489.722 850.04C496.587 877.196 504.31 891.758 515.894 897.662C528.337 903.565 522.759 907.107 486.29 914.979C468.699 918.915 445.959 925.999 435.662 931.115L416.784 940.561L423.22 928.754C426.652 922.457 429.655 914.979 429.655 912.224C429.655 909.469 434.375 898.449 440.382 887.823C447.246 875.622 451.108 861.847 451.108 850.434C451.108 827.213 460.976 785.101 470.844 765.029L478.567 749.68L481.57 789.037C482.857 810.683 486.719 838.233 489.722 850.04ZM176.945 834.691C170.939 893.726 177.374 917.734 199.685 924.818C216.418 929.934 231.435 925.605 250.313 911.043C275.198 891.758 285.924 898.843 292.36 938.986C309.522 1049.97 273.481 1186.15 208.266 1257.38C185.097 1282.18 180.807 1284.93 164.932 1286.11C148.628 1287.29 146.054 1286.11 128.463 1267.22C101.433 1239.28 89.8484 1216.45 91.5646 1195.59L92.8518 1178.67L114.304 1176.7C155.922 1172.37 173.084 1158.2 204.405 1101.53C226.286 1060.99 236.583 1024 236.583 983.853C236.583 960.633 235.296 955.516 227.144 948.432C215.56 938.593 199.685 940.561 188.101 953.548C119.882 1028.72 101.004 1046.82 92.4227 1045.25C79.1222 1042.1 70.1122 1050.37 61.5312 1073.19C57.2407 1084.61 52.0921 1092.87 50.805 1091.3C45.2273 1086.57 47.8016 1030.69 53.8083 1018.09C95.4261 929.147 174.371 787.856 179.52 792.579C180.378 793.366 179.091 812.258 176.945 834.691ZM645.896 940.167C654.477 945.284 661.342 951.187 661.342 953.548C661.342 956.303 654.048 969.685 645.467 983.853C615.004 1034.23 612.43 1040.13 612.859 1058.24C613.288 1076.74 630.021 1132.62 645.038 1164.5L653.19 1182.61L644.18 1189.3C633.883 1196.77 632.595 1196.38 589.691 1178.28C563.089 1166.86 557.083 1162.53 549.36 1147.97C544.211 1138.92 536.918 1127.9 532.627 1123.57C528.337 1119.24 519.756 1106.65 513.749 1095.63L502.165 1075.55L464.837 1073.19C443.814 1071.62 419.787 1067.68 410.777 1064.53C401.767 1060.99 383.747 1057.06 370.447 1055.48C349.852 1053.12 345.991 1051.55 344.704 1044.07C342.129 1028.72 356.288 1011.4 385.892 994.086C439.952 962.207 465.266 951.187 508.6 940.167C563.948 925.999 621.011 925.999 645.896 940.167ZM202.259 1016.13C196.253 1048.4 162.358 1118.06 145.196 1132.62C134.899 1141.67 134.899 1141.67 108.727 1134.98L82.1255 1128.29L91.1356 1113.73C109.156 1084.61 200.972 981.492 205.692 985.821C206.55 986.608 205.263 1000.38 202.259 1016.13ZM361.436 1095.63C372.163 1104.29 385.892 1115.7 391.899 1120.42C406.058 1131.05 411.206 1156.24 403.483 1173.95C400.48 1181.03 391.041 1194.02 382.889 1203.07C370.017 1217.24 365.298 1219.99 351.997 1219.99C343.416 1219.99 324.538 1216.06 310.38 1210.94L284.208 1201.89L292.36 1185.75C298.795 1172.37 309.951 1132.62 320.677 1083.03C323.251 1070.44 335.694 1074.37 361.436 1095.63Z" fill="url(#paint0_linear_564_178)"/>
<defs>
<linearGradient id="paint0_linear_564_178" x1="448" y1="500.261" x2="444.574" y2="896.978" gradientUnits="userSpaceOnUse">
<stop stop-color="#FFFDFD"/>
<stop offset="1" stop-color="#FF0000"/>
</linearGradient>
</defs>
</svg>
