<svg width="1440" height="3371" viewBox="0 0 1440 3371" fill="none" xmlns="http://www.w3.org/2000/svg">
<path opacity="0.2" d="M148.343 42.9603C132.713 75.3189 129.177 97.2223 133.376 142.233C140.706 219.185 183.481 274.975 290.202 345.344L372.36 398.801L513.054 394.207C661.266 390.9 825.166 361.054 864.261 329.626C895.925 305.64 1026.79 256.161 1068.99 253.764C1099.93 251.619 1102.77 254.466 1106.01 296.588C1114.74 420.068 959.595 481.728 718.154 450.74C655.204 441.96 650.528 443.519 636.774 475.836C611.995 531.678 619.051 580.991 656.068 623.815C674.107 645.237 689.375 671.086 689.476 681.269C689.692 703.089 581.469 765.158 541.133 766.058C526.124 766.393 501.633 756.755 487.447 745.431C472.323 734.129 450.647 724.427 440.329 724.657C429.072 724.909 403.644 715.291 383.815 702.639C329.047 667.486 230.422 656.591 199.697 680.557C168.062 707.452 165.407 723.516 165.26 898.119C164.089 1064.01 147.751 1214.24 123.895 1268.61C100.962 1321.5 68.6335 1467.72 69.138 1518.64C70.1036 1616.1 111.276 1699.57 186.911 1757.54C242.674 1798.49 264.264 1799.46 303.287 1760.76C346.034 1719.07 356.57 1646.08 354.163 1403.15C352.376 1222.77 353.964 1193.64 372.206 1140.85C397.708 1063.17 424.551 1026.19 486.016 979.717C540.034 939.227 613.101 927.412 646.207 954.318C669.845 972.706 661.633 996.169 631.616 996.839C596.908 997.613 469.057 1067.39 448.708 1096.95C438.534 1111.73 431.318 1140.99 431.606 1170.08C432.298 1239.9 455.893 1253.93 575.993 1254.16C676.394 1254.83 704.651 1265.84 705.083 1309.48C705.299 1331.3 697.809 1332.92 533.679 1339.49C436.135 1343.12 430.55 1347.61 418.153 1422.09C407.602 1493.62 455.038 1546.4 549.045 1564.67C608.272 1576.45 661.077 1602.91 661.265 1621.82C661.308 1626.19 646.313 1627.98 629.4 1625.44C598.386 1620.32 595.615 1624.74 578.369 1683.33C568.396 1718.47 553.964 1776.99 545.882 1813.55C528.837 1892.5 508.574 1930.78 482.309 1931.37C471.052 1931.62 415.866 1948.85 359.784 1970.47C268.186 2005.98 240.074 2009.52 101.213 2009.71C-19.8246 2009.5 -58.256 2013.27 -69.3541 2029.52C-93.4408 2060.61 -87.308 2111.4 -55.9343 2152.89C-2.74032 2218.64 54.6395 2233.36 256.379 2234.68C357.703 2233.87 445.014 2239.2 450.685 2243.44C471.524 2263.34 460.585 2295.6 400.462 2382.78C358.84 2443.37 326.34 2477.56 300.175 2488.33C246.922 2511.34 235.752 2520.32 141.123 2628.64C95.6771 2682.04 16.793 2769.64 -32.405 2823.12C-141.928 2943.42 -176.16 2992.2 -184.098 3043.3C-194.649 3114.83 -174.805 3128.94 -79.2104 3118.07C120.408 3094.7 189.55 3065.52 259.024 2975.21C280.326 2947.09 300.747 2924.81 305.437 2924.71C310.127 2924.6 336.898 2880.36 365.43 2824.43C471.332 2622.73 648.079 2374.35 738.364 2301.04C824.925 2230.72 1032.93 2201.35 1118.77 2247.45C1156.49 2266.98 1165.05 2278.43 1174.89 2324.77C1181.76 2355.17 1183.98 2390.04 1180.39 2406.12C1175.84 2420.77 1173.19 2436.84 1174.17 2441.18C1175.16 2446.98 1162.61 2505.46 1146.38 2572.75C1121.14 2676.62 1111.07 2701.58 1076.74 2740.17C1037.77 2784.69 1035.89 2784.74 931.726 2782.69C836.002 2780.47 824.774 2783.63 801.596 2811.79C782.128 2835.5 776.701 2855.99 777.105 2896.72C777.581 2944.73 785.272 2963.47 844.311 3050.91C902.411 3138.37 911.041 3157.09 911.502 3203.64C912.194 3273.46 939.902 3323.77 992.75 3354.6C1035.21 3378.39 1036.15 3378.37 1098.61 3337.69C1220.76 3260.76 1214.32 3274 1334.92 2850.81C1346.71 2809.81 1366.65 2739.53 1380.26 2692.66C1393.87 2645.8 1416.82 2594.36 1430.72 2576.59C1445.57 2560.26 1459.35 2530.85 1461.99 2513.33C1464.62 2494.36 1492.22 2439.91 1522.7 2391.21C1554.12 2342.5 1578.01 2291.04 1577.85 2275.04C1577.68 2257.58 1551.86 2208.69 1512.85 2154.27C1456.7 2074.04 1438.7 2056.98 1364.22 2020.81C1281.26 1980.47 1275.61 1979.14 1117.12 1987.04C936.109 1993.99 923.871 1989.9 871.385 1900.86C836.072 1840.54 834.946 1821.65 862.699 1781.74C891.36 1738.91 924.9 1714.88 1032.23 1657.2C1191.84 1573.61 1249.41 1512.67 1237.48 1444.55C1230.51 1403.97 1205.93 1385.6 1108.01 1351.41C1043.06 1329.58 1040.2 1325.28 1060.68 1308.82C1071.83 1298.39 1105.4 1277.27 1134.32 1260.62C1190.3 1228.81 1201.42 1214.02 1200.9 1161.65C1200.38 1109.28 1169.08 1075.06 1112.69 1066.13C1054.42 1055.79 1030.81 1040.31 1044.66 1018.18C1060.38 994.548 1142.57 956.339 1198.75 944.901L1252.13 934.98L1265.13 1110.74C1272.65 1206.61 1276.33 1293.82 1272.68 1304.09C1261.69 1331.98 1271.78 1781.35 1284.59 1843.63C1306.31 1952.27 1370.43 1984.3 1446.77 1924.4C1500.78 1882.45 1524.47 1812.08 1547.09 1632.62C1568 1470.65 1595.24 1378.37 1667.89 1229.8C1723.98 1115.06 1734.84 1074.07 1733.97 986.794C1733.21 909.697 1732.24 906.808 1677.98 827.994C1633.26 764.972 1608.64 742.242 1552.07 714.404C1487.01 682.391 1467.28 679.921 1273.06 679.889C1057.27 680.339 1029.02 670.784 1107.4 626.84C1140.98 607.176 1189.65 594.45 1438.69 540.879C1549.18 518.044 1565.03 507.506 1583.26 453.265C1648.76 246.649 1474.91 29.3689 1231.74 12.9692C1133.15 6.43881 1018.94 32.2668 791.745 112.995C717.884 139.378 652.322 151.026 562.297 155.944C422.571 163.427 417.851 160.622 308.937 58.2922C231.282 -14.1799 178.693 -18.8265 148.343 42.9603ZM1439.84 182.926C1471.02 205.51 1493.84 235.556 1506.37 268.741C1523.74 317.823 1523.76 319.278 1504.55 369.176C1493.56 397.066 1473.23 428.074 1459.26 438.571C1445.29 449.068 1363.91 474.163 1277.81 496.454C1128.05 533.26 1055.16 562.531 1029.23 596.575C1022.76 606.904 1017.48 641.942 1017.82 676.854C1018.54 749.587 1022.33 752.413 1121.82 756.013L1182.83 759.017L1127.75 786.436C1096.94 801.673 982.391 888.618 873.504 978.347C699.471 1121.91 667.794 1144.44 607.874 1157.42C521.746 1176.8 487.976 1177.55 487.832 1163.01C487.659 1145.55 544.621 1118.09 636.305 1091.31C724.251 1066.07 740.963 1048.23 773.695 942.744C809.155 828.463 874.287 678.601 908.519 629.822C926.112 606.15 978.239 564.247 1025.82 536.996C1118.17 482.556 1199.92 400.707 1218.12 343.557C1224.49 323.045 1229.64 274.915 1229.27 237.093C1228.69 178.906 1232.31 165.731 1250.02 153.696C1287.28 126.674 1387.84 143.346 1439.84 182.926ZM376.122 778.47C444.007 811.875 494.041 842.768 494.142 852.951C494.186 857.315 475.626 878.099 452.362 897.533C400.264 942.345 354.139 1021.94 322.302 1123.05C298.648 1197.78 297.796 1206.53 305.919 1363.49C314.388 1555.36 303.274 1664.73 271.712 1698.9C252.2 1718.25 246.557 1716.92 200.204 1678.67C165.207 1650.35 144.267 1620.26 131.698 1582.71C114.294 1530.72 114.251 1526.36 129.405 1446C137.401 1400.71 154.59 1336.31 167.391 1302.56C200.267 1211.62 214.094 1092 213.303 917.417C212.467 833.046 214.546 758.795 219.179 752.871C228.401 736.661 320.503 752.066 376.122 778.47ZM1577.28 891.351C1616 916.677 1633.38 967.214 1626.57 1037.21C1623.15 1070.75 1615.08 1108.76 1607.69 1120.56C1601.26 1133.8 1591.34 1174.76 1586.1 1214.16C1580.85 1252.11 1562.84 1328.17 1545.55 1382.39C1524.61 1446.88 1508.5 1525.81 1499.97 1611.84C1482.82 1775.18 1457.22 1842.68 1404.94 1868.59C1372.26 1885.32 1364.74 1884.03 1352.36 1865.39C1308.56 1800.9 1305.07 1448.87 1342.41 1050.82C1355.13 913.767 1369.03 895.997 1470.27 886.463C1514.34 884.025 1550.88 878.845 1551.8 877.369C1552.73 875.894 1564.04 881.461 1577.28 891.351ZM1039.32 1141.97C1064.76 1153.04 1046.49 1202.92 988.188 1284.25C953.941 1331.57 911.309 1384.9 892.707 1401.32C862.025 1429.65 855.458 1429.8 828.082 1412.95C801.629 1394.62 798.757 1388.87 803.015 1345.12C814.865 1215.36 898.324 1116.02 983.831 1128.66C1008.26 1132.48 1032.71 1137.75 1039.32 1141.97ZM676.29 1433.79C697.981 1444.95 708.444 1459.27 712.47 1486.82C715.5 1508.58 720.478 1537.57 723.422 1550.6C729.382 1583.93 732.196 1583.87 666.028 1534.42C632.937 1508.97 596.18 1492.33 574.605 1492.81C536.144 1493.67 462.587 1456.02 462.4 1437.11C462.328 1429.84 467.87 1420.98 474.393 1416.47C491.162 1404.46 639.533 1417.15 676.29 1433.79ZM1112.57 1432.79C1152.11 1446.46 1185.1 1461.73 1185.15 1466.09C1185.28 1479.18 1087.43 1546.84 1026.74 1577.3C983.796 1598.62 927.83 1631.88 870.046 1671C844.877 1687.57 928.337 1493.65 962.656 1453.6C1006.25 1403.15 1015.62 1401.49 1112.57 1432.79ZM786.498 1950.77C799.76 1963.57 820.642 1987.84 833.948 2005C888.166 2079.45 936.18 2095.84 1099.47 2099.47C1257.12 2101.77 1314.49 2115.04 1385.41 2170.21C1431.73 2205.55 1439.57 2238.84 1420.5 2303.28C1401.42 2366.27 1283.22 2558.06 1268.13 2549.67C1262.47 2546.88 1249.37 2550.08 1240.06 2557.57C1211.21 2581.49 1207.21 2556.84 1226.09 2473.49C1244.06 2393.06 1244.03 2390.15 1226.38 2313.43C1203.84 2216.45 1193.38 2202.13 1117.01 2164.55C1063.25 2136.65 1043.52 2134.18 956.369 2144.86C825.157 2159.43 714.971 2212.81 602.447 2314.26C553.163 2359.01 505.797 2408.08 495.652 2425.77C474.451 2464.07 348.982 2584.72 263.3 2649.2C227.914 2676.18 182.281 2710.66 163.678 2727.08C144.123 2742.07 128.277 2752.61 128.248 2749.7C128.047 2729.33 278.527 2576.11 307.534 2568.19C348.679 2554.17 398.786 2497.77 469.906 2384.14C521.616 2300.06 528.731 2260.61 501.86 2200.1C491.297 2175.6 489.248 2158.19 496.55 2137.66C512.945 2087.82 631.748 1957.13 692.39 1922.31C711.973 1910.24 758.097 1925.21 786.498 1950.77ZM1218.82 3065.83C1202.5 3122.94 1178.69 3181.67 1166.65 3197.95C1141.61 3227.6 1108.87 3237.07 1108.62 3212.34C1108.25 3174.51 1151.27 3065.89 1194.67 2995.08C1252.83 2899.21 1260.55 2920.86 1218.82 3065.83Z" fill="url(#paint0_linear_564_165)"/>
<defs>
<linearGradient id="paint0_linear_564_165" x1="753.429" y1="-12.2488" x2="829.007" y2="3375.3" gradientUnits="userSpaceOnUse">
<stop stop-color="#FFFBFB"/>
<stop offset="1" stop-color="#FF0000"/>
</linearGradient>
</defs>
</svg>
