<svg width="290" height="304" viewBox="0 0 290 304" fill="none" xmlns="http://www.w3.org/2000/svg">
<path d="M158.089 1.90814C155.159 2.9729 149.593 6.16714 145.784 9.05719C141.976 11.9473 135.677 16.2063 131.869 18.64C125.717 22.7469 111.215 32.6339 73.1303 58.3401C65.5134 63.5118 53.0626 71.7256 45.4457 76.7452C26.6963 88.9138 21.8624 93.9333 21.8624 100.626C21.8624 106.406 25.8174 110.817 31.0907 110.817C35.3386 110.817 45.2992 104.125 55.5528 94.0854C60.6795 89.0659 65.5134 84.959 65.9528 84.959C66.5387 84.959 66.8317 89.9785 66.8317 95.9107C66.6852 108.536 69.4683 115.989 75.3275 118.727C77.3782 119.64 78.9895 120.856 78.9895 121.465C78.9895 122.53 59.0683 130.743 51.4513 132.873C49.4006 133.481 45.1527 132.873 41.3442 131.352C35.6315 129.07 34.0202 128.918 28.8935 130.743C22.0089 133.025 13.2201 142.76 5.45671 156.602C-0.841917 167.553 -1.57432 174.246 2.6736 182.308C5.89615 188.849 15.2708 193.108 20.6906 190.37C22.5948 189.457 28.0146 186.719 32.8484 184.437C41.9301 179.874 50.8654 171.508 63.4627 155.841C71.9585 145.346 80.3078 139.566 100.961 130.287C117.514 122.682 119.564 122.377 158.089 119.031C193.244 116.141 219.61 116.445 219.61 119.792C219.61 120.248 216.68 121.921 213.165 123.442C209.503 124.963 202.911 129.983 198.517 134.394L190.314 142.456L177.863 141.391C164.534 140.022 161.165 138.045 161.018 131.2C161.018 125.42 156.477 122.986 146.077 122.986C137.874 122.986 134.945 123.746 127.181 128.005C119.271 132.417 117.66 133.938 116.781 138.349C116.195 141.239 116.195 145.042 116.488 146.715C117.66 151.278 112.094 154.472 87.0459 164.055C64.1951 172.877 58.4824 176.984 58.4824 184.742C58.4824 191.587 61.5584 193.564 72.2514 193.564C79.4289 193.564 83.3839 192.499 91.2938 188.696C96.86 185.959 102.133 183.829 103.305 183.829C108.432 183.829 95.6882 203.147 87.7783 207.406C85.4346 208.623 81.7726 212.882 79.5754 216.989C71.0796 232.199 53.502 252.886 28.454 277.071C18.054 287.11 9.41166 296.541 9.41166 297.758C9.41166 301.713 15.4173 300.8 23.6202 295.628C27.8681 292.89 36.3639 288.023 42.3696 284.829C55.4063 277.832 68.8824 264.902 84.2628 245.281C90.2684 237.523 95.8347 230.678 96.5671 230.222C97.4459 229.613 100.376 231.287 103.012 233.72C105.795 236.154 108.871 238.588 109.897 238.892C112.973 239.957 104.477 250.3 95.2487 256.841C90.7079 260.035 85.7276 263.99 84.2628 265.815C82.6515 267.64 78.9895 270.53 76.2064 272.356C67.2711 277.984 51.7443 291.521 49.84 295.476C47.9358 298.975 48.5217 302.473 51.1584 302.473C54.088 302.473 75.181 288.783 90.5614 276.919C112.094 260.187 120.443 255.32 128.353 255.32C131.722 255.32 134.798 255.928 135.384 256.689C135.824 257.449 138.021 258.514 140.364 259.122C142.708 259.579 145.491 261.1 146.517 262.469C150.179 266.88 182.404 290.761 191.339 295.476C198.956 299.431 220.342 303.994 231.768 303.994C243.047 303.994 240.85 304.755 268.681 288.935C286.991 278.44 293.582 272.052 288.163 270.226C287.137 269.77 282.45 270.835 277.762 272.356C270.585 274.637 265.605 274.942 246.562 274.333C219.61 273.573 201.154 271.139 196.32 267.945C194.415 266.576 190.021 263.077 186.799 260.035C183.43 256.993 177.57 251.821 173.469 248.475C169.514 245.128 165.266 241.326 164.241 239.805C163.215 238.284 161.751 237.067 161.018 237.067C160.286 237.067 157.503 235.698 155.012 234.177L150.472 231.287L156.038 224.898C161.458 218.662 180.5 204.668 185.92 202.842C187.384 202.386 189.435 199.648 190.314 196.758C192.218 190.826 191.046 187.327 184.601 180.331L180.793 176.072L186.799 177.136C192.365 178.049 193.244 177.593 197.638 172.725C201.447 168.314 203.79 167.097 211.407 165.728C216.534 164.816 224.004 164.055 228.252 164.055C238.066 164.055 245.244 160.252 253.74 150.365C261.796 141.087 265.019 129.679 262.089 120.704C260.038 114.316 248.174 104.885 235.869 100.018C224.737 95.4544 195.88 94.2375 180.06 97.5839C174.055 98.9529 168.928 99.7134 168.635 99.4092C168.342 99.105 170.539 97.1276 173.762 95.1502C177.57 92.5644 182.258 91.1954 188.556 90.587C200.861 89.5222 204.962 86.6322 204.962 79.0268C204.962 68.8356 201.3 62.5991 191.779 56.2106C186.945 53.0163 180.5 49.8221 177.57 49.2137L172.004 48.1489L177.57 43.1293C180.939 40.0872 182.99 36.8929 182.99 34.6113C182.99 31.8734 184.308 30.3523 188.849 28.3749C194.269 26.0933 194.708 25.4848 194.708 19.7047C194.708 13.3162 192.365 10.5783 184.601 8.14456C182.844 7.53613 178.889 5.40662 176.106 3.42923C170.246 -0.677704 165.705 -0.981903 158.089 1.90814ZM160.286 10.4262C157.649 13.4683 143.441 22.5948 141.39 22.5948C139.193 22.5948 142.415 19.4005 150.911 13.6204C160.579 6.9277 164.534 5.55872 160.286 10.4262ZM171.272 39.0224C171.272 40.8477 155.305 53.6248 148.274 57.4275C145.198 59.2528 141.097 61.9907 138.9 63.816C136.849 65.4892 131.429 67.4666 126.449 68.2271C115.17 69.9003 110.043 72.0298 104.623 77.2015C97.8854 83.7421 93.6375 86.1758 90.7079 85.4153C89.2431 84.959 87.6318 85.4153 87.1924 86.3279C85.7276 88.6096 73.1303 88.4575 73.1303 86.1758C73.1303 85.2632 76.6458 80.8521 80.8937 76.7452C87.3389 70.2045 92.1727 67.3145 112.24 58.6443C125.277 52.8642 143.587 45.8673 153.255 43.1293C162.776 40.3914 170.686 38.1098 170.979 37.9577C171.125 37.8056 171.272 38.414 171.272 39.0224ZM84.8487 60.3175C82.798 61.6865 78.843 65.0329 76.0599 67.4666C73.2768 70.0524 68.2965 74.1593 65.0739 76.593C61.8514 79.0268 54.6739 85.4153 49.1077 90.7391C37.3893 101.843 32.116 105.189 29.0399 103.06C27.2822 101.843 27.4287 101.387 29.6259 99.5613C30.9442 98.4966 32.116 96.3671 32.116 94.9981C32.116 93.6291 32.7019 92.5644 33.4343 92.5644C34.7526 92.5644 46.3245 84.8069 73.8627 65.6413C80.3078 61.2302 86.167 57.5796 87.0459 57.7317C87.7783 57.7317 86.8994 58.9485 84.8487 60.3175ZM161.018 65.4892L164.387 70.3566L160.286 78.5704C156.77 85.5674 148.86 94.0854 145.931 94.0854C143.88 94.0854 145.052 88.0011 148.714 77.0494C155.159 58.3401 155.598 57.8838 161.018 65.4892ZM140.657 81.1563C138.9 86.7843 137.581 93.3249 137.581 95.7586C137.581 99.105 136.263 100.93 132.162 103.972C129.086 106.102 126.009 107.775 125.131 107.775C124.398 107.775 122.201 104.429 120.297 100.474C117.807 95.1502 116.928 91.3475 117.367 85.7195L117.807 78.1141L124.398 78.5704C129.818 79.0268 132.162 78.2662 136.849 74.6156C140.072 72.1819 142.855 70.3566 143.148 70.5087C143.441 70.813 142.269 75.5283 140.657 81.1563ZM112.973 99.7134C114.731 103.82 116.488 107.471 116.635 107.927C117.514 109.6 106.674 114.316 105.356 112.795C103.598 111.122 106.967 92.5644 108.871 92.5644C109.311 92.5644 111.069 95.7586 112.973 99.7134ZM91.8797 96.6713L99.4967 97.5839L98.6178 107.015C97.7389 115.685 97.8854 116.597 100.961 118.879C104.184 121.161 104.038 121.313 92.7586 126.637C81.3332 132.264 77.0853 133.025 83.9698 128.31C89.0966 124.811 88.8036 122.377 82.6515 115.837C79.8684 112.795 77.5247 109.448 77.5247 108.536C77.5247 107.471 76.4994 105.798 75.3275 104.733C70.4937 100.474 74.1557 93.1728 80.4543 94.846C82.505 95.3023 87.6318 96.215 91.8797 96.6713ZM224.444 103.972C234.99 106.254 245.976 111.73 252.275 117.814C258.281 123.594 257.841 132.112 250.81 140.935C240.996 153.407 231.328 156.906 228.106 149.148C227.08 146.867 224.737 142.912 222.833 140.174C218.585 134.242 219.024 130.439 224.444 127.853C228.399 125.876 231.035 119.944 229.131 116.902C225.762 111.122 195.88 108.536 167.756 111.426C156.917 112.49 154.866 112.49 155.452 110.665C155.891 109.448 159.407 107.927 163.362 107.319C198.37 101.082 209.063 100.626 224.444 103.972ZM155.159 138.045C155.891 139.718 156.624 142.608 156.624 144.585C156.624 150.67 159.26 151.886 172.297 151.886C183.43 151.886 184.894 152.191 188.117 155.689C191.925 159.492 192.804 164.663 190.461 168.466C189.289 170.444 187.97 170.444 180.793 168.618C176.252 167.401 169.66 164.663 166.291 162.534C156.77 156.145 153.841 155.993 144.026 160.861C135.091 165.272 132.601 167.858 123.812 181.547C119.711 188.088 108.432 198.279 107.114 196.758C106.821 196.454 107.26 195.085 108.139 193.412C108.871 191.891 113.412 182.004 118.246 171.508C123.959 159.035 128.353 151.278 131.136 149.148C150.325 133.786 152.376 132.873 155.159 138.045ZM48.2288 139.566L54.8204 140.478L41.6372 149.453C32.116 155.993 26.2568 158.883 20.6906 159.948C16.4427 160.709 12.4877 161.013 12.0483 160.404C10.73 159.188 20.1047 144.737 25.2315 140.326C29.1864 136.98 30.6512 136.524 35.778 137.436C39.0006 138.045 44.5668 138.957 48.2288 139.566ZM215.216 144.281C221.221 148.692 221.807 152.951 216.387 154.016C202.179 156.906 197.931 151.582 207.892 143.216C210.675 140.783 210.382 140.783 215.216 144.281ZM163.215 168.466C168.049 170.9 173.615 173.638 175.666 174.398C178.156 175.311 174.934 175.767 164.68 175.615C156.624 175.463 146.956 176.224 143.001 177.136C131.283 180.026 132.308 174.55 144.759 167.858C148.421 165.88 152.229 164.207 152.962 164.055C153.841 164.055 158.382 166.032 163.215 168.466ZM152.229 194.477C152.229 196.758 140.072 208.166 137.581 208.166C134.798 208.166 124.398 201.017 124.398 199.04C124.398 196.91 137.435 193.108 145.345 193.108C149.153 192.955 152.229 193.564 152.229 194.477ZM128.793 215.011C130.99 216.38 136.702 217.141 143.294 217.293H154.28L149.593 222.312C142.269 230.222 144.026 236.763 154.866 241.782C157.503 242.999 159.553 244.368 159.553 244.824C159.553 245.281 163.655 249.083 168.782 253.038C173.762 257.145 180.939 263.381 184.894 267.032C188.703 270.835 194.123 274.789 197.052 276.006C202.618 278.44 230.449 281.026 251.543 281.178C265.312 281.178 267.655 282.091 261.65 285.133C259.892 286.198 254.179 289.392 248.906 292.434C235.869 299.887 229.864 299.887 202.618 292.434C194.415 290.152 174.201 276.919 157.356 263.077C139.779 248.475 128.939 245.433 116.195 251.365L108.139 255.168L113.412 248.627C116.195 244.976 118.539 241.022 118.539 239.653C118.539 238.436 115.316 234.937 111.215 231.895C107.26 228.853 103.891 225.507 103.891 224.594C104.038 222.008 109.897 217.597 116.781 215.011C123.666 212.425 124.398 212.425 128.793 215.011Z" fill="#F82424"/>
</svg>
