<svg width="82" height="95" viewBox="0 0 82 95" fill="none" xmlns="http://www.w3.org/2000/svg">
<path d="M32.8061 0.501244C31.5572 1.20405 30.1256 2.77832 29.6382 3.95902C29.3945 4.46503 28.8158 5.73007 28.3588 6.77022C27.4755 8.68183 27.1404 11.2119 27.5669 12.8143C27.7801 13.6295 27.7192 13.742 26.653 14.3323C26.0134 14.6697 24.399 15.4006 23.0587 15.9066C21.7184 16.4408 19.8299 17.3122 18.8551 17.8745L17.0884 18.8865L14.682 18.521C12.5193 18.2118 12.1538 18.2118 10.844 18.6897C10.052 18.9708 9.07727 19.505 8.68128 19.8985C8.01114 20.5451 7.98068 20.8262 7.98068 24.2559C7.98068 29.8502 8.68128 31.2277 11.575 31.2558C14.1642 31.2558 16.601 30.2437 20.896 27.3482C21.8707 26.6735 22.7845 26.1394 22.9368 26.1394C23.8202 26.1394 22.5713 30.806 20.5914 34.9947C18.7028 38.9585 18.916 38.7898 17.3626 37.6091C15.5654 36.2597 14.8952 35.9786 13.6159 35.9786C12.3061 35.9786 10.8744 37.1031 10.5394 38.3962C10.2348 39.4364 11.3009 41.2355 12.763 42.1632C14.4383 43.2315 14.7125 43.5407 14.4079 44.0748C14.286 44.3279 14.0728 45.3399 13.9814 46.3238C13.89 47.2796 13.6159 48.4041 13.3418 48.7696C13.0676 49.135 12.8544 49.6972 12.8544 49.9784C12.8544 50.6812 11.575 52.2273 10.3262 53.0145C9.7474 53.3518 8.5899 54.4482 7.737 55.4321C6.8841 56.416 5.08692 58.4401 3.74666 59.9581C0.94428 63.1348 0.365527 64.5123 0.121842 68.3074L0 70.6969L2.04086 75.1386C4.05126 79.4397 7.31055 85.0903 9.38187 87.7609C9.93016 88.4637 10.6612 89.5882 11.0267 90.2348C12.2452 92.4556 15.0171 94.7327 16.0527 94.3391C16.266 94.2829 16.997 94.3391 17.6976 94.5078C18.6419 94.7327 19.0683 94.7327 19.3425 94.4797C19.5253 94.311 20.6218 94.1704 21.7489 94.1704C24.6731 94.1704 25.5869 93.7206 27.8105 91.2468C28.8462 90.0661 29.7905 89.1946 29.9123 89.3071C30.0342 89.4195 30.2779 90.0942 30.4911 90.7689C31.1003 92.7367 32.136 94.0299 33.5371 94.564C35.0906 95.1262 37.6493 95.1544 39.3247 94.5921C41 94.058 43.9242 91.6685 45.7519 89.3352C46.5743 88.295 47.5795 87.3111 47.945 87.1143C48.3105 86.9175 49.7117 86.7489 51.052 86.7489L53.4889 86.7208L53.9762 87.9015C54.4941 89.1946 55.5602 90.3753 56.7177 90.9376C57.1441 91.1343 58.5758 91.556 59.8856 91.8934C61.2259 92.2307 63.1753 92.9616 64.2415 93.5239C65.9777 94.3953 66.4042 94.5078 67.6531 94.3672C69.6025 94.1423 72.9227 92.9054 73.8061 92.0339L74.5067 91.3592L73.6538 89.1946C72.4049 85.8493 71.3692 85.0621 67.8358 84.8091C63.0839 84.4718 61.1954 83.1786 58.4235 78.4277C56.5349 75.1105 56.5958 74.4639 59.1241 72.2431C60.0988 71.3997 61.0431 70.4439 61.1954 70.1628C61.4086 69.8254 61.4695 68.3355 61.3782 66.199C61.2259 63.5002 61.2868 62.6288 61.6523 61.9822C61.9264 61.5043 62.2311 60.5766 62.3529 59.9019C62.4747 59.2272 62.7793 58.2433 62.9926 57.7373C63.2362 57.2313 63.419 56.4722 63.419 56.0787C63.419 55.0385 63.7541 55.3478 65.3076 57.8216C67.257 60.8858 69.237 63.2472 72.1917 65.9741C74.8113 68.3917 75.9688 69.0945 78.4361 69.713C81.1776 70.3877 82 69.4881 82 65.8616C82 64.0625 81.8782 63.5002 81.208 62.432C80.2028 60.8296 78.3447 58.7493 76.578 57.2313C75.3596 56.1911 72.8009 53.6048 67.2266 47.6732C62.5661 42.7255 60.9822 40.2235 61.4086 38.6211C61.6218 37.834 63.3886 36.7095 65.399 36.0348C67.5617 35.332 68.0795 34.4887 68.11 31.8461C68.1404 29.8783 68.0186 29.4847 67.1352 28.0791C66.3432 26.7579 65.9168 26.4205 64.7593 25.9988C62.8098 25.3241 60.8299 25.549 58.9108 26.6735C56.4435 28.1353 55.3165 29.316 54.8596 30.9184C54.4331 32.4927 54.6464 32.4646 51.5394 31.3963C49.7727 30.806 48.1887 29.5691 48.1887 28.8381C48.1887 28.304 50.0468 27.0109 52.575 25.7739C55.0728 24.537 57.2355 22.6816 57.662 21.3885C57.8447 20.7981 57.9361 19.7017 57.8752 18.9427C57.7229 17.3966 56.3826 13.9669 55.6516 13.2079C55.1642 12.7019 53.3366 12.0272 51.0825 11.493C49.8336 11.1838 44.6248 11.4087 43.4673 11.8023C42.8581 11.9991 38.8678 11.7179 38.5631 11.4368C38.4718 11.3525 38.6241 11.0432 38.9287 10.734C39.873 9.69387 40.8477 7.22002 40.8782 5.75819C40.8782 3.03133 39.873 1.26026 38.1062 0.92292C37.6493 0.838585 37.0706 0.585587 36.8878 0.388802C36.37 -0.173439 33.9027 -0.117218 32.8061 0.501244ZM35.1516 15.2319C35.4257 15.4287 35.8522 16.2159 36.0958 17.003L36.5223 18.4086L35.3648 20.5451C34.7556 21.6977 33.5981 23.4969 32.8366 24.537C32.075 25.549 31.1308 27.0109 30.7043 27.7699C30.3083 28.5008 29.7296 29.2879 29.4859 29.4847C29.2117 29.7096 28.9985 30.047 28.9985 30.2719C28.9985 30.4968 27.841 32.8582 26.4398 35.5007C25.0082 38.1713 23.3633 41.3761 22.7845 42.6692C21.0178 46.5206 18.3982 50.7655 16.5401 52.7896C15.5958 53.8297 14.0423 55.6851 13.159 56.922C10.5698 60.4923 7.21917 64.2312 7.12779 63.697C7.06686 63.444 7.18871 62.5725 7.37147 61.7854C7.737 60.1549 9.13819 58.2433 12.5802 54.7574C16.0527 51.2434 18.581 45.9865 18.2764 43.0066C18.185 42.107 18.0936 42.0227 17.2103 42.0227C16.662 42.0227 15.9614 41.7697 15.5349 41.4323C15.1694 41.095 14.4688 40.6171 14.0119 40.3359C13.0371 39.7737 12.6716 38.9304 13.159 38.3681C13.7073 37.7496 13.8596 37.8059 15.9309 39.352C18.2459 41.0669 19.0988 41.1512 20.3782 39.8299C22.5104 37.581 25.9829 28.1916 26.5921 22.9627C26.9577 20.0391 27.5669 18.8303 29.6686 16.9468C31.8313 15.007 33.9331 14.3605 35.1516 15.2319ZM53.9762 17.4247C54.7073 17.7901 55.4993 19.2519 55.4993 20.264C55.4993 21.3041 53.9458 22.6816 51.448 23.8904C45.9955 26.533 44.7467 28.5008 46.8789 31.0871C47.7318 32.1554 49.7727 33.1674 52.6969 34.0389L54.89 34.6854V36.2316C54.89 37.9745 55.4383 41.2074 55.8648 41.9383C56.1389 42.4725 55.682 42.6692 55.347 42.1913C55.0423 41.7415 48.737 37.8059 46.7571 36.8501C44.9903 35.9786 43.315 34.3481 43.315 33.5047C43.315 33.308 43.1322 32.8582 42.8886 32.5208C42.127 31.4526 41.2132 27.7699 41.5483 27.0109C41.7006 26.6173 41.7615 26.1675 41.6701 25.9426C41.5788 25.7177 42.9799 24.5089 45.234 22.8503C47.2444 21.3322 49.5594 19.5893 50.3209 18.9427C52.4227 17.1717 53.0015 16.9468 53.9762 17.4247ZM40.7259 34.6011C42.6753 36.9063 43.8024 37.8621 45.5996 38.7054C48.7065 40.1954 53.6412 43.5969 55.9562 45.874C58.7281 48.6009 59.0631 49.0226 59.3068 50.3157C59.4591 51.2153 59.3982 51.3277 58.4844 51.7213C57.5401 52.1149 57.4792 52.2554 57.2964 53.8297C57.2051 54.7574 56.9005 55.9381 56.5958 56.416C56.0476 57.3999 55.2556 57.5686 53.1233 57.175C51.1738 56.8096 51.0215 53.3237 52.8187 50.7374C53.7021 49.4723 53.8239 49.1069 53.8239 47.2796C53.8239 45.3118 53.763 45.1712 52.8796 44.4122C52.1181 43.7937 51.5089 43.5969 49.8336 43.4283C47.5795 43.2034 47.7013 43.1472 46.0565 45.2274C45.6909 45.7335 45.1122 45.8459 42.7972 46.0427C41.2437 46.1551 39.9643 46.1832 39.9643 46.0708C39.9643 45.9865 40.5126 45.3118 41.1828 44.609C42.6144 43.119 42.7667 42.0227 41.7311 40.7295C40.7563 39.5207 39.873 39.1552 37.2838 38.9303C35.974 38.8179 34.9993 38.593 34.9079 38.3681C34.7251 37.9183 36.1263 34.4887 36.8878 33.4766C37.8626 32.2397 38.9896 32.577 40.7259 34.6011ZM50.3819 48.0105C50.3514 48.7977 50.0773 49.9784 49.8336 50.6531C49.5594 51.3277 49.2853 53.0145 49.1939 54.4482C49.0416 56.5566 49.1025 57.175 49.529 57.7373C50.3819 58.9742 51.7221 59.3959 54.6464 59.424C57.266 59.4521 57.266 59.4521 57.4487 60.2392C57.7838 61.7854 57.266 62.2914 54.8291 62.8256C52.7273 63.2753 52.5141 63.2753 50.8388 62.8256C49.8945 62.5725 48.9807 62.1509 48.8284 61.8979C48.2496 60.8296 47.8536 57.681 47.9146 54.8136C48.0059 51.3277 47.7927 50.8779 46.1478 50.8779C43.6196 50.8779 41.7615 54.1389 41.1523 59.5927C40.8477 62.0946 40.3603 63.2472 39.5988 63.2472C39.477 63.2472 39.3551 61.8135 39.3551 60.0706C39.3551 57.6529 39.5379 56.2755 40.1166 54.1108C40.5431 52.5647 40.8782 51.0466 40.8782 50.7093C40.8782 49.6972 42.6753 48.6852 45.2036 48.2354C45.8737 48.123 46.9398 47.5888 47.7623 46.9142C49.0721 45.874 49.2244 45.8178 49.8336 46.2114C50.3514 46.5487 50.4733 46.8298 50.3819 48.0105ZM68.9933 52.8458C70.5163 54.4763 73.0141 56.9501 74.5371 58.3276C76.0906 59.7332 77.8574 61.6167 78.5275 62.5163C79.5936 64.0063 79.7155 64.3717 79.7155 65.8898V67.6046L78.8321 67.5203C77.2786 67.3516 76.1516 66.6207 73.2883 63.9219C70.5163 61.2794 69.1151 59.5364 66.13 54.9542L64.4547 52.4241L64.5765 50.3157L64.6984 48.2073L65.4599 49.0507C65.8863 49.5286 67.4703 51.2153 68.9933 52.8458ZM37.0097 50.9342C36.8574 52.1149 36.2786 55.404 35.0602 61.7011C34.3291 65.5524 34.5119 67.1548 35.7912 68.5042L36.7051 69.46L35.7303 70.3033C35.182 70.7531 34.6946 71.1186 34.6642 71.1186C34.6033 71.1186 34.4814 69.713 34.3596 67.9982C34.1464 64.5123 33.7504 63.5284 32.2578 62.6569C30.9785 61.926 29.6077 62.1227 27.841 63.2753L26.4703 64.1749L26.6835 63.1348C27.0186 61.5324 28.3588 58.7493 29.5163 57.3437C30.7348 55.8257 36.6746 49.7535 36.9792 49.7535C37.0706 49.7535 37.101 50.2876 37.0097 50.9342ZM25.6783 50.8217C25.526 51.0747 24.3685 52.5366 23.1501 54.0546C21.6575 55.8819 19.9212 58.6087 17.8804 62.3476C16.2051 65.3837 14.0728 69.207 13.0981 70.8375C11.8492 72.974 11.24 74.4358 10.844 76.0944C10.5698 77.3876 10.2348 78.4277 10.1129 78.4277C9.7474 78.4277 7.67608 74.4077 7.49331 73.3394C7.37147 72.721 7.55423 71.5684 7.91976 70.3033C8.43759 68.6166 8.83358 67.9982 10.2652 66.5644C11.2095 65.6368 12.6107 64.0344 13.4027 62.9942C14.9562 60.9702 19.6471 55.4602 21.4747 53.4643C23.6984 51.0747 26.6226 49.2193 25.6783 50.8217ZM46.0565 60.7172C46.5438 62.6569 47.0921 63.697 47.9146 64.1187C48.7979 64.5404 48.4019 64.7934 45.8128 65.3556C44.5639 65.6367 42.9495 66.1428 42.2184 66.5082L40.8782 67.1829L41.3351 66.3395C41.5788 65.8898 41.792 65.3556 41.792 65.1588C41.792 64.9621 42.127 64.1749 42.5535 63.4159C43.0409 62.5444 43.315 61.5605 43.315 60.7453C43.315 59.0867 44.0156 56.0787 44.7162 54.645L45.2645 53.5486L45.4777 56.3598C45.5691 57.9059 45.8432 59.8738 46.0565 60.7172ZM23.8507 59.6208C23.4242 63.8376 23.8811 65.5524 25.4651 66.0584C26.653 66.4239 27.7192 66.1147 29.0594 65.0745C30.8262 63.697 31.5877 64.203 32.0446 67.0705C33.263 74.998 30.7043 84.7248 26.0743 89.8131C24.4294 91.5841 24.1248 91.7809 22.9978 91.8652C21.8403 91.9496 21.6575 91.8652 20.4086 90.5159C18.4896 88.5199 17.6672 86.8894 17.789 85.3995L17.8804 84.1907L19.4034 84.0501C22.3581 83.7409 23.5765 82.7288 25.8001 78.6807C27.3536 75.7852 28.0847 73.1427 28.0847 70.2752C28.0847 68.6166 27.9933 68.2512 27.4146 67.7451C26.5921 67.0423 25.4651 67.1829 24.6426 68.1106C19.7994 73.48 18.4591 74.7731 17.8499 74.6607C16.9056 74.4358 16.266 75.0262 15.6568 76.6567C15.3522 77.4719 14.9866 78.0623 14.8952 77.9498C14.4993 77.6125 14.682 73.6206 15.1085 72.721C18.0632 66.3677 23.6679 56.2755 24.0334 56.6128C24.0944 56.669 24.003 58.0184 23.8507 59.6208ZM57.1441 67.1548C57.7533 67.5203 58.2407 67.9419 58.2407 68.1106C58.2407 68.3074 57.7229 69.2632 57.1137 70.2752C54.951 73.8736 54.7682 74.2952 54.7987 75.5884C54.8291 76.9097 56.0171 80.9016 57.0832 83.1786L57.662 84.4718L57.0223 84.9497C56.2912 85.4838 56.1998 85.4557 53.1538 84.1626C51.2652 83.3473 50.8388 83.0381 50.2905 81.9979C49.925 81.3514 49.4071 80.5642 49.1025 80.255C48.7979 79.9458 48.1887 79.0462 47.7623 78.259L46.9398 76.8253L44.2897 76.6567C42.7972 76.5442 41.0914 76.2631 40.4517 76.0382C39.812 75.7852 38.5327 75.5041 37.5884 75.3916C36.1263 75.2229 35.8522 75.1105 35.7608 74.5764C35.578 73.48 36.5832 72.2431 38.685 71.0061C42.523 68.7291 44.3202 67.9419 47.3967 67.1548C51.3261 66.1428 55.3774 66.1428 57.1441 67.1548ZM25.6478 72.5804C25.2214 74.8856 22.815 79.8614 21.5966 80.9016C20.8655 81.5481 20.8655 81.5481 19.0074 81.0702L17.1189 80.5923L17.7585 79.5522C19.0379 77.4719 25.5565 70.1066 25.8915 70.4158C25.9524 70.472 25.8611 71.4559 25.6478 72.5804ZM36.9487 78.259C37.7103 78.8775 38.685 79.6927 39.1114 80.0301C40.1166 80.7891 40.4822 82.5883 39.9339 83.8533C39.7207 84.3593 39.0505 85.287 38.4718 85.9336C37.558 86.9456 37.2229 87.1424 36.2786 87.1424C35.6694 87.1424 34.3291 86.8613 33.3239 86.4959L31.4658 85.8493L32.0446 84.6967C32.5015 83.7409 33.2935 80.9016 34.055 77.3595C34.2377 76.4599 35.1211 76.741 36.9487 78.259Z" fill="#FF0000" fill-opacity="0.82"/>
</svg>
