<svg width="597" height="203" viewBox="0 0 597 203" fill="none" xmlns="http://www.w3.org/2000/svg">
<path opacity="0.1" d="M7.39738 168.522C13.0509 170.168 16.8996 170.536 24.8439 170.074C38.4259 169.269 48.3886 164.713 61.1174 153.369L70.7905 144.635L70.415 129.714C70.2897 113.995 65.5363 96.6216 60.1193 92.4861C55.9904 89.1362 47.6756 75.2733 47.3835 70.7984C47.101 67.5173 47.6114 67.2148 55.0437 66.857C76.8287 65.8874 87.215 82.3206 81.0097 107.94C79.2682 114.62 79.5286 115.115 85.1805 116.563C94.944 119.171 103.655 118.405 111.315 114.464C115.146 112.543 119.747 110.915 121.542 110.9C125.388 110.87 135.991 122.326 136.025 126.604C136.037 128.196 134.264 130.797 132.224 132.306C130.186 133.914 128.41 136.217 128.419 137.311C128.428 138.505 126.655 141.205 124.364 143.313C118.001 149.134 115.777 159.599 119.905 162.849C124.547 166.195 127.369 166.471 158.135 166.425C187.363 166.49 213.784 168.17 223.291 170.681C232.54 173.095 258.205 176.472 267.178 176.4C284.355 176.263 299.19 171.867 309.638 163.824C317.026 157.895 317.264 155.605 310.565 151.479C303.35 146.96 290.522 145.869 247.709 146.21C215.919 146.463 210.79 146.305 201.545 144.389C187.935 141.712 181.503 138.878 173.503 132.375C166.535 126.66 164.679 118.914 169.522 115.393C172.835 112.879 176.944 113.742 176.969 116.926C176.999 120.607 188.9 134.142 194.045 136.29C196.617 137.364 201.751 138.119 206.879 138.078C219.184 137.98 221.728 135.473 222.139 122.734C222.567 112.085 224.594 109.084 232.285 109.022C236.131 108.992 236.394 109.786 237.045 127.192C237.384 137.537 238.158 138.127 251.244 139.416C263.815 140.51 273.261 135.46 276.771 125.482C279.029 119.196 283.855 113.586 287.188 113.559C287.957 113.553 288.226 115.143 287.728 116.938C286.728 120.229 287.5 120.522 297.77 122.33C303.931 123.375 314.199 124.885 320.615 125.73C334.474 127.51 341.157 129.645 341.179 132.431C341.189 133.625 344.056 139.472 347.692 145.413C353.667 155.116 354.203 158.096 353.808 172.824C353.397 185.662 353.943 189.737 356.772 190.909C362.176 193.452 371.145 192.784 378.553 189.442C390.302 183.776 393.073 177.685 393.928 156.287C394.099 145.54 395.307 136.278 396.071 135.675C399.643 133.457 405.293 134.606 420.47 140.952C431.017 145.345 436.941 148.781 438.758 151.552C442.649 157.192 444.196 158.374 462.992 168.372C472.26 173.173 487.454 181.509 496.725 186.709C517.584 198.283 526.074 201.896 535.054 202.72C547.625 203.814 550.172 201.704 548.553 191.569C545.052 170.404 540.122 163.081 524.424 155.744C519.535 153.495 515.672 151.337 515.668 150.839C515.664 150.342 507.95 147.518 498.183 144.511C462.969 133.35 419.748 114.692 407.109 105.141C394.986 95.9851 390.452 73.9335 398.84 64.8127C402.397 60.8046 404.441 59.8928 412.637 58.8326C418.015 58.0932 424.166 57.8452 426.989 58.2207C429.557 58.6977 432.379 58.9736 433.148 58.868C434.172 58.7604 444.438 60.0714 456.245 61.7682C474.47 64.4088 478.837 65.4684 485.532 69.0963C493.256 73.2135 493.258 73.4124 492.577 84.4617C491.888 94.6156 492.411 95.8054 497.302 98.2537C501.42 100.31 505.014 100.879 512.192 100.821C520.653 100.754 523.979 99.9315 539.568 93.6385C555.158 87.4451 558.484 86.5231 566.688 86.4577C578.994 86.3596 587.943 83.403 593.539 77.7867C597.862 73.275 597.861 73.1755 590.886 66.565C577.707 53.6363 580.02 54.3143 505.824 41.6731C498.635 40.437 486.312 38.3464 478.097 36.9195C469.881 35.4925 460.888 33.0769 457.8 31.6091C454.967 30.0398 449.828 28.5883 446.749 28.3144C443.414 28.0425 433.904 25.1335 425.418 21.9178C416.931 18.6027 407.937 16.0875 405.117 16.11C402.041 16.1345 393.346 18.8902 383.636 23.0469C369.326 29.0311 366.265 30.9459 359.662 38.8586C352.297 47.6728 352.046 48.2717 352.949 65.0791C353.615 84.2761 352.856 85.5756 337.005 91.1741C326.266 94.941 322.934 95.0671 315.989 92.1376C308.529 89.1128 304.399 85.5639 294.566 74.2005C280.33 57.3005 269.77 51.216 257.73 52.5059C250.557 53.2596 247.245 55.8728 240.918 66.2707C236.871 73.168 236.104 73.4726 233.267 71.3064C231.463 70.1268 227.845 66.5739 225 63.5122C219.569 57.5859 216.996 56.4125 207.766 56.486C198.537 56.5596 192.41 59.8918 190.663 65.8754C188.662 72.06 185.861 74.5696 182.004 73.1079C177.889 71.4494 171.41 62.7455 169.567 56.7906L167.984 51.132L198.995 49.6909C215.91 48.8596 231.29 48.4385 233.087 48.8221C237.968 49.9771 317.181 48.7487 328.195 47.3675C347.405 45.0254 353.247 38.2133 342.928 30.137C335.703 24.4239 323.377 21.9354 291.823 19.6001C263.347 17.4392 247.172 14.5833 221.216 6.93022C201.171 1.02089 193.983 -0.115759 178.601 0.00686949C165.013 0.115191 164.502 0.218778 150.446 6.002C139.203 10.7678 135.122 13.3872 130.042 19.3974C124.201 26.3091 123.705 28.4024 123.1 49.0025C122.513 71.8908 120.742 74.8898 113.241 66.5921C109.88 63.0371 107.787 57.8801 99.1162 31.4837C95.4335 19.7728 93.6254 18.0958 84.1239 16.1817C47.9188 9.30671 9.09594 27.8236 5.45584 53.6217C4.0009 64.0801 8.19958 76.185 21.7235 100.254C26.1444 108.079 27.9945 115.029 28.5834 124.576C29.4707 139.393 28.9619 139.895 10.5945 151.483C-2.41521 159.745 -3.39627 165.325 7.39738 168.522ZM36.0456 31.4891C40.1213 28.1733 45.486 25.7426 51.3722 24.4023C60.0744 22.542 60.3308 22.54 69.064 24.5597C73.9445 25.7148 79.3457 27.8606 81.1522 29.3386C82.9586 30.8166 87.1295 39.4393 90.7916 48.5636C96.815 64.4346 101.748 72.1559 107.667 74.8945C109.467 75.5766 115.624 76.1245 121.777 76.0755C134.596 75.9733 135.105 75.5712 136.047 65.0173L136.764 58.5445L141.426 64.3775C144.015 67.6402 158.982 79.7586 174.457 91.2761C199.217 109.684 203.089 113.036 205.191 119.387C208.341 128.515 208.369 132.097 205.805 132.117C202.729 132.142 198.066 126.11 193.63 116.395C189.454 107.076 186.363 105.309 167.876 101.875C147.848 98.1543 121.642 91.2991 113.153 87.6855C109.036 85.828 101.813 80.3139 97.1579 75.2768C87.8501 65.5011 73.68 56.8585 63.6658 54.9485C60.0711 54.2807 51.6062 53.7512 44.9406 53.8043C34.6858 53.8861 32.3753 53.5065 30.3093 51.6326C25.663 47.6899 28.9109 37.0181 36.0456 31.4891ZM137.703 144.102C143.798 136.89 149.396 131.572 151.191 131.558C151.96 131.552 155.565 133.513 158.918 135.973C166.653 141.483 180.537 146.347 198.254 149.688C211.349 152.171 212.888 152.258 240.571 151.341C274.406 150.375 293.644 151.515 299.567 154.85C302.917 156.913 302.665 157.512 295.782 162.442C290.684 166.164 285.318 168.396 278.662 169.742C269.447 171.607 268.678 171.613 254.565 170.034C246.61 169.202 235.315 167.401 229.407 166.056C213.484 162.601 192.449 161.177 161.684 161.322C146.814 161.441 133.737 161.247 132.708 160.757C129.88 159.785 132.878 150.011 137.703 144.102ZM161.3 16.6608C165.882 12.5451 174.84 10.6827 187.152 11.3805C193.052 11.7315 199.725 12.5738 201.782 13.3533C204.095 14.0313 211.282 15.0684 218.209 15.6102C224.879 16.154 238.226 18.0375 247.727 19.8521C259.025 22.0504 272.883 23.7308 288.017 24.6051C316.746 26.366 328.561 29.0576 332.964 34.5942C335.812 38.0538 335.562 38.8517 332.239 40.1716C320.739 44.84 258.698 45.3346 188.675 41.5151C164.564 40.2149 161.476 38.7471 160.108 28.0127C159.815 23.3388 159.014 19.4649 158.757 19.3675C158.5 19.27 159.516 18.068 161.3 16.6608ZM203.801 73.6306C205.83 70.9281 214.563 72.8484 228.713 79.0037C236.946 82.6194 246.212 87.1222 249.048 89.0895C253.945 92.3338 253.951 93.0302 250.897 95.9399C247.587 98.7521 246.564 99.0587 238.868 98.6226C216.041 97.4117 198.792 88.5947 201.284 79.5209C202.032 76.9281 203.037 74.3332 203.801 73.6306ZM254.102 112.032C256.135 109.728 258.69 108.613 263.558 108.176C267.401 107.847 272.524 107.309 274.829 106.992C280.721 106.348 280.718 106.05 271.801 113.085C267.214 116.604 264.169 120.509 264.187 122.797C264.219 126.876 257.359 134.691 254.027 134.718C252.745 134.728 251.202 134.143 250.427 133.453C248.362 131.678 251.057 115.937 254.102 112.032ZM255.272 65.7583C257.802 61.5593 260.594 58.0548 261.363 58.0487C263.671 58.0303 275.29 68.3845 280.469 74.8103C284.095 79.3582 289.783 85.2825 296.497 91.3976C299.339 94.0613 265.426 85.2777 258.475 81.6518C249.721 77.0454 249.457 76.0525 255.272 65.7583ZM345.537 100.16C347.833 98.7489 352.174 96.5254 355.239 95.108C368.525 89.331 371.561 84.2325 372.705 66.9114C373.597 50.1893 376.113 44.1001 386.051 36.5588C392.422 31.6328 398.312 30.7899 409.609 32.7892C420.649 34.7906 454.079 47.2593 452.553 48.8634C452.045 49.4644 452.569 50.8532 453.859 51.8378C457.985 54.8892 453.63 55.3219 439.001 53.3492C424.884 51.4718 424.372 51.4759 410.798 53.375C393.64 55.8002 391.085 56.915 384.227 65.0287C379.145 70.7404 378.649 72.8337 380.261 82.0738C382.423 95.9857 391.49 107.654 409.019 119.553C416.752 124.764 425.252 129.771 428.337 130.841C435.021 133.076 455.894 146.341 466.991 155.406C471.636 159.15 477.571 163.978 480.407 165.945C482.987 168.014 484.795 169.691 484.283 169.695C480.694 169.723 454.159 153.817 452.853 150.743C450.51 146.384 440.726 141.089 420.924 133.586C406.267 128.131 399.338 127.391 388.593 130.262C384.244 131.391 381.169 131.615 377.573 130.847C368.842 129.126 346.18 116.571 340.232 110.152C338.165 108.079 340.946 103.182 345.537 100.16ZM543.354 53.9102C553.366 55.6213 563.642 58.1262 566.472 59.3971C571.621 62.0423 573.187 65.5122 568.829 65.5469C562.163 65.6 543.154 61.0754 530.812 56.4975C514.098 50.3626 517.937 49.5361 543.354 53.9102Z" fill="url(#paint0_linear_564_279)"/>
<defs>
<linearGradient id="paint0_linear_564_279" x1="-0.463797" y1="104.363" x2="595.783" y2="101.431" gradientUnits="userSpaceOnUse">
<stop stop-color="#FFFBFB"/>
<stop offset="1" stop-color="#FFFBFB"/>
</linearGradient>
</defs>
</svg>
