<svg width="1440" height="2178" viewBox="0 0 1440 2178" fill="none" xmlns="http://www.w3.org/2000/svg">
<path opacity="0.2" d="M-566.931 1851.3C-538.123 1868.71 -518.757 1872.35 -479.182 1866.59C-411.529 1856.57 -363.199 1806.03 -303.256 1681.32L-257.74 1585.32L-264.493 1422.86C-270.257 1251.7 -299.704 1062.94 -328.144 1018.41C-349.885 982.309 -395.994 832.113 -398.917 783.409C-401.402 747.705 -398.949 744.363 -361.9 739.78C-253.281 727.207 -195.973 905.202 -218.631 1184.77C-225.156 1257.67 -223.692 1263.04 -194.956 1278.28C-145.282 1305.79 -101.972 1296.64 -64.956 1253.01C-46.4296 1231.74 -23.9495 1213.58 -14.9804 1213.26C4.23919 1212.57 61.0044 1336.35 62.573 1382.93C63.1567 1400.26 55.1361 1428.75 45.4328 1445.37C35.766 1463.07 27.6359 1488.31 28.0372 1500.23C28.4749 1513.23 20.4906 1542.8 9.72498 1565.96C-20.1918 1629.94 -27.8934 1744.11 -6.18857 1779.12C18.1153 1815.13 32.3189 1817.87 186.149 1814.52C332.327 1812.53 464.995 1828.38 513.352 1854.85C560.391 1880.28 689.835 1914.68 734.681 1913.07C820.528 1909.99 893.276 1860.74 942.891 1772.19C977.897 1706.94 978.339 1681.98 943.493 1637.68C905.938 1589.13 841.435 1578.43 627.457 1586.1C468.574 1591.8 442.875 1590.56 396.019 1570.54C327.088 1542.65 293.998 1512.38 251.869 1442.3C215.158 1380.71 203.344 1296.53 226.412 1257.74C242.157 1230.06 262.986 1239.08 264.153 1273.74C265.503 1313.83 329.441 1460.13 355.869 1483.04C369.084 1494.5 395.002 1502.25 420.628 1501.33C482.131 1499.12 494.032 1471.58 491.925 1332.82C490.584 1216.81 499.74 1183.94 538.18 1182.57C557.399 1181.88 558.972 1190.5 567.919 1379.99C572.994 1492.61 577.057 1498.97 642.914 1511.79C706.136 1522.54 751.721 1466.67 766.011 1357.7C775.245 1289.03 797.547 1227.49 814.204 1226.9C818.047 1226.76 819.912 1244.05 818.006 1263.64C814.085 1299.57 818.038 1302.68 869.984 1321.43C901.137 1332.24 952.972 1347.74 985.333 1356.34C1055.22 1374.44 1089.33 1397.08 1090.36 1427.41C1090.79 1440.41 1107.04 1503.82 1127.17 1568.18C1160.21 1673.29 1163.87 1705.7 1166.7 1866.12C1168.85 2005.96 1172.91 2050.29 1187.44 2062.78C1215.29 2089.98 1259.92 2081.87 1295.88 2044.79C1352.77 1982.01 1364.64 1915.42 1361.92 1682.32C1359.27 1565.27 1362.28 1464.29 1365.9 1457.66C1383.04 1433.18 1411.67 1445.17 1489.64 1512.87C1543.81 1559.74 1574.56 1596.6 1584.55 1626.61C1605.85 1687.67 1613.97 1700.4 1711.23 1807.54C1759.14 1858.97 1837.84 1948.34 1885.9 2004.1C1993.99 2128.21 2037.63 2166.78 2082.8 2174.92C2146.02 2185.67 2158.07 2162.46 2146.66 2052.23C2122.23 1822.08 2095.19 1742.79 2014.29 1664.34C1989.11 1640.3 1969.09 1617.15 1968.9 1611.74C1968.72 1606.32 1929.22 1576.28 1879.4 1544.45C1699.67 1426.16 1477.44 1226.97 1411.12 1124.13C1347.51 1025.54 1317.62 785.826 1356.59 685.726C1373.07 641.749 1382.99 631.631 1423.63 619.327C1450.28 610.779 1480.96 607.509 1495.2 611.337C1508.19 616.293 1522.4 619.038 1526.2 617.817C1531.29 616.55 1583.06 629.878 1642.65 647.263C1734.65 674.333 1756.83 685.468 1791.49 724.357C1831.47 768.478 1831.54 770.644 1831.74 891.032C1831.62 1001.67 1834.62 1014.58 1859.88 1040.79C1881.15 1062.8 1899.3 1068.66 1935.18 1067.37C1977.46 1065.86 1993.83 1056.59 2069.73 986.621C2145.66 917.734 2161.99 907.386 2202.99 905.915C2264.49 903.709 2308.28 870.684 2334.43 809.006C2354.57 759.474 2354.53 758.391 2317.49 687.049C2247.37 547.476 2259.15 554.646 1884 423.846C1847.65 411.05 1785.35 389.423 1743.8 374.644C1702.25 359.864 1656.49 334.39 1640.57 318.691C1625.89 301.864 1599.72 286.533 1584.23 283.835C1567.47 281.182 1518.96 250.383 1475.48 216.149C1431.95 180.833 1386.16 154.275 1372.06 154.781C1356.69 155.332 1314.11 186.145 1266.91 232.308C1197.31 298.799 1182.63 319.934 1152.2 406.712C1118.25 503.379 1117.19 509.925 1127.2 692.87C1136.8 901.862 1133.43 916.083 1056 978.516C1003.53 1020.53 986.911 1022.21 951.221 990.952C912.932 958.701 891.118 920.437 838.233 797.6C761.523 614.878 706.728 549.596 646.944 564.756C611.323 573.626 595.615 602.391 567.376 716.206C549.392 791.692 545.657 795.08 530.761 771.752C521.354 759.074 502.102 720.717 486.877 687.64C457.781 623.605 444.53 611.064 398.403 612.719C352.276 614.374 322.728 651.227 315.948 716.549C307.959 784.083 294.776 811.672 275.01 796.112C253.889 778.43 218.646 684.246 207.488 619.568L197.721 558.094L352.321 539.532C436.632 528.915 513.401 522.907 522.516 526.919C547.299 539.045 943.004 518.342 997.626 502.283C1092.92 475.002 1119.91 400.278 1065.67 313.283C1027.67 251.737 965.224 225.776 806.674 203.263C663.574 182.365 581.757 152.761 449.463 71.8201C347.296 9.32212 310.981 -2.39108 234.103 0.366769C166.194 2.80286 163.667 3.97817 95.2749 68.2563C40.6119 121.195 21.0594 150.098 -2.37796 216.017C-29.3312 291.824 -31.1274 314.666 -27.4201 539.054C-22.8738 788.358 -30.7488 821.18 -70.9708 731.513C-88.941 693.111 -101.088 637.145 -153.075 350.495C-175.318 223.305 -184.907 205.211 -233.045 185.245C-416.336 113.725 -604.419 318.962 -614.19 600.235C-618.048 714.261 -593.096 845.692 -517.604 1106.55C-492.94 1191.35 -481.417 1266.87 -475.352 1370.77C-466.073 1532.05 -468.453 1537.56 -556.512 1665.45C-618.868 1756.63 -621.95 1817.48 -566.931 1851.3ZM-468.459 356.386C-449.162 319.9 -423.13 292.935 -394.134 277.794C-351.226 256.732 -349.945 256.686 -305.615 277.873C-280.832 290 -253.122 312.868 -243.606 328.796C-234.089 344.724 -210.415 438.239 -189.12 537.262C-153.814 709.538 -126.623 793.165 -96.1316 822.441C-86.9072 829.703 -55.9371 835.1 -25.1856 833.996C38.8798 831.698 41.2965 827.273 42.5548 712.256L44.0276 641.701L69.2434 704.791C83.2603 740.081 162.063 870.665 243.21 994.657C373.037 1192.83 393.497 1228.97 406.082 1297.94C424.814 1397.05 426.127 1436.05 413.314 1436.51C397.938 1437.06 372.649 1371.81 347.292 1266.42C323.362 1165.32 307.33 1146.38 213.763 1110.69C112.398 1072.02 -20.8857 999.792 -64.5185 961.226C-85.7126 941.378 -123.632 881.998 -148.556 827.576C-198.295 721.98 -271.976 629.175 -322.677 609.301C-340.871 602.361 -383.373 597.378 -416.687 598.573C-467.939 600.412 -479.617 596.492 -490.56 576.276C-515.083 533.77 -502.329 417.256 -468.459 356.386ZM76.6813 1573.32C104.806 1494.22 131.062 1435.79 140.031 1435.47C143.875 1435.33 162.543 1456.35 180.112 1482.84C220.594 1542.13 291.608 1593.81 381.295 1628.56C447.59 1654.38 455.315 1655.19 593.441 1642.64C762.318 1628.99 858.89 1639.63 889.6 1675.4C907.023 1697.55 905.961 1704.1 873.153 1758.42C848.877 1799.43 822.772 1824.23 789.932 1839.5C744.462 1860.66 740.618 1860.8 669.526 1844.91C629.477 1836.58 572.406 1818.02 542.425 1803.91C461.671 1767.76 356.02 1754.2 202.227 1758.63C127.911 1761.3 62.4548 1760.39 57.1471 1755.16C42.6881 1744.83 54.4887 1638.11 76.6813 1573.32ZM153.03 183.326C174.598 138.082 218.787 116.973 280.581 123.433C310.197 126.71 343.84 135.265 354.382 143.564C366.169 150.733 402.447 161.363 437.261 166.622C470.794 171.927 538.151 191.203 586.253 210.086C643.47 232.98 713.317 249.998 789.279 258.12C933.515 274.638 993.476 302.857 1017.3 362.743C1032.67 400.154 1031.68 408.866 1015.5 423.547C959.52 475.449 649.443 486.572 298.041 451.454C177.051 439.524 161.128 423.826 150.782 307.056C147.786 256.185 142.519 214.073 141.201 213.036C139.884 211.998 144.571 198.814 153.03 183.326ZM384.176 799.788C393.442 770.17 437.736 790.274 510.506 855.996C552.857 894.609 600.663 942.787 615.487 963.948C641.035 998.825 641.291 1006.41 626.973 1038.38C611.337 1069.31 606.321 1072.74 567.7 1068.7C453.153 1057.63 364.022 963.207 373.515 864.164C376.411 835.86 380.588 807.509 384.176 799.788ZM648.258 1213.33C657.67 1188.04 670.081 1175.66 694.28 1170.46C713.391 1166.52 738.834 1160.18 750.257 1156.52C779.508 1148.96 779.398 1145.71 737.106 1223.15C715.319 1261.9 701.366 1304.7 702.205 1329.62C703.701 1374.03 671.951 1459.77 655.294 1460.37C648.888 1460.6 640.981 1454.38 636.882 1446.93C625.975 1427.8 634.305 1256.13 648.258 1213.33ZM638.983 709.299C650.264 663.339 663.082 624.917 666.926 624.779C678.457 624.366 739.947 736.047 767.944 805.545C787.56 854.735 817.938 918.723 853.513 984.695C868.593 1013.44 696.14 920.923 660.195 882.081C614.916 832.727 613.27 821.94 638.983 709.299ZM1101.6 1075.58C1112.62 1060 1133.6 1035.39 1148.46 1019.67C1213.01 955.529 1226.53 899.727 1226.59 710.998C1225.58 528.814 1236.17 462.271 1283.41 379.228C1313.65 324.995 1342.83 315.272 1399.97 335.999C1455.84 356.773 1627.08 489.464 1619.97 507.073C1617.63 513.665 1620.7 528.74 1627.47 539.344C1649.1 572.191 1627.47 577.306 1553.67 557.176C1482.47 538.037 1479.9 538.129 1412.65 560.065C1327.64 588.062 1315.23 600.438 1283.59 689.429C1260.04 752.098 1258.25 774.94 1269.33 875.415C1284.68 1026.71 1333.84 1152.94 1425.38 1280.9C1465.75 1336.93 1509.89 1390.67 1525.67 1402.03C1559.82 1425.75 1668.54 1568.28 1726.99 1665.97C1751.44 1706.31 1782.69 1758.34 1797.52 1779.5C1811.1 1801.79 1820.69 1819.88 1818.12 1819.97C1800.19 1820.62 1662.3 1649.85 1654.76 1616.5C1641.63 1569.25 1590.97 1512.49 1489.5 1432.62C1414.42 1374.57 1379.53 1367.14 1326.74 1399.41C1305.36 1412.1 1290.06 1414.82 1271.83 1406.8C1227.61 1388.86 1110.18 1254.24 1078.34 1184.88C1067.32 1162.5 1079.63 1108.91 1101.6 1075.58ZM2075.67 553.635C2126.3 571.343 2178.5 597.671 2193.07 611.249C2219.68 639.579 2228.64 677.22 2206.86 678.002C2173.55 679.197 2077.02 631.681 2013.8 582.971C1928.22 517.709 1947.14 508.352 2075.67 553.635Z" fill="url(#paint0_linear_564_166)"/>
<defs>
<linearGradient id="paint0_linear_564_166" x1="-627.209" y1="1153.34" x2="2357.67" y2="1052.83" gradientUnits="userSpaceOnUse">
<stop stop-color="#FFFBFB"/>
<stop offset="1" stop-color="#FF0000"/>
</linearGradient>
</defs>
</svg>
